<svg xmlns="http://www.w3.org/2000/svg" data-name="Isolation Mode" viewBox="0 0 60.04 58.92">
  <path fill="#ffffff" d="M13 21.16a3.31 3.31 0 0 1 0-4.66L29.52 0l1.67 1.68L19.27 13.6a3.13 3.13 0 0 0 0 4.41l15 15-4.7 4.7ZM31.46 45a1.42 1.42 0 0 1 1 .38 1.34 1.34 0 0 1 .38 1 1.7 1.7 0 0 1-.17.8 1.14 1.14 0 0 1-.47.48 1.52 1.52 0 0 1-.76.17 1.71 1.71 0 0 1-.77-.15 1.19 1.19 0 0 1-.5-.47 1.71 1.71 0 0 1-.19-.8 1.3 1.3 0 0 1 .4-1.09 1.29 1.29 0 0 1 1.08-.32Zm.37.8a.53.53 0 0 0-.43-.18.51.51 0 0 0-.41.18 1.07 1.07 0 0 0-.16.61A1 1 0 0 0 31 47a.53.53 0 0 0 .42.18.49.49 0 0 0 .42-.18 1 1 0 0 0 .15-.64.84.84 0 0 0-.16-.56Zm-3.36-.18h.23l.18.15.12.23.69-.12a1.23 1.23 0 0 0-.44-.66 1.38 1.38 0 0 0-.82-.21 1.43 1.43 0 0 0-1 .37 1.51 1.51 0 0 0-.43 1.06 1.55 1.55 0 0 0 .21.84 1.18 1.18 0 0 0 .48.46 1.73 1.73 0 0 0 .74.13 1.57 1.57 0 0 0 .61-.1 1 1 0 0 0 .4-.32 1.34 1.34 0 0 0 .24-.53L29 46.7a.73.73 0 0 1-.15.35.46.46 0 0 1-.37.14.49.49 0 0 1-.39-.17 1.07 1.07 0 0 1-.14-.63 1 1 0 0 1 .12-.54.49.49 0 0 1 .4-.23Zm-3.61-25.19L36 31.49l4.68-4.71-10.17-10.12a2.23 2.23 0 0 1 0-3.15l6.29-6.29-1.69-1.69-10.25 10.24a3.31 3.31 0 0 0 0 4.66ZM57 47.16h-1.5v-.54h1.31v-.57h-1.35v-.44h1.42V45h-2.27v2.77H57Zm-17.81-1.55V45h-2.27v2.77h2.32v-.63h-1.42v-.54h1.32v-.57h-1.32v-.44Zm13.7 2.18h-1.26V45h1.26a1.4 1.4 0 0 1 .61.1 1 1 0 0 1 .38.3 1.08 1.08 0 0 1 .22.44 2.33 2.33 0 0 1 .06.53 1.81 1.81 0 0 1-.1.69 1 1 0 0 1-.28.41.85.85 0 0 1-.38.22 1.7 1.7 0 0 1-.51.1Zm-.2-.64a.81.81 0 0 0 .38 0 .41.41 0 0 0 .18-.21 1.32 1.32 0 0 0 .06-.48 1 1 0 0 0-.14-.6.6.6 0 0 0-.48-.17h-.21v1.51Zm6.86 0h-1.32V45h-.85v2.77h2.17Zm-13 .72v-2.81h-.85v2.77Zm-21.18-2.22v-.59H23.1v2.77h2.31v-.63H24v-.54h1.32v-.57H24v-.44Zm18.59 0h.29l.17.15.08.18.75-.16a1.23 1.23 0 0 0-.44-.66 1.65 1.65 0 0 0-1.85.16 1.51 1.51 0 0 0-.44 1 1.55 1.55 0 0 0 .21.84 1.2 1.2 0 0 0 .49.46 1.66 1.66 0 0 0 .73.13 1.57 1.57 0 0 0 .61-.1 1 1 0 0 0 .4-.32 1.34 1.34 0 0 0 .24-.53l-.75-.22a.74.74 0 0 1-.18.39.46.46 0 0 1-.37.14.49.49 0 0 1-.39-.17 1.07 1.07 0 0 1-.14-.63 1 1 0 0 1 .12-.54.49.49 0 0 1 .51-.11Zm-2.1.83a.74.74 0 0 1-.29.12.88.88 0 0 1 .22.1l.21.3.41.8h-1L41 47a.51.51 0 0 0-.15-.21l-.21-.07-.08 1.13-.9-.06v-2.73h1.46a1.79 1.79 0 0 1 .61.07.61.61 0 0 1 .34.25.71.71 0 0 1 .12.45.78.78 0 0 1-.09.4.64.64 0 0 1-.24.26Zm-.48-.6-.08-.21a.6.6 0 0 0-.32-.07h-.38v.53h.64c.12-.13.14-.13.14-.24Zm-5.85-28.47a3.29 3.29 0 0 0 1 2.33L42 25.29l4.69-4.69-5.25-5.25a1.34 1.34 0 0 1 0-1.89l.72-.71-1.67-1.67-4 4a3.29 3.29 0 0 0-.96 2.33ZM34.79 50h-3.42v5.29a1.32 1.32 0 0 1-.5 1.12 2.27 2.27 0 0 1-1.39.4 2.17 2.17 0 0 1-1.39-.41 1.36 1.36 0 0 1-.5-1.11V50h-3.43v5.33a4.83 4.83 0 0 0 .32 1.35 2.59 2.59 0 0 0 .73 1 4.3 4.3 0 0 0 1.18.75 6 6 0 0 0 1.6.36c.63 0 1.22.08 1.76.08a8.44 8.44 0 0 0 2.4-.29 4.09 4.09 0 0 0 1.37-.72 3.06 3.06 0 0 0 1-1.2 3.38 3.38 0 0 0 .31-1.47v-2.86Zm-14.48 2.33 3.07 6.45h-3.59l-.55-1.44h-3.89l-.55 1.44h-3.5l3.08-6.45L15.47 50h3.12l.08-.05V50h.54Zm-1.8 3.12-1.2-3.12-1.2 3.12ZM7 56.52a2.28 2.28 0 0 1-1.49.48A2.19 2.19 0 0 1 4 56.41a2.77 2.77 0 0 1-.56-2 2.63 2.63 0 0 1 .47-1.72 1.32 1.32 0 0 1 .35-.32 2.31 2.31 0 0 1 1.4-.37 2.43 2.43 0 0 1 .93.16 2 2 0 0 1 .45.25l.25.22a1.7 1.7 0 0 1 .34.58l3-.53-.13-.27a4 4 0 0 0-1.65-1.77 7 7 0 0 0-3.3-.67 7 7 0 0 0-3.78.9l-.34.23a3.9 3.9 0 0 0-1 1.28 4.62 4.62 0 0 0-.43 2 4.26 4.26 0 0 0 .83 2.67 4.58 4.58 0 0 0 2 1.45 8.74 8.74 0 0 0 3 .41 7.55 7.55 0 0 0 2.46-.34A3.59 3.59 0 0 0 10.75 56l-3-.75A2.37 2.37 0 0 1 7 56.52Zm27.83-9.82L34.4 45h-1.12v2.81H34v-2.09l.53 2.11h.58l.54-2.11v2.07h.69V45h-1.08ZM60 58.82h-3.55l-.55-1.44H52l-.56 1.44H48l3-6.45 1.09-2.29h3.76L57 52.37Zm-4.87-3.34L54 52.37l-1.2 3.11Zm-6.68-7.65a1.71 1.71 0 0 1-.77-.15 1.06 1.06 0 0 1-.49-.47 1.58 1.58 0 0 1-.19-.8A1.31 1.31 0 0 1 48.46 45a1.46 1.46 0 0 1 1.06.38 1.37 1.37 0 0 1 .37 1 1.49 1.49 0 0 1-.17.8 1.12 1.12 0 0 1-.46.48 1.58 1.58 0 0 1-.77.17Zm0-.64a.51.51 0 0 0 .42-.18 1 1 0 0 0 .15-.64.83.83 0 0 0-.16-.57.53.53 0 0 0-.43-.18.52.52 0 0 0-.41.18 1.09 1.09 0 0 0-.15.61A1 1 0 0 0 48 47a.55.55 0 0 0 .47.19Zm-4.83 9.25a2.26 2.26 0 0 1-1.49.44 2.2 2.2 0 0 1-1.58-.54 2.77 2.77 0 0 1-.56-2 2.63 2.63 0 0 1 .47-1.72 1.56 1.56 0 0 1 .35-.33 2.39 2.39 0 0 1 1.44-.41 2.51 2.51 0 0 1 .94.16 2.09 2.09 0 0 1 .44.25 1.94 1.94 0 0 1 .26.23 1.68 1.68 0 0 1 .33.58l3-.53-.13-.28a3.82 3.82 0 0 0-1.65-1.77 6.67 6.67 0 0 0-3.29-.67A6.54 6.54 0 0 0 38 51a3.8 3.8 0 0 0-1 1.28 4.62 4.62 0 0 0-.43 2 4.27 4.27 0 0 0 .8 2.72 4.45 4.45 0 0 0 2 1.45 9 9 0 0 0 3 .41 7.29 7.29 0 0 0 2.46-.34 4 4 0 0 0 1.62-1 3.88 3.88 0 0 0 1-1.67l-3.07-.67a2.45 2.45 0 0 1-.74 1.26ZM2.12 46.7ZM7 47.83v-2.11l.52 2.11h.63l.54-2.11v2.11h.69v-2.77H8.23l-.43 1.68-.43-1.68H6.24v2.77Zm3.47 0h-.82l1-2.77h.93l1 2.77h-.89l-.08-.46h-1Zm.36-1.06h.6l-.3-1Zm-9.9 1a1.73 1.73 0 0 0 .74.13 1.52 1.52 0 0 0 .6-.1 1 1 0 0 0 .4-.32 1.34 1.34 0 0 0 .24-.53l-.73-.21a.71.71 0 0 1-.18.38.43.43 0 0 1-.38.1.51.51 0 0 1-.4-.17 1.06 1.06 0 0 1-.13-.63 1.12 1.12 0 0 1 .11-.54.51.51 0 0 1 .45-.23h.23l.17.15.08.18.73-.12a1.23 1.23 0 0 0-.44-.66 1.61 1.61 0 0 0-1.82.16 1.47 1.47 0 0 0-.37 1.06 1.55 1.55 0 0 0 .21.84 1.2 1.2 0 0 0 .45.48ZM15 46.49a.79.79 0 0 1-.3.12.74.74 0 0 1 .22.1l.26.32.38.74 1-2.71h.94l1 2.77h-.89v-.46h-1l-.14.46h-1.89l-.4-.83a.65.65 0 0 0-.16-.21l-.21-.07-.07 1.13h-.87v-2.79h1.42a1.71 1.71 0 0 1 .6.07.61.61 0 0 1 .34.25.72.72 0 0 1 .13.45.7.7 0 0 1-.1.4.68.68 0 0 1-.26.26Zm-.48-.56-.09-.21a.58.58 0 0 0-.32-.07h-.37v.53h.58c.17-.18.19-.18.19-.25Zm2.25.84h.6l-.3-1ZM5.12 44.33h-.66l-.3.56h.35Zm17.25 1.13a1.08 1.08 0 0 1 .22.44 2.33 2.33 0 0 1 .06.53 1.81 1.81 0 0 1-.1.69.87.87 0 0 1-.27.41.94.94 0 0 1-.39.22 1.69 1.69 0 0 1-.5.08h-1.26v-2.77h1.27a1.36 1.36 0 0 1 .6.1 1 1 0 0 1 .37.3Zm-.57 1a.86.86 0 0 0-.14-.6.61.61 0 0 0-.47-.17h-.22v1.51h.21a.81.81 0 0 0 .38 0 .34.34 0 0 0 .18-.21 1.32 1.32 0 0 0 .06-.49Zm-18 1.33H3l1-2.77h1l1 2.77h-.85L5 47.37H4Zm.35-1.06h.6l-.3-1Z"/>
</svg>