<svg xmlns="http://www.w3.org/2000/svg" data-name="Layer 1" viewBox="0 0 1277.87 358.72">
  <path fill="#d9c96f" d="M0 0h1277.87v358.72H0z"/>
  <path fill="#fff" d="M1277.87 0v89.05c-70.1 30.25-154.87 10-202.79-53.43A168.34 168.34 0 0 1 1054.47 0ZM56.02 136.07 236.23 0H87.66L2.09 64.61C1.37 65.16.68 65.72 0 66.3v68.09a44.76 44.76 0 0 0 56.02 1.68Zm482-51a44.75 44.75 0 0 0 62.69 8.75L724.96 0H576.42l-29.64 22.38a44.76 44.76 0 0 0-8.75 62.69ZM120.44 304.54a44.77 44.77 0 0 0-62.7-8.75l-57.78 43.6v19.33h120.25a44.77 44.77 0 0 0 .23-54.18Zm977.16 54.18h148.54l31.73-24v-110a45.18 45.18 0 0 0-10.87 6Z"/>
</svg>