<svg xmlns="http://www.w3.org/2000/svg" data-name="Layer 1" viewBox="0 0 63.58 63.58">
  <path fill="#e77d05" d="M63.58 31.79a31.79 31.79 0 0 1-31.79 31.79A31.79 31.79 0 0 1 0 31.79 31.79 31.79 0 0 1 31.79 0a31.79 31.79 0 0 1 31.79 31.79"/>
  <path fill="#fff" d="M31.8 5.79A26.29 26.29 0 0 0 5.5 32.08a26.28 26.28 0 0 0 26.3 26.29 26.29 26.29 0 0 0 26.28-26.31A26.32 26.32 0 0 0 31.8 5.79M3.33 32.14a28.5 28.5 0 0 1 28.5-28.51 28.5 28.5 0 0 1 28.5 28.51 28.5 28.5 0 0 1-28.54 28.48A28.5 28.5 0 0 1 3.33 32.14M31.77 38c-.73 1.8-1.43 3.49-2.12 5.18-.62 1.51-1.22 3-1.86 4.53a2.65 2.65 0 0 1-2.12 1.69 2.64 2.64 0 0 1-2.48-1.08 2.63 2.63 0 0 1-.22-2.7c1.36-3.47 2.7-6.94 4.09-10.4a9.64 9.64 0 0 0 .31-3.78c0-.41-.36-.64-.78-.68l-4-.37c-1.19-.11-2.38-.18-3.56-.32a2.63 2.63 0 0 1-2.27-2.72 2.59 2.59 0 0 1 .82-1.81 2.62 2.62 0 0 1 1.88-.69c1.9.12 3.81.29 5.7.49a55.19 55.19 0 0 0 11.13.17c2.54-.24 5.08-.46 7.64-.66a2.62 2.62 0 0 1 2 .65 2.6 2.6 0 0 1 .87 1.86 2.63 2.63 0 0 1-2.48 2.73q-3.52.3-7 .63c-.88.08-1 .33-1.1 1.2a9.73 9.73 0 0 0 .86 4.61c1.25 3 2.41 6.07 3.59 9.11a2.64 2.64 0 0 1-.31 2.68 2.63 2.63 0 0 1-2.5 1 2.61 2.61 0 0 1-2.07-1.73l-3.74-9c-.06-.15-.13-.3-.24-.54m0-24.57a5.24 5.24 0 0 1 4.84 3.24 5.26 5.26 0 0 1-1.14 5.72 5.25 5.25 0 0 1-5.72 1.12 5.23 5.23 0 0 1-3.22-4.86 5.22 5.22 0 0 1 1.53-3.69 5.27 5.27 0 0 1 3.71-1.53"/>
</svg>