<svg xmlns="http://www.w3.org/2000/svg" data-name="Layer 1" viewBox="0 0 40.5 43.4">
  <path fill="#0378b3" d="M31.9 26.2a8.6 8.6 0 1 0 .1 17.2 7.94 7.94 0 0 0 6-2.6 8.56 8.56 0 0 0-6.1-14.6Zm.1 15.3a6.81 6.81 0 0 1-6.8-6.8 6.83 6.83 0 0 1 6.8-6.8 6.62 6.62 0 0 1 6.8 6.8 6.81 6.81 0 0 1-6.8 6.84Zm4.5-9.7c.4.5.4.9-.2 1.5-.4.5-1.4 1.3-2.3 2.2a23.6 23.6 0 0 0-2.2 2.1c-.2.3-.4.5-.7.5a1 1 0 0 1-.8-.5c-.6-.6-1.2-1.1-1.8-1.7-.4-.3-.7-.7-1.1-1a1.46 1.46 0 0 1-.5-.8.86.86 0 0 1 .3-.6.55.55 0 0 1 .5-.2 1.2 1.2 0 0 1 .8.4c.5.5 1 .9 1.5 1.4l.8.8.1-.1c.4-.5 1.5-1.4 2.3-2.2A19 19 0 0 1 35 32a1.38 1.38 0 0 1 .9-.5.86.86 0 0 1 .59.3Zm-27.2-15a.9.9 0 0 1-.9.9H6.49a.9.9 0 0 1 0-1.8h1.9a.9.9 0 0 1 .91.9Zm0 5.6a.9.9 0 0 1-.9.9H6.49a.9.9 0 1 1 0-1.8h1.9a.9.9 0 0 1 .91.9Zm0 5.5a1 1 0 0 1-.9 1H6.49a.9.9 0 0 1-.9-.9.92.92 0 0 1 .9-1h1.9a.9.9 0 0 1 .91.9Zm7.4-11.1a.9.9 0 0 1-.9.9h-1.9a.9.9 0 1 1 0-1.8h1.9a.9.9 0 0 1 .9.9Zm0 5.6a.9.9 0 0 1-.9.9h-1.9a.9.9 0 0 1 0-1.8h1.9a.9.9 0 0 1 .9.9Zm0 5.6a1 1 0 0 1-.9.9h-1.9a.9.9 0 1 1 0-1.8h1.9a.9.9 0 0 1 .9.9Zm7.5-11.2a.9.9 0 0 1-.9.9h-1.9a.9.9 0 1 1 0-1.8h1.9a.9.9 0 0 1 .9.9Zm0 5.6a.9.9 0 0 1-.9.9h-1.9a.9.9 0 0 1 0-1.8h1.9a.9.9 0 0 1 .9.9Zm0 5.6a1 1 0 0 1-.9.9h-1.9a.9.9 0 1 1 0-1.8h1.9a.9.9 0 0 1 .9.9Zm7.4-11.2a.9.9 0 0 1-.9.9h-1.9a.9.9 0 1 1 0-1.8h1.9a.9.9 0 0 1 .9.9Zm0 5.6a.9.9 0 0 1-.9.9h-1.9a.9.9 0 0 1 0-1.8h1.9a.9.9 0 0 1 .9.9ZM1.9 30.6V13h33.5v11.9a10.84 10.84 0 0 1 1.9.8V7.6a3.9 3.9 0 0 0-3.9-3.9h-2.6v-2A1.69 1.69 0 0 0 29.1 0H27a1.69 1.69 0 0 0-1.7 1.7v2h-13v-2A1.69 1.69 0 0 0 10.6 0H8.2a1.69 1.69 0 0 0-1.7 1.7v2H3.9A3.9 3.9 0 0 0 0 7.6v22.94a3.9 3.9 0 0 0 3.9 3.9h17.59a11 11 0 0 1 .2-1.8H3.89A2 2 0 0 1 1.9 30.6ZM27 1.9h1.9v4.7H27Zm-18.6 0h1.9v4.7H8.4ZM1.8 7.6a2 2 0 0 1 2-2h2.6v1.1a1.69 1.69 0 0 0 1.7 1.7h2.1a1.69 1.69 0 0 0 1.7-1.7V5.6h13v1.1a1.69 1.69 0 0 0 1.7 1.7h2.1a1.69 1.69 0 0 0 1.7-1.7V5.6H33a2 2 0 0 1 2 2v3.5H1.8Z"/>
</svg>
