<svg xmlns="http://www.w3.org/2000/svg" viewBox="0 0 45.337 45.529">
  <g fill="#0278b3" data-name="Capa 1">
    <path d="M17.56 43.253v-2.87h-.518c-2.271 0-4.542.011-6.813 0A10.163 10.163 0 0 1 .124 31.674 9.958 9.958 0 0 1 4.703 21.5a.811.811 0 0 0 .412-.767c-.013-3.528-.009-7.057-.009-10.586v-.53h5.846v10.212h1.466V6.678h5.845v13.139h1.466V3.739h5.842v16.106h1.457v1.466h-.518c-5.425 0-10.851-.01-16.276 0a8.791 8.791 0 0 0-1.075 17.518 11.373 11.373 0 0 0 1.322.076h8.537v1.534l5.306-3.724-5.292-3.713v1.487c-.156.012-.286.029-.415.029-2.789 0-5.578.015-8.367 0a4.389 4.389 0 0 1-4.4-4.573 4.338 4.338 0 0 1 4.112-4.2c3.7-.059 7.406-.017 11.108-.017a.514.514 0 0 1 .111.034v1.426h-.508c-3.458 0-6.918-.009-10.378 0a2.921 2.921 0 0 0-2.7 4.174 2.693 2.693 0 0 0 2.443 1.667c2.482.051 4.966.016 7.5.016v-2.882l9.338 6.552Zm6.543-23.424V5.205h-2.87v14.624Zm-7.3-11.68h-2.876v11.68h2.876Zm-7.337 11.67v-8.732H6.603v9.363Z" data-name="Trazado 1329"/>
    <path d="M44.316 20.583c-.092.2-.15.337-.216.47-.938 1.884-1.87 3.771-2.823 5.648a.769.769 0 0 0 .022.866 170.902 170.902 0 0 1 2.822 4.711 8.778 8.778 0 1 1-16.315 3.882 8.974 8.974 0 0 1 1.3-4.056c.932-1.54 1.847-3.091 2.782-4.628a.6.6 0 0 0 .023-.665c-.97-1.919-1.925-3.846-2.883-5.77-.066-.132-.122-.269-.2-.439 1 0 1.966-.065 2.911.029a3.251 3.251 0 0 1 1.231.624 3.4 3.4 0 0 1 .507.525.637.637 0 0 0 1.032.023c.377-.337.805-.689 1.2-1.043a.4.4 0 0 0 .122-.265v-5.778c-.755 0-1.481.009-2.206 0a5.084 5.084 0 0 1-4.957-3.969 16.125 16.125 0 0 1-.208-1.946c1.652.054 3.2.039 4.742.177a4.41 4.41 0 0 1 2.6 1.384V5.916c-.722 0-1.448.009-2.173 0a5.084 5.084 0 0 1-4.959-3.968A16.23 16.23 0 0 1 28.464 0a45.188 45.188 0 0 1 4.741.184 5 5 0 0 1 4.088 4.755c.012.314 0 .628 0 1.042a5.157 5.157 0 0 1 2.353-1.344 8.693 8.693 0 0 1 1.581-.181c1.109-.026 2.22-.007 3.325-.007a5.089 5.089 0 0 1-3.675 5.656 10.122 10.122 0 0 1-2.034.2c-.5.031-1 0-1.544 0V14.6a19.008 19.008 0 0 1 2.175-1.1 5.826 5.826 0 0 1 1.751-.244c1.109-.034 2.22-.01 3.327-.01a5.121 5.121 0 0 1-5.11 5.866H37.3c0 .489-.011.946.007 1.4a.47.47 0 0 0 .17.275c.337.3.7.579 1.025.9.489.479.808.53 1.222.011a2.826 2.826 0 0 1 2.644-1.126c.616.054 1.245.011 1.948.011Zm-7.755 7.33c-.977 0-1.955-.01-2.926.01a.592.592 0 0 0-.434.217c-1.046 1.72-2.131 3.421-3.09 5.187a7.3 7.3 0 0 0 6.048 10.7 7.318 7.318 0 0 0 6.682-11.038c-.917-1.619-1.911-3.192-2.854-4.8a.533.533 0 0 0-.549-.287c-.959.013-1.919.007-2.879.007Zm-5.253-5.955-.108.16c.687 1.376 1.367 2.755 2.077 4.121a.574.574 0 0 0 .437.2c1.9.013 3.805 0 5.709.016a.489.489 0 0 0 .524-.323c.415-.865.855-1.719 1.279-2.579.244-.489.478-.97.724-1.473-.522-.031-.546-.02-.943.408-1.29 1.391-2.459 1.393-3.747 0-.032-.033-.061-.068-.093-.1-.452-.468-.8-.507-1.181 0a2.3 2.3 0 0 1-3.952 0 2.594 2.594 0 0 0-.724-.425ZM30.103 1.477a3.419 3.419 0 0 0 2.724 2.857 26.487 26.487 0 0 0 2.906.156 3.468 3.468 0 0 0-2.762-2.864 26.823 26.823 0 0 0-2.868-.149Zm7.266 7.359c.865 0 1.675.053 2.475-.011a3.563 3.563 0 0 0 3.2-2.949 20.2 20.2 0 0 0-2.906.161 3.52 3.52 0 0 0-2.769 2.799Zm-1.633 4.455a3.474 3.474 0 0 0-2.767-2.865 26.851 26.851 0 0 0-2.871-.15 3.436 3.436 0 0 0 2.778 2.867 27.476 27.476 0 0 0 2.86.148Zm7.312 1.435c-.82 0-1.613-.042-2.4.009a3.554 3.554 0 0 0-3.229 2.886 22.315 22.315 0 0 0 2.542-.017 3.528 3.528 0 0 0 3.086-2.877Z" data-name="Trazado 1330"/>
    <path d="M19.764 24.224v-1.4h1.41v1.4Z" data-name="Trazado 1331"/>
    <path d="M24.102 24.241h-1.4v-1.424h1.4Z" data-name="Trazado 1332"/>
    <path d="M25.617 24.217v-1.41h1.41v1.41Z" data-name="Trazado 1333"/>
    <path d="M24.099 27.165h-1.4v-1.41h1.4Z" data-name="Trazado 1334"/>
    <path d="M27.033 27.162h-1.4v-1.416h1.4Z" data-name="Trazado 1335"/>
    <path d="M33.643 32.318h2.176v-1.44h1.471v1.411a2.2 2.2 0 0 1 1.735.893 9.15 9.15 0 0 1 .595 1.3h-1.561c-.1-.568-.506-.727-1.062-.7-.611.026-1.214 0-1.878 0a5.8 5.8 0 0 0 .007.827.707.707 0 0 0 .766.638c.473.006.946 0 1.417 0a2.189 2.189 0 0 1 2.187 2.186c.015.716 0 1.432 0 2.2h-2.173v1.444h-1.466v-1.368c-1.476-.326-2.173-1.042-2.189-2.229h1.4c.244.618.381.707 1.056.709h1.913c0-.265.011-.489 0-.713a.724.724 0 0 0-.756-.749c-.489-.015-.977 0-1.466-.007a2.189 2.189 0 0 1-2.164-2.161c-.02-.736-.008-1.465-.008-2.241Z" data-name="Trazado 1336"/>
  </g>
</svg>