<svg xmlns="http://www.w3.org/2000/svg" data-name="Isolation Mode" viewBox="0 0 48.73 64.94">
  <path fill="#0378b3" d="M48.62 31.53c-.35-1.34-.79-2.66-1.25-4a6.1 6.1 0 0 1 0-4.21c.39-1.09.79-2.19 1.11-3.3a3.7 3.7 0 0 0-1.45-4.47c-.9-.69-1.84-1.34-2.79-2a5.81 5.81 0 0 1-2.5-3.44c-.31-1.12-.65-2.24-1-3.32a3.64 3.64 0 0 0-3.67-2.67h-3.55a5.83 5.83 0 0 1-4-1.35c-.88-.7-1.77-1.38-2.69-2a3.81 3.81 0 0 0-4.77 0c-.92.63-1.82 1.31-2.69 2a5.84 5.84 0 0 1-4 1.36q-1.74-.08-3.48 0a3.67 3.67 0 0 0-3.76 2.74c-.38 1.05-.71 2.12-1 3.2a5.93 5.93 0 0 1-2.57 3.55c-1 .63-1.93 1.3-2.84 2a3.44 3.44 0 0 0-1.47 3.77c.35 1.34.81 2.66 1.25 4a6 6 0 0 1 0 4.1C1.11 28.6.73 29.72.37 30.84a3.72 3.72 0 0 0 1.41 4.43c.91.69 1.85 1.35 2.8 2a6 6 0 0 1 2.54 3.5c.31 1.14.64 2.27 1.06 3.37a1.68 1.68 0 0 1 0 1.32c-1.61 4.08-3.2 8.16-4.8 12.25-.52 1.35.09 2.19 1.53 2 2-.21 4-.44 6-.72a1.46 1.46 0 0 1 1.52.57c1.21 1.52 2.5 3 3.77 4.45a10.94 10.94 0 0 0 1 .9h.76a2.8 2.8 0 0 0 1-1.5c1.55-4 3.12-8 4.68-12 .15-.37.28-.54.76-.54s.6.21.74.57q2.38 6.12 4.78 12.25a2.06 2.06 0 0 0 1.06 1.25h.63a7.48 7.48 0 0 0 .91-.76c1.3-1.5 2.62-3 3.85-4.54a1.56 1.56 0 0 1 1.68-.61c2 .28 3.94.51 5.91.71 1.46.15 2.06-.68 1.53-2q-2.43-6.18-4.83-12.38a1.47 1.47 0 0 1-.09-.83c.33-1.11.78-2.19 1.06-3.31a6.6 6.6 0 0 1 3-4.18 23.62 23.62 0 0 0 2.86-2.1 3.16 3.16 0 0 0 1.13-3.41ZM17.05 61.19c-1.18-1.37-2.31-2.62-3.35-3.95a2.17 2.17 0 0 0-2.31-.87c-1.64.26-3.3.41-5.09.62l4-10.29h4.69a6.18 6.18 0 0 1 4.34 1.42c.57.51 1.21.92 1.79 1.41a.71.71 0 0 1 .21.6c-1.38 3.61-2.81 7.3-4.28 11.06Zm25.36-4.23c-.3 0-.52 0-.73-.05-1.58-.19-3.15-.37-4.72-.58a1.76 1.76 0 0 0-1.72.67c-1.14 1.39-2.32 2.74-3.56 4.19l-3.64-9.28c-.27-.7-.82-1.5-.67-2.1s1.09-.92 1.63-1.41a6.68 6.68 0 0 1 5.2-1.69c1.36.09 2.73 0 4.2 0Zm3.23-23.81a23.48 23.48 0 0 1-2.16 1.54 9.27 9.27 0 0 0-4.42 6.07c-.21.86-.52 1.7-.8 2.54a1.18 1.18 0 0 1-1.19.87h-2.72a9.36 9.36 0 0 0-7.17 2.42 21.39 21.39 0 0 1-2 1.5 1.26 1.26 0 0 1-1.54 0c-.73-.52-1.5-1-2.18-1.62a9.21 9.21 0 0 0-6.78-2.3c-1 .06-2 0-3 0a1.16 1.16 0 0 1-1.18-.87c-.29-.86-.61-1.71-.82-2.59a9.12 9.12 0 0 0-4.3-5.93 21.31 21.31 0 0 1-1.93-1.33c-.92-.69-1-1-.67-2.12.3-.9.61-1.8 1-2.68a9.06 9.06 0 0 0-.09-6.62c-.36-.95-.65-1.92-1-2.88a1.12 1.12 0 0 1 .42-1.35c.72-.57 1.47-1.11 2.25-1.61a9.16 9.16 0 0 0 4.33-6c.2-.81.49-1.61.75-2.41a1.37 1.37 0 0 1 1.43-1.04h2c2 .1 3.7.13 5.23-.74a31.33 31.33 0 0 0 3.17-2.19c2.05-1.56 2.11-1.58 4.17 0 .73.54 1.43 1.11 2.18 1.63a8.44 8.44 0 0 0 5.36 1.34h2.67c1.08 0 1.36.2 1.72 1.23s.57 1.77.8 2.67a8.78 8.78 0 0 0 4 5.37c.69.44 1.37.91 2 1.39 1 .74 1.15 1.12.76 2.31-.26.76-.51 1.53-.81 2.27a9.17 9.17 0 0 0 0 7c.37.92.64 1.87 1 2.81a1.14 1.14 0 0 1-.48 1.32ZM24.43 8.74a16.69 16.69 0 1 0 16.63 16.71A16.65 16.65 0 0 0 24.43 8.74Zm-.12 30.81a14.13 14.13 0 1 1 14.16-14 14.12 14.12 0 0 1-14.16 14.03Zm8.35-17.62c-1.46-.21-2.93-.4-4.38-.65a1.05 1.05 0 0 1-.65-.46c-.68-1.31-1.33-2.64-2-4a1.45 1.45 0 0 0-1.27-1 1.42 1.42 0 0 0-1.33 1c-.65 1.33-1.3 2.65-2 4a.94.94 0 0 1-.58.45c-1.46.24-2.92.44-4.38.64-.62.09-1.18.27-1.39.92a1.44 1.44 0 0 0 .54 1.57c1.07 1 2.14 2.05 3.18 3.11a1 1 0 0 1 .23.69c-.23 1.49-.5 3-.75 4.44a1.43 1.43 0 0 0 .47 1.54 1.38 1.38 0 0 0 1.6 0c1.29-.68 2.59-1.34 3.87-2a.89.89 0 0 1 1 0q2 1.09 4 2.12a1.29 1.29 0 0 0 2-1.27c0-.08 0-.27-.07-.46-.24-1.41-.5-2.83-.71-4.25a1.11 1.11 0 0 1 .26-.8c1-1.06 2.11-2.08 3.18-3.1a1.4 1.4 0 0 0 .49-1.53 1.44 1.44 0 0 0-1.31-.93Zm-4.52 4a2.06 2.06 0 0 0-.73 2.24c.19.81.29 1.65.45 2.6-.93-.49-1.76-.89-2.56-1.35a1.72 1.72 0 0 0-1.85 0c-.8.47-1.63.87-2.58 1.38.17-1.09.31-2.05.5-3a1.6 1.6 0 0 0-.49-1.54c-.68-.69-1.33-1.42-2-2.14.89-.14 1.83-.31 2.78-.41a1.67 1.67 0 0 0 1.4-1c.4-.85.83-1.69 1.31-2.67.46.95.89 1.75 1.27 2.58a1.71 1.71 0 0 0 1.53 1.13c.92.08 1.82.26 2.73.39-.6.65-1.13 1.31-1.76 1.86Z"/>
</svg>