<svg xmlns="http://www.w3.org/2000/svg" data-name="Capa 1" viewBox="0 0 49.583 49.487">
  <path fill="#0378b3" d="M49.584 11.31c-.108.516-.19 1.033-.329 1.549a10.159 10.159 0 0 1-4.951 6.386.591.591 0 0 0-.346.6c.015 1.5.006 2.994.006 4.47-.048.043-.071.081-.094.081a34.472 34.472 0 0 1-4.153-.077 4.943 4.943 0 0 1-4.069-3.242.7.7 0 0 0-.8-.516q-4.7.027-9.392.008A10.278 10.278 0 0 1 24.235.081a12.677 12.677 0 0 1 1.4-.081h13.411a10.28 10.28 0 0 1 10.4 8.578c.044.235.094.467.142.7Zm-8.522 10.145a22.667 22.667 0 0 0-.019-2.582c-.116-1.011.229-1.472 1.2-1.87a7.231 7.231 0 0 0 4.293-8.162 7.378 7.378 0 0 0-7.2-5.94q-6.995-.026-13.989 0a7.36 7.36 0 0 0-4.679 13.018c.338.281.717.516 1.132.812a7 7 0 0 1 3.067-4.465 4.356 4.356 0 0 1 6.157-5.98 4.261 4.261 0 0 1 1.66 2.425 4.35 4.35 0 0 1-.616 3.562 6.956 6.956 0 0 1 3.2 5.4h2.9c0 .536-.014 1.033 0 1.526a2.4 2.4 0 0 0 2.9 2.254Zm-8.78-3.84a3.816 3.816 0 0 0-7.6 0Zm-2.36-7.826a1.451 1.451 0 1 0-1.441 1.42 1.451 1.451 0 0 0 1.441-1.42Z" data-name="Trazado 1424"/>
  <path fill="#0378b3" d="M0 34.313c.114-.531.205-1.068.346-1.591a10.276 10.276 0 0 1 9.933-7.65q6.945-.036 13.891 0a10.273 10.273 0 0 1 .177 20.545c-3.228.031-6.456.013-9.684 0a.617.617 0 0 0-.7.451 5.182 5.182 0 0 1-4.012 3.331 2.636 2.636 0 0 0-.27.089H5.617c0-1.511-.009-3.021.01-4.531a.672.672 0 0 0-.387-.671 10.1 10.1 0 0 1-4.956-6.585c-.115-.445-.191-.9-.284-1.357Zm27.77 7.452c.174-.1.3-.155.42-.234a7.229 7.229 0 0 0 3.357-5.946 7.375 7.375 0 0 0-7.436-7.618c-4.583-.014-9.168 0-13.75 0a7.83 7.83 0 0 0-1.2.088 7.43 7.43 0 0 0-6.219 6.55 7.193 7.193 0 0 0 4.39 7.452 1.579 1.579 0 0 1 1.214 1.912 23.923 23.923 0 0 0-.018 2.582 2.44 2.44 0 0 0 2.9-2.554v-1.285h2.905a6.879 6.879 0 0 1 3.162-5.361c-1.162-2.413-.865-4.4.843-5.832a4.367 4.367 0 0 1 5.3-.189 4.273 4.273 0 0 1 1.649 2.324 4.385 4.385 0 0 1-.577 3.7 6.919 6.919 0 0 1 3.058 4.415Zm-10.472.917h7.618a3.825 3.825 0 0 0-7.614 0Zm3.84-9.252a1.441 1.441 0 1 0 1.019.438 1.445 1.445 0 0 0-1.019-.438Z" data-name="Trazado 1425"/>
</svg>