<svg xmlns="http://www.w3.org/2000/svg" viewBox="0 0 83.425 69.692">
  <g fill="#0278b3" data-name="Capa 1">
    <path d="M83.425 29.323c-.1.218-.2.435-.285.653a4.444 4.444 0 0 1-5.459 2.776 1.012 1.012 0 0 0-1.188.324 60.867 60.867 0 0 1-2.829 2.829 1.152 1.152 0 0 0-.355 1.338 4.5 4.5 0 0 1-8.673 2.393 2.665 2.665 0 0 1-.159-1.2c.183-.857-.268-1.249-.888-1.682a261.558 261.558 0 0 1-5.816-4.186 1.082 1.082 0 0 0-1.155-.131 30.332 30.332 0 0 1-3.116.683 15.1 15.1 0 0 1 1.1 6.582 14.782 14.782 0 0 1-2.1 6.7c1.39 1.395 2.778 2.8 4.188 4.18a.8.8 0 0 0 .59.111 2.315 2.315 0 0 1 2.05.766c.7.725 1.423 1.421 2.124 2.141.653.672.711 1.41.165 1.932s-1.2.468-1.862-.183-1.332-1.353-1.921-1.958l-3.046 3.046c1.149 1.144 2.393 2.393 3.642 3.634 1.362 1.362 2.718 2.735 4.09 4.093a2.152 2.152 0 0 0 3.179.218 2.2 2.2 0 0 0-.172-3.251c-.455-.468-.925-.918-1.379-1.386-.681-.7-.738-1.375-.176-1.923s1.245-.446 1.928.218c.524.513 1.051 1.025 1.554 1.558a4.612 4.612 0 0 1 .026 6.469 4.526 4.526 0 0 1-6.445.044c-2.513-2.441-4.963-4.95-7.441-7.428-.17-.17-.35-.333-.568-.537-.115.187-.218.337-.3.5a11.4 11.4 0 0 1-10.182 6.475c-1.327.061-2.659.022-3.99 0-.92 0-1.434-.446-1.451-1.184-.022-.777.5-1.236 1.464-1.253 1.523-.03 3.046.044 4.556-.072a8.99 8.99 0 0 0 8.127-7.18 1.131 1.131 0 0 0-.172-.87c-1.077-1.147-2.2-2.248-3.335-3.388a14.371 14.371 0 0 1-12.92 1.112 14.092 14.092 0 0 1-7.855-7.424 14.63 14.63 0 0 1 8.4-19.867 4.716 4.716 0 0 0-3.481-1.564c-2.489.139-4.991.028-7.489.048a1.8 1.8 0 0 0-.979.255c-2.245 1.616-4.465 3.267-6.814 4.993.283.046.435.078.6.1a2.555 2.555 0 0 1 2.343 2.58c-.015 1.1-.181 2.2-.27 3.3-.013.152.044.309.046.463v4.256c0 .154-.087.324-.046.463a8.952 8.952 0 0 1 .039 4.486 6.062 6.062 0 0 0 .335 2.065 11.8 11.8 0 0 1 8.716 16.244h2.217c.653 0 1.305-.02 1.958.015a1.21 1.21 0 1 1-.011 2.417c-1.627.03-3.264-.02-4.885.039a1.769 1.769 0 0 0-1.158.511 11.643 11.643 0 0 1-17.535.08 1.627 1.627 0 0 0-1.388-.629c-1.573.041-3.148.026-4.721.011a2.551 2.551 0 0 1-2.791-2.84c.022-1.018.218-2.032.274-3.046.017-.357-.25-.725-.242-1.088.033-1.212.131-2.422.218-3.631 0-.131.083-.276.048-.389a7.726 7.726 0 0 1-.013-4.556c.043-.157-.085-.357-.085-.538q0-2.054.011-4.106c0-.181.107-.376.061-.537a7.87 7.87 0 0 1 0-4.48c.039-.139-.046-.309-.046-.463v-4.253c0-.154.061-.311.048-.463-.092-1.079-.257-2.149-.274-3.222a2.541 2.541 0 0 1 2.668-2.667c2.985-.015 5.973.013 8.958-.022a2.33 2.33 0 0 0 1.249-.411c2.663-1.921 5.3-3.882 7.844-5.755a9.8 9.8 0 0 1-.8-2.474 10.952 10.952 0 0 1 .581-2.7c-1.273-2.489-.775-4.088 2.013-5.55-.344-.653-.688-1.327-1.033-1.989-1.023-1.958-2.056-3.89-3.066-5.842-.87-1.662-.041-3.022 1.823-3.046q1.018-.015 2.037 0a2.2 2.2 0 0 0 1.98-.622 1.97 1.97 0 0 1 1.36-.4c1.953-.037 3.911-.07 5.856.019a5.961 5.961 0 0 1 1.741.7 2.451 2.451 0 0 0 .779.285c.949.035 1.9 0 2.85.017 1.836.026 2.654 1.412 1.8 3.063-1.34 2.579-2.696 5.147-4.04 7.721a.946.946 0 0 0-.035.12c.207.1.42.194.631.3a3.468 3.468 0 0 1 1.512 4.913.925.925 0 0 0 0 1.077 3.556 3.556 0 0 1-.524 4.275c.746.553 1.453 1.088 2.176 1.6a1.02 1.02 0 0 0 .6.17 14.663 14.663 0 0 1 10.988 3.829c.076-.25.148-.435.191-.633a4.5 4.5 0 1 1 8.761 1.981 1.015 1.015 0 0 0 .511 1.305c2.065 1.449 4.1 2.937 6.046 4.338a17.222 17.222 0 0 1 2.476-1.149 4.216 4.216 0 0 1 3.085.374.818.818 0 0 0 .744-.067c1.125-1.057 2.213-2.158 3.166-3.1a16.731 16.731 0 0 1-.57-2.829 4.434 4.434 0 0 1 3.653-4.38 4.523 4.523 0 0 1 5.067 2.911c.085.218.189.435.283.653ZM8.456 57.915a9.228 9.228 0 1 0 9.375-9.153 9.241 9.241 0 0 0-9.375 9.153ZM45.899 32.95a8.178 8.178 0 0 0-11.286-.3 8.268 8.268 0 0 0 10.662 12.619c3.649-2.924 3.764-7.861 2.056-10.333-.794.614-1.569 1.255-2.393 1.828a.929.929 0 0 0-.416 1.149 4.23 4.23 0 0 1-1.438 4.33 4.278 4.278 0 0 1-4.484.851 4.526 4.526 0 1 1 3.7-8.231c.261.137.711.259.9.131.93-.617 1.783-1.326 2.699-2.044Zm3.5.4a10.821 10.821 0 0 1-3.573 14.539 10.719 10.719 0 0 1-13.76-16.136 10.459 10.459 0 0 1 6.49-3.563 10.69 10.69 0 0 1 9.356 3.2l.992-.779a11.887 11.887 0 0 0-16.1-1.4 12.062 12.062 0 1 0 17.572 3.366Zm-32.292 2.788h-2.761c-.96 0-1.5-.463-1.5-1.227s.518-1.2 1.5-1.214h2.728v-2.353H2.519v2.3c.318.015.609.037.9.039h4.72c.905 0 1.412.47 1.406 1.223s-.533 1.205-1.429 1.214c-1.466.017-2.931 0-4.4 0h-1.18v2.293h14.578ZM2.521 43.301h14.578v-2.287H2.521Zm25.4-31.444c1.273.1 1.282.1 1.523-1.029.335-1.623.653-3.246.983-4.869.218-1.131.435-2.263.674-3.431h-5.045ZM2.523 48.189h.914c2.335 0 4.669.026 7-.02a5.049 5.049 0 0 0 1.6-.416c1.07-.372 2.117-.812 3.2-1.162a15.928 15.928 0 0 1 1.6-.279c.111-.022.191-.191.287-.292-.1-.074-.183-.185-.289-.218a2.121 2.121 0 0 0-.485-.013H3.239c-.233 0-.468.033-.716.052Zm26.033-31.716h4.961c.825 0 1.26-.387 1.255-1.051s-.435-1.057-1.264-1.06q-4.919-.02-9.837 0c-.838 0-1.34.455-1.305 1.114s.476.994 1.319 1c1.621.004 3.246-.003 4.871-.003Zm.041 4.569h4.959c.692 0 1.164-.265 1.212-1.012.041-.653-.413-1.088-1.221-1.1q-4.956-.022-9.917 0c-.8 0-1.271.435-1.271 1.073s.463 1.033 1.279 1.038c1.654.008 3.306.001 4.96.001Zm26 9.441a2.06 2.06 0 1 0-2.076-2.065 2.06 2.06 0 0 0 2.081 2.065Zm14.4 5.831a2.061 2.061 0 1 0 2.041 2.08 2.061 2.061 0 0 0-2.034-2.08Zm11.984-7.924a2.034 2.034 0 1 1-.011 0ZM42.227 38.833a2.063 2.063 0 0 0-2.091-2.039 2.028 2.028 0 0 0-2.043 2.076 2.067 2.067 0 0 0 4.134-.037ZM31.783 11.675l.161.057 4.312-8.231c-.829 0-1.506.028-2.176-.011-.5-.028-.731.141-.805.653-.107.722-.281 1.434-.424 2.15ZM20.926 3.538l4.339 8.255.141-.061c-.55-2.724-1.088-5.439-1.65-8.194ZM2.512 53.013c1.475 0 2.879 0 4.284-.013a.622.622 0 0 0 .435-.257c.42-.653.807-1.325 1.229-2.028H2.512Zm52.3-.435-3.821-3.84-1.075.953 3.89 3.886ZM6.905 62.663a761.77 761.77 0 0 0-.716-2.272H2.536v2.272Zm-4.384-4.842h3.446l.244-2.3h-3.7Z" data-name="Trazado 1337"/>
    <path d="M16.402 52.436c.172-1.7.435-2.163 1.234-2.189.829-.03 1.147.479 1.338 2.23.52 0 1.053-.013 1.586 0a1.192 1.192 0 0 1 1.319 1.221 1.207 1.207 0 0 1-1.338 1.216c-1.275.022-2.55.017-3.823 0-.668 0-1.166.239-1.16.944s.531.929 1.184.929h1.871a3.415 3.415 0 0 1 3.588 2.968 3.372 3.372 0 0 1-2.894 3.788l-.313.07c-.315 1.817-.557 2.191-1.388 2.152s-1.064-.479-1.195-2.176c-.487 0-.99.011-1.49 0-.925-.02-1.5-.52-1.484-1.264s.564-1.186 1.46-1.186h3.66c.818 0 1.249-.359 1.21-.981-.046-.746-.561-.916-1.192-.918h-2.032a3.376 3.376 0 0 1-.492-6.725Z" data-name="Trazado 1338"/>
  </g>
</svg>