<svg xmlns="http://www.w3.org/2000/svg" viewBox="0 0 51.69 49.945">
  <g fill="#0378b3" data-name="Capa 1">
    <path d="M51.69 9.129c-.777.808-1.548 1.626-2.333 2.423-.695.709-1.415 1.393-2.1 2.116a1.027 1.027 0 0 0-.269.649 11.637 11.637 0 0 1-2.142 7.017 5.806 5.806 0 0 1-.517.619q-3.719 3.949-7.451 7.89a1.175 1.175 0 0 0-.357.887c0 1.582.046 3.169-.079 4.741a9.55 9.55 0 0 1-3.223 6.372 1.006 1.006 0 0 0-.365.822c.016 1.968.009 3.937.007 5.905 0 1.038-.322 1.356-1.357 1.358h-.657a1.015 1.015 0 0 1-.287-2.007c.063-.022.135-.032.222-.055v-1.92h-8.9c0 .607-.011 1.2.012 1.8 0 .087.159.188.262.249a1.016 1.016 0 0 1-.479 1.938c-1.615.059-1.848-.162-1.848-1.774 0-1.683.011-3.365-.013-5.048a1.077 1.077 0 0 0-.283-.692 11.709 11.709 0 0 1-3.589-7.786c-.1-1.459-.249-2.916-.4-4.371a1.1 1.1 0 0 0-.335-.577q-3.524-3.54-7.068-7.065a10 10 0 0 1-3.1-7.818.942.942 0 0 0-.316-.79Q2.626 11.936.556 9.836A7.524 7.524 0 0 1 0 9.129V8.52c.174-.2.337-.4.524-.6L7.875.575a1.1 1.1 0 0 1 1.847 0C11 1.847 12.279 3.113 13.535 4.399a1.152 1.152 0 0 0 .918.385 11.257 11.257 0 0 1 7.619 2.7c1.171.985 2.35 1.961 3.525 2.941.227.19.458.374.717.586 1.058-1.067 2.058-2.113 3.1-3.118a9.923 9.923 0 0 1 7.614-2.85.969.969 0 0 0 .646-.253c1.44-1.407 2.861-2.841 4.289-4.27.7-.7 1.175-.7 1.885.013q3.622 3.622 7.241 7.25a9.074 9.074 0 0 1 .6.738ZM30.826 43.845V41.9a1.286 1.286 0 0 1 .5-1.1 8.2 8.2 0 0 0 3.193-6.814c-.022-4.811 0-9.622 0-14.433a4.5 4.5 0 0 0-.009-.5.768.768 0 0 0-.762-.732c-.6-.057-.942.284-.942.942v7.721c0 .337.019.673-.008 1.01a1.063 1.063 0 0 1-1.358 1.026 1.019 1.019 0 0 1-.731-1.125v-8.129c0-.808.008-1.615 0-2.423a.775.775 0 0 0-.841-.853c-.579 0-.871.316-.871.981v10.2c0 .151.008.3-.007.454a1.039 1.039 0 0 1-.991.964 1.026 1.026 0 0 1-1.067-.875 3.6 3.6 0 0 1-.028-.6q0-6.082-.008-12.163a1.764 1.764 0 0 0-.156-.872.972.972 0 0 0-.685-.467.975.975 0 0 0-.685.463 1.9 1.9 0 0 0-.179.919q-.016 6.057-.007 12.115c0 .186 0 .372-.012.555a1.012 1.012 0 0 1-1.311.883c-.517-.147-.747-.513-.747-1.211v-9.902a6.156 6.156 0 0 0-.015-.705.768.768 0 0 0-.808-.732c-.606-.02-.891.312-.891 1.058v14.181a3.3 3.3 0 0 1-.043.653.973.973 0 0 1-1.156.792c-.538-.085-.844-.493-.847-1.19-.007-1.75 0-3.5 0-5.25v-1.795c-1.269-.374-2.165.5-2.033 1.885.24 2.544.49 5.088.685 7.636a9.584 9.584 0 0 0 3.41 6.844 1.327 1.327 0 0 1 .5 1.1c-.007.467 0 .934 0 1.428ZM11.711 5.41l-6.4 6.386c.472.446.954.909 1.442 1.37a1.211 1.211 0 0 1 .377 1.093 7.943 7.943 0 0 0 2.37 6.842q2.667 2.684 5.352 5.352c.1.1.211.187.246.217a18.331 18.331 0 0 1 .6-2.045.573.573 0 0 0-.143-.766q-1.211-1.182-2.381-2.4a1 1 0 0 1 .207-1.627 1.022 1.022 0 0 1 1.279.25c.883.879 1.75 1.77 2.634 2.646.109.109.276.249.4.236.528-.05 1.049-.155 1.615-.245v-.538c0-1.6-.015-3.2 0-4.793a2.856 2.856 0 0 1 2.808-2.961 8.824 8.824 0 0 1 1.057.087A3.389 3.389 0 0 1 24.7 12.33c-1.286-1.077-2.528-2.076-3.735-3.12a9.514 9.514 0 0 0-7.215-2.377 1.211 1.211 0 0 1-1.042-.389c-.324-.349-.67-.696-.997-1.034Zm24.832 21.84c.135-.122.192-.163.237-.211L43 20.412a3.1 3.1 0 0 0 .277-.358 9.271 9.271 0 0 0 1.652-6.009 1.679 1.679 0 0 1 .615-1.555c.3-.242.555-.529.746-.716l-6.371-6.375c-.367.382-.8.808-1.2 1.257a1.4 1.4 0 0 1-1.3.477 7.6 7.6 0 0 0-6.1 1.82c-1.259 1.131-2.362 2.432-3.484 3.6l1.193 1.972c1.641-.342 2.528.1 3.624 1.848a2.991 2.991 0 0 1 3.9 3.349 13.444 13.444 0 0 0 0 1.378l.162.082c.564-.6 1.124-1.2 1.692-1.792a1.017 1.017 0 1 1 1.456 1.409c-1 1-2.019 1.981-3.015 2.98a.852.852 0 0 0-.284.493c-.034.961-.02 1.915-.02 2.978ZM3.8 10.172l6.239-6.239L8.8 2.646 2.579 8.869Zm44-.051 1.275-1.269-6.186-6.181-1.28 1.261Z" data-name="Trazado 1422"/>
    <path d="M26.249 49.935a.981.981 0 0 1-1.016-.965 1.014 1.014 0 0 1 1.011-1.038 1.032 1.032 0 0 1 1 1.006 1 1 0 0 1-.995.997Z" data-name="Trazado 1423"/>
  </g>
</svg>