<svg xmlns="http://www.w3.org/2000/svg" data-name="Capa 1" viewBox="0 0 50.888 46.231">
  <path fill="#0278b3" d="M16.458 0a38.25 38.25 0 0 1 3.761 1.1 18.473 18.473 0 0 1 7.809 5.579c4.714 5.934 0 13.236-4.82 14.174a11.255 11.255 0 0 1-5.8-.423 19.831 19.831 0 0 1-8.362-5.239C4.551 10.417 6.299 2.6 12.33.493 12.89.3 13.477.163 14.045 0Zm8.527 16.968a12.189 12.189 0 0 1-5.753-3.559c-1.377-1.433-2.7-2.918-4.1-4.32A8.794 8.794 0 0 0 10.411 6.6a.754.754 0 0 0-1.01.609 5.6 5.6 0 0 0 1.176 5.629 15.72 15.72 0 0 0 9.612 5.479 5.489 5.489 0 0 0 4.796-1.349ZM11.552 3.992c.99.43 1.956.776 2.851 1.254a19.381 19.381 0 0 1 4.857 4.247c.973 1.046 1.95 2.088 2.991 3.061a7.852 7.852 0 0 0 3.711 1.891c.605.138.876-.041 1.059-.623a5.373 5.373 0 0 0-.833-5.078 15.294 15.294 0 0 0-10.353-6.022 5.194 5.194 0 0 0-4.29 1.27Z" data-name="Trazado 1398"/>
  <path fill="#0278b3" d="M38.787 38.491a17.553 17.553 0 0 1-6.181-.978 8.518 8.518 0 0 1-5.934-8.292 8.369 8.369 0 0 1 5.708-8.43 18.075 18.075 0 0 1 12.716-.029 8.392 8.392 0 0 1 5.783 8.644 8.6 8.6 0 0 1-6.355 8.262 18.221 18.221 0 0 1-5.738.824Zm9.061-7.148a2.866 2.866 0 0 0-.381.034 10.5 10.5 0 0 1-5.174-.025c-2.027-.519-4.021-1.178-6.032-1.759a9.688 9.688 0 0 0-6.183 0c-.616.222-.691.537-.568 1.1a5.58 5.58 0 0 0 3.272 3.987 15.22 15.22 0 0 0 7.938 1.051 10.489 10.489 0 0 0 4.875-1.508 5.257 5.257 0 0 0 2.253-2.88Zm-18.129-4.524a2.44 2.44 0 0 0 .389-.039 10.331 10.331 0 0 1 5.3-.115c1.99.489 3.94 1.107 5.91 1.685a10.117 10.117 0 0 0 6.116.253c.67-.215.733-.537.6-1.128a5.6 5.6 0 0 0-3.113-3.883 11.361 11.361 0 0 0-4.309-1.132 15.216 15.216 0 0 0-7.807 1.05 5.537 5.537 0 0 0-3.086 3.309Z" data-name="Trazado 1399"/>
  <path fill="#0278b3" d="M22.535 32.582a9.932 9.932 0 0 1-1.5 5.078 18.739 18.739 0 0 1-8.366 7.75A8.933 8.933 0 0 1 .033 38.041a8.26 8.26 0 0 1 .9-4.542 18.368 18.368 0 0 1 8.964-8.858 8.929 8.929 0 0 1 12.537 6.743c.064.394.067.799.101 1.198ZM6.374 42.995a4.852 4.852 0 0 0 3.888.41 14.586 14.586 0 0 0 9.344-9.265 5.083 5.083 0 0 0-.822-4.77.565.565 0 0 0-.824-.233 8.7 8.7 0 0 0-4.067 3.65 63.636 63.636 0 0 0-1.954 3.582c-1.335 2.609-2.809 5.088-5.565 6.626Zm9.761-15.94a4.88 4.88 0 0 0-3.89-.39 14.66 14.66 0 0 0-9.271 9.089 5.126 5.126 0 0 0 1.075 5.3 7.459 7.459 0 0 0 4.158-3.527c.743-1.247 1.41-2.538 2.074-3.82 1.379-2.678 2.984-5.147 5.853-6.655Z" data-name="Trazado 1400"/>
</svg>