<svg xmlns="http://www.w3.org/2000/svg" viewBox="0 0 63.113 48.899">
  <g fill="#0278b3" data-name="Capa 1">
    <path d="M37.931 32.696v14.956c0 .939-.392 1.24-1.609 1.242h-9.563c-1.168 0-1.577-.313-1.577-1.206V32.699c-1.175 0-2.307-.023-3.437.01a1.617 1.617 0 0 1-1.539-.567c-.309-.479-.053-.88.381-1.269q4.914-4.415 9.79-8.852a1.57 1.57 0 0 1 2.371.016q4.833 4.39 9.692 8.761c.443.4.8.79.487 1.312s-.945.622-1.671.595c-1.078-.038-2.163-.009-3.325-.009Zm-6.374-8.692-7.43 6.727c.747 0 1.277.013 1.8 0 1.364-.042 1.8.277 1.8 1.343v14.829h7.649V32.008c0-.978.477-1.318 1.73-1.278.564.018 1.13 0 1.879 0Z" data-name="Trazado 1375"/>
    <path d="M44.305 9.8c0 5.378-5.772 9.748-12.838 9.751-6.932 0-12.661-4.442-12.659-9.825C18.81 4.436 24.652 0 31.614 0s12.702 4.452 12.691 9.8Zm-12.7-7.846c-5.572 0-10.235 3.543-10.244 7.791s4.577 7.84 10.077 7.849a12.051 12.051 0 0 0 7.293-2.28 7.069 7.069 0 0 0 3.028-5.568c.005-4.222-4.635-7.791-10.156-7.791Z" data-name="Trazado 1376"/>
    <path d="M4.78 36.77c-.813 0-1.526-.013-2.239 0a1.545 1.545 0 0 1-1.458-.572c-.294-.456-.1-.846.319-1.222q3.695-3.323 7.362-6.66a1.548 1.548 0 0 1 2.226 0q3.678 3.331 7.362 6.658c.426.375.624.763.33 1.224a1.513 1.513 0 0 1-1.443.575c-.713-.016-1.426 0-2.247 0v10.809c0 1.048-.355 1.315-1.752 1.315H6.313c-1.1 0-1.52-.326-1.52-1.185v-10.2Zm2.554 10.136h5.108V35.947c0-.857.5-1.209 1.626-1.168q.337-.007.67-.042l-4.859-4.372-4.84 4.38q.211.035.426.051c1.52-.026 1.856.228 1.856 1.406v10.7Z" data-name="Trazado 1377"/>
    <path d="M48.132 36.771c-.824 0-1.56-.008-2.3 0a1.5 1.5 0 0 1-1.43-.611c-.251-.433-.068-.815.332-1.172q3.695-3.319 7.364-6.658a1.555 1.555 0 0 1 2.273.013q3.65 3.313 7.315 6.611c.415.373.638.759.355 1.221a1.6 1.6 0 0 1-1.522.593c-.67-.023-1.377 0-2.19 0v10.915c0 .9-.406 1.209-1.569 1.211h-7.008c-1.23 0-1.624-.3-1.624-1.229Zm9.986-1.993-4.9-4.418-4.85 4.4q.235.028.472.037c1.464-.041 1.83.23 1.83 1.364v10.737h5.108v-10.97c0-.815.524-1.193 1.573-1.152.188.007.371.007.767.007Z" data-name="Trazado 1378"/>
    <path d="M9.833 26.888c-5.346-.01-9.865-3.525-9.832-7.643.031-4.072 4.594-7.524 9.928-7.512s9.865 3.53 9.833 7.648c-.036 4.073-4.6 7.526-9.929 7.507Zm7.377-7.576c0-3.034-3.348-5.616-7.3-5.625s-7.334 2.562-7.353 5.591c-.026 3.055 3.354 5.655 7.338 5.655s7.313-2.581 7.315-5.616Z" data-name="Trazado 1379"/>
    <path d="M63.113 19.333c-.015 4.107-4.586 7.579-9.95 7.558-5.321-.021-9.822-3.517-9.811-7.6s4.578-7.573 9.95-7.556c5.312.019 9.824 3.514 9.811 7.598Zm-2.554-.023c0-3.034-3.354-5.614-7.309-5.62s-7.33 2.562-7.347 5.591c-.019 3.059 3.363 5.66 7.349 5.651 3.955.001 7.31-2.588 7.31-5.62Z" data-name="Trazado 1380"/>
    <path d="M30.234 5.072c.128-1.248.443-1.63 1.3-1.646s1.19.385 1.349 1.664a3.544 3.544 0 0 1 2.843 1.793.941.941 0 0 1-.638 1.441 1.441 1.441 0 0 1-1.749-.7 1.443 1.443 0 0 0-.832-.551 5.315 5.315 0 0 0-1.722-.054 3.109 3.109 0 0 0-.99.561c.287.23.519.567.87.668.864.248 1.792.363 2.675.577a3.875 3.875 0 0 1 2.635 1.63c.851 1.494.017 3.018-2.128 3.64-.724.21-1.141.394-1.064 1.074.068.562-.579.961-1.277.948a1.151 1.151 0 0 1-1.234-.935 8.248 8.248 0 0 1 0-.828c-.249-.077-.487-.148-.721-.225a3.836 3.836 0 0 1-2.616-2.236.937.937 0 0 1 .766-1.247 1.427 1.427 0 0 1 1.615.6 2.846 2.846 0 0 0 3.6 1.025c.349-.132.781-.479.777-.725s-.426-.606-.77-.741a12.967 12.967 0 0 0-1.82-.422c-.56-.125-1.13-.23-1.671-.394-1.532-.471-2.269-1.348-2.2-2.555.06-1.051.93-1.851 2.431-2.236.193-.033.367-.073.571-.126Z" data-name="Trazado 1381"/>
    <path d="M12.01 18.629c1.145.5 1.884 1.128 1.724 2.143a2.874 2.874 0 0 1-2.067 2.166.934.934 0 0 0-.5.5 1.282 1.282 0 0 1-1.313.885 1.214 1.214 0 0 1-1.26-.994.87.87 0 0 0-.46-.535 3.584 3.584 0 0 1-1.96-1.695.9.9 0 0 1 .658-1.326 1.4 1.4 0 0 1 1.683.57 1.686 1.686 0 0 0 1.828.815c.3-.041.547-.308.817-.471a2.806 2.806 0 0 0-.615-.381c-.617-.184-1.258-.326-1.888-.476-1.26-.326-2.145-.916-2.271-1.975s.611-1.755 1.856-2.179a.694.694 0 0 0 .362-.443 1.226 1.226 0 0 1 1.277-.916 1.261 1.261 0 0 1 1.294.9c.066.205.328.383.534.549a8.366 8.366 0 0 1 1.539 1.243c.536.753.115 1.242-1.238 1.62Zm-3.226-.867 2.537.652a1.684 1.684 0 0 0-2.537-.652Z" data-name="Trazado 1382"/>
    <path d="M55.391 18.618a2.487 2.487 0 0 1 1.649 1.63c.247 1.1-.438 2.06-1.881 2.542-.426.145-.658.275-.692.678-.043.528-.526.831-1.23.854a1.422 1.422 0 0 1-.878-.247.832.832 0 0 1-.375-.656c-.023-.344-.192-.489-.579-.616a2.973 2.973 0 0 1-1.915-1.771c-.232-.583.1-1.1.785-1.286a1.4 1.4 0 0 1 1.6.613 1.633 1.633 0 0 0 2.162.668 1.874 1.874 0 0 0 .477-.357c-.158-.117-.287-.29-.475-.344-.939-.277-1.933-.46-2.833-.792-1.641-.608-2.077-2-.988-3.062a8.78 8.78 0 0 1 1.224-.753 1.244 1.244 0 0 0 .507-.5 1.249 1.249 0 0 1 1.283-.908 1.268 1.268 0 0 1 1.292.9c.068.2.328.386.547.541a8.008 8.008 0 0 1 1.3.862c.814.899.478 1.603-.98 2.004Zm-.694-.2c-.7-1.022-1.7-1.255-2.488-.611Z" data-name="Trazado 1383"/>
  </g>
</svg>