<svg xmlns="http://www.w3.org/2000/svg" viewBox="0 0 42.886 44.693">
  <g fill="#0278b3" stroke-linecap="round" stroke-linejoin="round" data-name="Trazado 988">
    <path d="M31.395 44.193c-.217 0-.41-.019-.592-.058l-.01-.002-.01-.002a2.245 2.245 0 0 0-1.067-.014 1.929 1.929 0 0 1-.454.055c-.578 0-1.126-.27-1.584-.78a1.4 1.4 0 0 0-.696-.426l-.007-.002-.006-.002c-1.018-.299-1.51-1.194-1.252-2.28.045-.189.101-.368.155-.542.048-.158.094-.307.131-.456l.003-.014.005-.014a.552.552 0 0 0-.093-.501c-.68-.857-.687-1.797-.604-2.603l.002-.023.004-.021a.854.854 0 0 0-.003-.34 1.492 1.492 0 0 0-.296-.32 3.514 3.514 0 0 1-.375-.32l-.026-.027-.023-.03a1.7 1.7 0 0 0-.13-.159 1.248 1.248 0 0 0-.155.055 4.749 4.749 0 0 1-1.907.356c-.47-.009-.867-.29-1.18-.835a2.153 2.153 0 0 1-.828-.544.762.762 0 0 1-.041-1.122c.074-.091.147-.185.218-.28l-.07-.316c-.05-.225-.109-.496-.151-.633a3.205 3.205 0 0 1-1.151-1.288 6.423 6.423 0 0 0-.703.122 2.44 2.44 0 0 0-.506.2l-.003.001-.003.002c-.162.083-.32.17-.488.264-.21.116-.426.237-.652.347a1.708 1.708 0 0 1-.748.186c-.358 0-.688-.136-.957-.393a.053.053 0 0 0-.024-.006.051.051 0 0 0-.027.007l-.03.018-.032.014c-.372.161-.761.24-1.19.24-.466 0-.914-.094-1.328-.195a10.244 10.244 0 0 0-.56-.113l-.24-.045-.613-.117.249-.573c.049-.113.095-.224.141-.334.105-.252.214-.513.344-.765l.003-.007.004-.006c.143-.259.182-.558.11-.842-.23-.922.35-1.504.773-1.93l.057-.057c.284-.305.553-.626.801-.96a1.41 1.41 0 0 0-.061-.028l-.027-.013-.026-.015a73.086 73.086 0 0 0-.414-.246c-.311-.183-.633-.373-.945-.57a1.135 1.135 0 0 1-.536-.674 1.111 1.111 0 0 1 .09-.845c.251-.505.169-1.04.074-1.66a85.127 85.127 0 0 1-.011-.072 10.16 10.16 0 0 0-1.026-.068.829.829 0 0 0-.587.322l-.005.007-.006.008a2.158 2.158 0 0 1-1.93.777 6.628 6.628 0 0 0-2.352.242 2.745 2.745 0 0 0-.417.17 1.87 1.87 0 0 1-2.31-.342 1.137 1.137 0 0 0-.296-.183 1.35 1.35 0 0 1-.858-.902l-.001-.003-.001-.003a40.26 40.26 0 0 1-.422-1.675c-.055-.244-.094-.49-.133-.726a15.896 15.896 0 0 0-.08-.472 1.616 1.616 0 0 0-.095-.258 3.457 3.457 0 0 1-.198-.456L1 18.055l-.006-.024-.051-.21C.813 17.299.68 16.76.586 16.21a3.8 3.8 0 0 1 .194-2.23l.005-.01.004-.011a.943.943 0 0 0 .057-.625l-.008-.032-.004-.033a4.812 4.812 0 0 1-.034-.614l.004-.4.39-.084a3.16 3.16 0 0 0 .518-.186c.326-.137.695-.292 1.125-.292.108 0 .214.01.32.03.15-.41.375-.729.68-.959a.688.688 0 0 1 .068-.737l.04-.059c.092-.14.273-.413.616-.472l.015-.03-.528-.347.528-.43.277-.229.103-.084-.348.127.172-.871.027-.138c.08-.423.17-.902.58-1.349.455-.498.855-1.032 1.279-1.597.187-.25.38-.508.577-.76.184-.234.381-.456.571-.671.087-.098.174-.197.261-.298l.328-.379.379.33.06.05 1.066-1.23.381-.44.378.442c.11.13.229.26.343.387.386.427.782.864 1.043 1.418.19-.096.381-.145.575-.145.348 0 .682.156.995.463.116.107.235.21.358.311l.059-.047c.228-.183.444-.356.657-.52a1.514 1.514 0 0 1 1.14-.335 1.166 1.166 0 0 1 1.245-.16c.69.25 1.313.626 1.85 1.115l.011.011.011.012a.398.398 0 0 0 .204.111c.546.095 1.039.35 1.425.736a.392.392 0 0 0 .366.098c.127-.04.245-.1.352-.177l.003-.003.004-.003c.407-.286.35-.432.294-.573l-.021-.052-.009-.055a1.132 1.132 0 0 1 0-.349l.103-.66.604.284.292.14c.18.088.35.17.52.242a22.002 22.002 0 0 0 1.41.555.995.995 0 0 1 1.106-.062l.416-.438.486-.512.269.526.121-.129.028-.03c-.13-.194-.172-.391-.126-.584a.709.709 0 0 1 .364-.455l.004-.004.019-.014c.088-.068.144-.116.18-.148a2.231 2.231 0 0 0-.1-.143.915.915 0 0 1-.233-.66.918.918 0 0 1 .291-.62c.26-.307.579-.624 1.075-.624.22 0 .448.057.787.198.098.038.195.079.292.119.443.184.862.358 1.299.372.158.005.323.006.483.007.278.003.566.005.854.026h.011c.78.074 1.33.36 1.677.873.663.09 1.338.178 1.99.262l.844.109h.004l.005.001.47.07 1.511.226-1.352.711c-.38.2-.728.382-1.083.55.225.55.142.967-.049 1.273.122.14.24.273.365.389.508.441.763 1.097.683 1.755l-.001.008-.002.008c-.04.26.077.517.304.672l.02.013.02.016c.332.276.653.567.965.85.254.23.518.47.781.693.176.145.372.264.583.355l.003.002.004.001c.31.14.638.272.954.4.237.096.482.195.724.298.634.223.982.904.784 1.534a3.5 3.5 0 0 1-.391.912c-.345.561-.707 1.109-1.108 1.676l-.013.017-.013.016a.14.14 0 0 0-.015.165c.112.17.182.366.205.567.038.318-.004.643-.121.941l-.017.042-.023.038a4.609 4.609 0 0 1-.849 1.01 1.36 1.36 0 0 1-1.252.337 1.348 1.348 0 0 1-.972-.87l-.003-.01-.003-.01a.231.231 0 0 0-.147-.15c-.124.188-.25.375-.375.56-.192.285-.39.58-.579.869-.067.102-.27.41-.674.41a.912.912 0 0 1-.295-.053 1.008 1.008 0 0 0-.373-.023l-.023.003h-.023c-.012 0-.018.007-.018.007l-.007.02-.008.016a6.732 6.732 0 0 1-.345.651.163.163 0 0 0 .032.214l.015.014.015.016c.17.18.324.364.473.544.07.084.14.17.214.255l.327.382-.384.325-.223.191c-.165.142-.321.277-.49.408a1.565 1.565 0 0 1-1.704.206c-.469-.208-.937-.417-1.405-.627l-.704-.314a6.687 6.687 0 0 1-.157-.074 4.352 4.352 0 0 0-.166-.077.882.882 0 0 0-.265-.083.808.808 0 0 0-.097.225v.003l-.002.002c-.092.285-.238.737-.652 1.029.049.183.088.369.128.563.028.13.056.264.089.407l.163.708-.72-.1c-.239-.034-.471-.064-.697-.093a24.95 24.95 0 0 1-1.523-.229 1.541 1.541 0 0 0-.214-.028c0 .036 0 .085.007.152.037.394.054.777.07 1.182.009.189.017.383.028.58l.028.527h-.667c.103.249.21.497.322.743a.446.446 0 0 0 .155-.015.327.327 0 0 0 .058-.04l.003-.002.003-.003a1.656 1.656 0 0 1 1.047-.392c.651 0 1.19.432 1.372 1.102.232.82.496 1.756.401 2.74v.007c-.02.17-.048.341-.087.508-.083.391-.044.475.316.68a6.837 6.837 0 0 0 2.124.771c.214.039.437.06.673.084.24.024.488.049.734.092.292.05.567.127.86.208.126.035.257.072.391.106l.639.165-.33.57c-.055.095-.107.188-.157.278a6.63 6.63 0 0 1-.377.627 3.18 3.18 0 0 0-.538 1.674v.011a4.284 4.284 0 0 1-1.694 3.18l-.024.018-.025.015c-.022.013-.043.039-.03.068l.007.017.006.016c.05.147.082.289.113.427.024.104.046.203.074.293l.005.014.003.014c.015.06.076.105.149.109h.02l1.267.112c.125.002.25.022.368.061l.035.012.033.016c.781.39 1.639.894 1.925 1.97.163.617-.25.875-.424.955a5.64 5.64 0 0 1-.85.365l-.03.01-.031.007a1.798 1.798 0 0 1-.884-.046c-.375.669-1.095.753-1.454.795-.083.01-.167.02-.251.032-.302.039-.614.08-.93.08ZM30.3 42.218c.105 0 .208.02.305.059l.069.027.057.046c.2.16.418.23.708.23.147 0 .316-.019.516-.058.1-.02.198-.032.293-.044.357-.044.389-.072.413-.152a.56.56 0 0 1 .295-.367l.008-.005.012-.007.752-.396a.662.662 0 0 0-.144-.016h-.047c-.364-.015-.73-.048-1.09-.099a1.702 1.702 0 0 1-1.516-1.102 9.39 9.39 0 0 1-.301-1.048c-.035-.143-.072-.29-.11-.434l-.065-.24-.052-.034.03-.053-.082-.302h.247l.03-.055.371-.68.48-.876.24.527c.304-.346.483-.695.563-1.084.042-.21.074-.42.107-.643.05-.33.1-.67.191-1.01l.004-.014.004-.013c.087-.267.184-.533.289-.796l-.283-.03a8.847 8.847 0 0 1-3.58-1.177c-.838-.502-1.168-1.259-.985-2.252l.002-.01.002-.01c.064-.281.087-.57.07-.859-.067-.49-.159-.982-.273-1.466-.304.2-.652.3-1.037.3-.342 0-.677-.078-.93-.147l-.012-.003-.013-.005a.77.77 0 0 1-.44-.367l-.01-.02-.008-.02c-.075-.174-.154-.352-.23-.524-.164-.37-.334-.753-.48-1.144-.14-.329-.13-.7.03-1.021a1.26 1.26 0 0 1 .627-.592l-.014-.181a7.639 7.639 0 0 0-.053-.556c-.091-.467.038-.941.355-1.303a1.619 1.619 0 0 1 1.256-.549h.015l.016.002c.23.02.461.055.687.106l.388.059a1.23 1.23 0 0 1 .51-.916.783.783 0 0 0 .312-.455l.006-.022.007-.022c.263-.778.85-1.224 1.611-1.224.144 0 .293.016.445.048l.013.003.014.004c.235.063.464.15.682.256.307.137.618.277.918.413.288.13.584.264.878.395a1.748 1.748 0 0 1 .045-1.648c.046-.09.094-.177.14-.26.063-.112.123-.219.17-.323a1.517 1.517 0 0 1 1.507-.954.992.992 0 0 0 .067.003c.181 0 .262-.03.46-.364.18-.316.39-.616.594-.907.077-.11.155-.22.23-.33.046-.069.093-.13.135-.185l.036-.047.255-.34.376.197c.174.09.357.167.546.225.492.09.91.379 1.16.785a.82.82 0 0 1 .21-.197l.003-.002.002-.001a.433.433 0 0 0 .054-.04.864.864 0 0 0-.07-.168 1.542 1.542 0 0 1 .097-1.657c.41-.598.812-1.221 1.158-1.76.034-.058.065-.117.094-.178l-.02-.008a28.147 28.147 0 0 1-1.57-.647 3.01 3.01 0 0 1-.756-.467l-.002-.002-.003-.003c-.441-.384-.88-.78-1.306-1.164-.31-.28-.63-.568-.947-.849a1.46 1.46 0 0 1-.506-1.252l.001-.01.001-.01c.022-.154.023-.31.003-.463a1.106 1.106 0 0 0-.193-.41c-.338-.431-.696-.846-1.075-1.284l-.242-.28-.52-.604.77-.205.167-.046.11-.03a1.449 1.449 0 0 1-.124-.58 7.592 7.592 0 0 0-.548-.06c-.41-.03-1.159-.082-1.537-.828l-.015-.005a2.799 2.799 0 0 0-.822-.136 5.927 5.927 0 0 1-2.491-.38c.047.443-.104.9-.435 1.231a.055.055 0 0 0-.005.016c.025.405-.105.8-.37 1.115l-.192.23c-.143.17-.29.346-.44.519a1.095 1.095 0 0 1-1.22.371c-.122.08-.417.254-.684.254a.59.59 0 0 1-.313-.087l-.003-.001-.002-.002a.476.476 0 0 0-.281-.069c-.077 0-.162.008-.253.016-.109.01-.221.02-.344.02l-.037-.001h-.024l-.024-.003a3.062 3.062 0 0 1-.937-.262c-.23-.087-.443-.167-.52-.17-.066.03-.244.2-.415.362l-.008.008a2.575 2.575 0 0 1-.832.57l-.006.002-.005.003a2.106 2.106 0 0 1-2.089-.299l-.018-.013-.016-.016a1.676 1.676 0 0 0-.522-.335 2.831 2.831 0 0 1-1.322-.684l-.004-.004-.005-.005a2.662 2.662 0 0 0-1.008-.61.15.15 0 0 0-.046.01l-.024.01-.026.007c-.029.008-.08.03-.127.051-.133.058-.298.13-.494.13a.748.748 0 0 1-.155-.016.254.254 0 0 0-.24.07l-.018.02-.02.018c-.22.186-.425.378-.627.588-.241.252-.505.38-.784.38a.896.896 0 0 1-.381-.086 4.762 4.762 0 0 1-1.046-.635l-.008-.007-.008-.007-.068-.059-.045.04c-.24.21-.507.32-.771.32-.379 0-.715-.223-.922-.612a3.611 3.611 0 0 1-.184-.413 2.436 2.436 0 0 0-.151-.338 4.918 4.918 0 0 0-.239-.36L9.34 4.796l-.33.383-.38-.336-.038-.033L7.325 6.4l.079.023 1.031.29-.886.604-.498.34a5.59 5.59 0 0 0-.038.026l.015.027.002.004.002.004c.03.06.058.117.084.173l.02.045a.738.738 0 0 1-.257 1.005 4.39 4.39 0 0 0-.194.15l.389.357.77.704-1.032.159-.309.05c-.15.024-.296.048-.441.068-.013.079-.033.157-.059.234l-.007.022-.01.022a3.894 3.894 0 0 1-.082.172l.131.2.43.655-.776.113-.445.065c-.469.083-.535.262-.565.487-.028.31-.038.626-.03.937v2.122l-.857-.872a5.99 5.99 0 0 1-.824-1.05l-.002-.004-.002-.004a1.6 1.6 0 0 0-.136-.204 1.455 1.455 0 0 0-.239.07l-.035.014c.086.3.06.617-.075.902l-.018.037-.024.034c-.175.25-.26.54-.245.84l.002.024-.001.023c-.04.875.229 1.697.583 2.681.057.15.102.306.134.462l.001.008.002.008c.028.164.051.328.074.486.036.252.07.49.121.724.102.47.23.94.363 1.42.327.112.62.314.836.578.033.032.094.086.127.086a.511.511 0 0 0 .193-.063c.25-.123.513-.226.782-.305a7.956 7.956 0 0 1 2.787-.29l.01.002h.01a.756.756 0 0 0 .673-.263l.003-.003.004-.005a2.577 2.577 0 0 1 1.944-.874c.157 0 .314.014.468.042.194.03.392.05.588.06h.05c.724 0 1.335.547 1.4 1.25l.025.145c.03.187.062.38.077.58l.002.035c.036.522.077 1.106-.143 1.683l.194.12c.25.154.488.3.73.413l.004.002.005.002c.412.2.976.536 1.113 1.135.1.443-.053.914-.47 1.438l-.001.002-.002.002c-.265.326-.555.63-.835.923l-.282.297-.032.034c-.181.195-.194.228-.183.267.164.566.12 1.16-.12 1.692.136.025.264.04.39.04.163 0 .313-.025.459-.076.25-.088.58-.19.924-.19.368 0 .698.113.984.336.146-.074.29-.154.442-.237.196-.109.4-.22.612-.323l.003-.001.003-.002a5.92 5.92 0 0 1 .94-.344c.186-.05.367-.077.542-.103a5.25 5.25 0 0 0 .335-.057c.13-.028.259-.042.382-.042.556 0 .989.284 1.158.76.153.394.444.73.82.948l.014.008.012.008c.675.447.873 1.33.45 2.01a10.9 10.9 0 0 1-.246.377c.07.277.161.603.276.89.163.028.327.042.464.051a2.955 2.955 0 0 0 1.254-.238l.009-.003.009-.004c.328-.127.598-.187.85-.187.646 0 1.067.409 1.362.765l.01.012c1.268.661 1.113 1.902 1.061 2.314v.006c-.087.628.008 1.072.307 1.438.319.368.465.853.4 1.33v.006l-.001.005c-.074.473-.187.929-.306 1.393-.075.294-.035.367-.034.37.002.003.045.072.326.151.411.084.788.299 1.063.608l.008.009.007.01c.308.381.477.433.6.433.143 0 .34-.067.603-.203a.82.82 0 0 1 .38-.093Z"/>
    <path d="M31.395 43.693c.368 0 .753-.064 1.123-.108.463-.054.922-.147 1.133-.66.062-.15.254-.205.49-.128.216.075.45.09.675.046.273-.092.537-.207.79-.342.188-.077.205-.207.16-.376-.228-.857-.92-1.28-1.665-1.652a.73.73 0 0 0-.236-.036l-1.289-.113a.655.655 0 0 1-.609-.487c-.073-.233-.106-.48-.183-.707a.553.553 0 0 1 .235-.693 3.784 3.784 0 0 0 1.498-2.808 3.68 3.68 0 0 1 .626-1.944c.186-.262.33-.554.513-.872-.44-.113-.821-.237-1.214-.305-.459-.082-.94-.093-1.411-.177a7.357 7.357 0 0 1-2.28-.829c-.557-.317-.687-.616-.557-1.223.035-.15.06-.3.077-.453.085-.881-.15-1.728-.385-2.562-.21-.77-1.002-.955-1.621-.453a.828.828 0 0 1-.162.107c-.257.122-.692.07-.772-.104-.19-.414-.368-.832-.534-1.253-.07-.195 0-.321.235-.321h.515c-.033-.61-.042-1.176-.096-1.742-.059-.62.158-.786.8-.662.694.134 1.402.207 2.194.318-.091-.4-.145-.723-.235-1.038-.042-.152-.08-.294.087-.378.36-.17.485-.507.595-.85.182-.584.461-.704 1.038-.452.11.047.218.104.33.154.705.314 1.41.632 2.116.944.384.193.853.137 1.176-.14.236-.184.454-.38.706-.594-.23-.27-.435-.532-.67-.781a.661.661 0 0 1-.127-.845c.117-.195.224-.396.32-.602a.516.516 0 0 1 .47-.333 1.51 1.51 0 0 1 .58.04c.208.075.3.01.406-.151.334-.512.682-1.017 1.02-1.53a.27.27 0 0 1 .31-.14c.316.022.583.23.669.524a.84.84 0 0 0 .61.543.874.874 0 0 0 .801-.217 4.11 4.11 0 0 0 .763-.906c.088-.223.118-.463.089-.7a.79.79 0 0 0-.13-.356.64.64 0 0 1 .055-.756c.383-.542.745-1.087 1.089-1.647.15-.247.265-.514.338-.793a.737.737 0 0 0-.484-.926c-.565-.242-1.143-.457-1.703-.709a2.956 2.956 0 0 1-.706-.43c-.59-.503-1.148-1.047-1.745-1.543a1.186 1.186 0 0 1-.518-1.161c.061-.497-.133-.99-.52-1.323-.247-.229-.458-.496-.694-.766.454-.362.4-.772.203-1.184-.12-.252-.033-.38.202-.492.37-.172.727-.358 1.157-.584l-.47-.07c-.955-.125-1.913-.245-2.868-.376a.37.37 0 0 1-.26-.125c-.3-.514-.81-.688-1.365-.74-.435-.032-.877-.019-1.317-.032-.635-.02-1.193-.301-1.762-.528-.663-.274-.875-.215-1.315.313a.412.412 0 0 0-.033.61c.372.495.334.626-.16 1.007a.347.347 0 0 1-.068.05c-.172.09-.177.201-.07.35a.44.44 0 0 1-.095.637c-.195.204-.383.42-.597.657l-.278-.544-.73.768a1.085 1.085 0 0 1-.157-.113.498.498 0 0 0-.734-.068.533.533 0 0 1-.411.048 22.67 22.67 0 0 1-1.456-.573c-.273-.116-.537-.252-.83-.39a.633.633 0 0 0 0 .195c.209.527-.062.879-.471 1.166-.155.113-.328.2-.513.256a.898.898 0 0 1-.854-.226 2.155 2.155 0 0 0-1.164-.598.9.9 0 0 1-.47-.256 5.053 5.053 0 0 0-1.708-1.024.663.663 0 0 0-.772.122.317.317 0 0 1-.235.09 1.018 1.018 0 0 0-.87.212c-.32.246-.647.514-1.026.815a8.998 8.998 0 0 1-.706-.587c-.402-.398-.795-.437-1.233-.079-.063.052-.127.097-.249.19-.202-.96-.908-1.565-1.51-2.271l-1.395 1.61-.437-.38c-.28.323-.563.627-.817.948-.625.802-1.197 1.64-1.882 2.388-.35.382-.395.792-.484 1.245l.47-.172c.028.14.073.277.132.408.108.181.04.292-.113.408-.277.212-.543.439-.868.704l.417.274c-.1.098-.191.203-.273.315a2.44 2.44 0 0 0-.153.365c-.334-.148-.435.095-.57.285-.192.274.212.385.189.648-.63.247-.89.781-1.002 1.415-.857-.489-1.494.127-2.2.281-.001.184.009.368.03.55.083.32.052.657-.086.959a3.31 3.31 0 0 0-.167 1.947c.103.605.254 1.192.402 1.796.048.137.106.27.174.4.056.118.101.242.134.368.078.399.125.804.214 1.2.125.556.268 1.106.417 1.654.075.267.283.48.555.57.173.072.332.172.47.295a1.37 1.37 0 0 0 1.717.26c.164-.084.336-.154.513-.21a7.089 7.089 0 0 1 2.545-.26 1.677 1.677 0 0 0 1.494-.596c.228-.302.582-.493.97-.521.447.006.894.04 1.338.102.065.007.169.12.169.192.106.75.287 1.5-.085 2.238a.626.626 0 0 0 .26.856c.444.283.905.546 1.359.818.136.06.264.137.38.227.071.065.114.237.071.292-.314.446-.66.871-1.035 1.273-.43.434-.875.838-.705 1.517.103.407.047.837-.158 1.207-.174.338-.308.696-.47 1.07.296.056.562.099.823.162.736.18 1.463.302 2.202-.018a.553.553 0 0 1 .637.046c.35.35.774.326 1.16.138.386-.188.75-.412 1.131-.607.196-.104.404-.185.619-.243.3-.07.605-.12.913-.15.091-.008.26.05.282.116.22.555.627 1.022 1.155 1.328.114.08.217.709.384 1.418.126-.176.247-.356.361-.54a.972.972 0 0 0-.3-1.33 2.39 2.39 0 0 1-1.04-1.206c-.13-.374-.52-.499-.965-.403-.282.06-.576.079-.851.154-.296.08-.584.186-.861.314-.386.186-.75.413-1.134.6-.099.037-.278.055-.334 0-.475-.461-1.019-.35-1.546-.165-.592.209-1.136.068-1.726-.095.07-.156.127-.287.19-.414.248-.455.306-.983.163-1.477-.101-.344.12-.557.33-.784.368-.394.754-.777 1.093-1.193.706-.888.397-1.391-.47-1.812-.408-.188-.784-.453-1.177-.68a.194.194 0 0 1-.12-.121.184.184 0 0 1 .026-.166c.285-.544.238-1.126.198-1.704-.017-.233-.064-.473-.099-.7-.036-.475-.461-.834-.955-.808a6.054 6.054 0 0 1-.67-.068 2.093 2.093 0 0 0-1.953.668 1.265 1.265 0 0 1-1.113.44 7.46 7.46 0 0 0-2.608.27c-.243.071-.48.164-.706.275-.376.18-.623.154-.91-.138a1.366 1.366 0 0 0-.734-.473.323.323 0 0 1-.184-.206 27.662 27.662 0 0 1-.397-1.547c-.09-.408-.13-.822-.2-1.232a2.537 2.537 0 0 0-.113-.39c-.336-.933-.659-1.87-.614-2.876a1.85 1.85 0 0 1 .334-1.15c.09-.191.1-.408.028-.606-.108-.362-.122-.382.236-.518l.129-.048c.548-.197.691-.127.974.349.214.347.467.67.755.962v-.887c-.008-.335.003-.67.033-1.004.07-.541.386-.822.983-.926l.452-.066-.297-.453c.079-.127.149-.26.21-.396a.982.982 0 0 0 .051-.322c-.011-.174.08-.21.236-.226.284-.03.567-.084.92-.138l-.812-.743c.24-.195.447-.385.682-.553a.246.246 0 0 0 .123-.155.237.237 0 0 0-.034-.191c-.037-.08-.07-.154-.108-.227-.212-.392-.2-.442.181-.704l.499-.34-.802-.227 2.063-2.593.433.383 1.369-1.586c.23.32.456.6.637.906.144.243.212.524.346.77.216.406.574.456.922.152.4-.35.376-.326.772.018.286.23.602.421.94.571.224.107.429-.009.598-.186a8.93 8.93 0 0 1 .663-.623.759.759 0 0 1 .706-.215c.16.034.358-.108.541-.158a.653.653 0 0 1 .322-.039c.476.148.909.404 1.261.745.313.289.703.487 1.127.571.27.103.515.257.722.453a1.61 1.61 0 0 0 1.593.227c.256-.11.486-.27.677-.467.654-.62.647-.623 1.489-.306.252.118.522.195.8.227.21.003.418-.035.625-.035.184 0 .368.03.551.148.087.054.386-.104.492-.183.105-.08.188-.125.34-.057a.6.6 0 0 0 .73-.188c.216-.25.426-.503.64-.756.184-.22.274-.5.251-.782a.557.557 0 0 1 .125-.355 1 1 0 0 0 .17-1.276 1.21 1.21 0 0 1-.052-.337c.125-.017.253-.01.376.02.86.437 1.83.634 2.8.569.336.003.67.057.99.16.118.03.22.103.282.204.223.499.663.571 1.148.605.379.025.753.093 1.188.15-.276.33-.172.613-.04.906.171.398.148.439-.299.548-.09.02-.179.047-.358.095.466.541.915 1.05 1.334 1.585.141.187.24.4.29.625.029.207.029.417 0 .623a.958.958 0 0 0 .336.825c.755.668 1.494 1.352 2.253 2.013.19.161.404.293.636.392.56.258 1.154.485 1.736.711.195.08.28.204.195.401a2.934 2.934 0 0 1-.212.44 67.294 67.294 0 0 1-1.176 1.787c-.245.334-.27.774-.064 1.132.172.338.23.623-.16.868-.112.072-.164.237-.254.353-.202.258-.423.238-.536-.064a1.214 1.214 0 0 0-.967-.81c-.229-.07-.45-.16-.66-.27-.05.066-.107.136-.156.21-.273.402-.572.796-.807 1.21-.226.383-.45.646-.988.61a1.015 1.015 0 0 0-1.016.645c-.096.217-.226.419-.332.63-.29.499-.203 1.123.214 1.53.09.1.21.282.172.363a.446.446 0 0 1-.278.216.464.464 0 0 1-.355-.048c-.75-.326-1.496-.673-2.246-1.006a3.248 3.248 0 0 0-.6-.226c-.71-.15-1.244.151-1.48.847a1.28 1.28 0 0 1-.505.743.72.72 0 0 0-.27.806c.016.075.037.154.072.301l-1.087-.163a4.403 4.403 0 0 0-.635-.1 1.122 1.122 0 0 0-.869.378 1.034 1.034 0 0 0-.239.888c.047.313.057.632.087.947a.242.242 0 0 1-.037.19.26.26 0 0 1-.167.107.765.765 0 0 0-.487.394.718.718 0 0 0-.014.612c.209.561.47 1.107.705 1.657.033.061.089.107.156.13.625.17 1.237.249 1.766-.252a.302.302 0 0 1 .285 0c.113.078.196.19.235.32.137.553.244 1.113.32 1.678.022.341-.004.685-.08 1.019-.141.763.07 1.325.748 1.73a8.293 8.293 0 0 0 3.38 1.11c.327.039.659.068.958.098-.209.45-.39.911-.544 1.381-.14.53-.18 1.085-.291 1.624-.153.752-.607 1.325-1.217 1.833l-.117-.259-.372.68.494.315h-.557c.131.491.228.985.397 1.438.166.45.599.757 1.094.777.352.05.707.083 1.063.097.293-.007.577.097.79.29.203.174.412.342.603.528.143.138.087.235-.092.326-.346.174-.572.018-.79-.242l-.859.453c-.023.013-.061.031-.061.052-.155.555-.678.487-1.096.57-.577.114-1.139.123-1.633-.271a.321.321 0 0 0-.268.013c-.814.424-1.254.347-1.823-.36a1.436 1.436 0 0 0-.804-.453c-.661-.181-.83-.469-.661-1.132.113-.44.225-.893.296-1.346a1.19 1.19 0 0 0-.287-.942c-.452-.548-.51-1.178-.421-1.828.099-.79-.045-1.44-.842-1.832a.462.462 0 0 1-.118-.113c-.5-.605-.894-.723-1.646-.43-.464.2-.97.295-1.478.278a3.895 3.895 0 0 1-.794-.12c.21.433.481.74.841.747a4.279 4.279 0 0 0 1.708-.319c.454-.186.588-.116.875.267.103.101.213.195.33.281.18.144.334.318.454.512.06.208.071.426.03.639-.082.801-.04 1.565.501 2.244.212.274.277.628.177.956-.083.335-.205.66-.285.994-.195.822.134 1.459.906 1.685.366.097.694.297.94.576.4.446.93.724 1.55.573.431-.1.88-.095 1.309.016.157.033.32.046.486.046m-9.822-9.217c-.2-.411-.346-.936-.46-1.422-.125.173-.255.343-.39.51a.265.265 0 0 0 .017.414c.24.263.524.411.833.498m9.822 10.217a3.28 3.28 0 0 1-.737-.078 1.756 1.756 0 0 0-.826-.011c-.19.045-.38.068-.57.068-.724 0-1.4-.327-1.956-.947a.9.9 0 0 0-.478-.283c-1.275-.374-1.917-1.53-1.597-2.876.049-.205.107-.392.163-.574a7.773 7.773 0 0 0 .138-.482c.006-.016.002-.033-.01-.05-.792-1.001-.793-2.107-.706-2.96a1 1 0 0 1 .013-.088.351.351 0 0 0 .006-.051 1.007 1.007 0 0 0-.12-.118 4.016 4.016 0 0 1-.4-.34 5.25 5.25 0 0 1-1.92.32c-.434-.008-1.024-.187-1.511-.935a2.656 2.656 0 0 1-.833-.583 1.259 1.259 0 0 1-.069-1.816l.053-.066-.02-.09a21.38 21.38 0 0 0-.097-.432 3.72 3.72 0 0 1-.986-1.051c-.104.018-.208.039-.31.062a1.938 1.938 0 0 0-.408.163c-.154.079-.308.165-.472.256-.215.12-.438.244-.676.36a2.203 2.203 0 0 1-.967.236A1.83 1.83 0 0 1 15.045 32c-.38.14-.776.207-1.206.207-.518 0-1.002-.1-1.446-.208a9.741 9.741 0 0 0-.532-.107l-.243-.045a1 1 0 0 1-.73-1.381c.048-.11.094-.22.139-.327.109-.262.221-.532.36-.802a.649.649 0 0 0 .077-.502c-.298-1.199.454-1.955.903-2.406l.052-.052c.14-.151.277-.307.41-.466l-.031-.018a34.006 34.006 0 0 1-.949-.573 1.63 1.63 0 0 1-.758-.963 1.607 1.607 0 0 1 .125-1.212c.138-.282.13-.6.07-1.044a9.638 9.638 0 0 0-.562-.027.33.33 0 0 0-.213.122 2.656 2.656 0 0 1-2.387.99 6.126 6.126 0 0 0-2.16.221c-.112.036-.22.08-.325.132a2.371 2.371 0 0 1-2.891-.418.64.64 0 0 0-.136-.082 1.85 1.85 0 0 1-1.16-1.243 40.714 40.714 0 0 1-.426-1.695c-.059-.26-.1-.512-.14-.756-.024-.153-.047-.297-.074-.438a1.116 1.116 0 0 0-.056-.152 3.96 3.96 0 0 1-.22-.51c-.011-.03-.02-.062-.028-.094l-.052-.21a23.673 23.673 0 0 1-.361-1.634 4.298 4.298 0 0 1 .24-2.555.435.435 0 0 0 .027-.292 1.001 1.001 0 0 1-.024-.13 5.316 5.316 0 0 1-.038-.678 1 1 0 0 1 .787-.968c.115-.025.269-.09.43-.158.354-.148.795-.333 1.328-.331.117-.225.26-.423.425-.594-.05-.397.12-.709.226-.86l.031-.047c.066-.098.186-.28.382-.435a1 1 0 0 1 .35-.956l.128-.104a1 1 0 0 1-.097-.662l.025-.134c.088-.464.197-1.041.703-1.594.439-.479.832-1.003 1.247-1.559.189-.251.384-.511.584-.768l.004-.004c.19-.242.392-.47.587-.69l.257-.293a1 1 0 0 1 1.033-.308l.8-.923a1 1 0 0 1 1.517.006c.106.124.217.246.334.376.308.34.638.705.908 1.143a1.68 1.68 0 0 1 .339-.035c.48 0 .931.202 1.34.6l.025.024c.133-.106.262-.209.392-.309.365-.298.828-.46 1.303-.453a1.671 1.671 0 0 1 1.584-.113 6.017 6.017 0 0 1 2.016 1.228 3.134 3.134 0 0 1 1.591.81.703.703 0 0 0 .142-.084 1.35 1.35 0 0 0 .086-.065 1 1 0 0 1-.029-.13 1.63 1.63 0 0 1 0-.502 1 1 0 0 1 1.414-.751l.296.142c.175.085.34.165.498.232.44.188.815.339 1.16.465a1.506 1.506 0 0 1 1.03-.101l.184-.193a1 1 0 0 1 .626-.307 1.159 1.159 0 0 1 .404-.807 1.411 1.411 0 0 1 .27-1.657C27.2.498 27.66 0 28.4 0c.359 0 .694.118.976.234l.295.121c.418.173.778.323 1.124.334.152.005.307.006.47.007a13.52 13.52 0 0 1 .908.029c.833.078 1.472.381 1.905.902.594.08 1.196.159 1.78.234a583.182 583.182 0 0 1 .863.112l.47.07a1 1 0 0 1 .318 1.874c-.249.13-.483.253-.716.37a1.75 1.75 0 0 1-.058.92c.037.037.073.074.11.107a2.502 2.502 0 0 1 .839 2.219c-.011.068.023.136.09.182a1 1 0 0 1 .077.058c.341.283.667.578.982.864.263.238.51.462.766.68a1.955 1.955 0 0 0 .474.286c.303.136.611.26.938.392.235.095.477.194.719.297a1.743 1.743 0 0 1 1.082 2.139 4 4 0 0 1-.445 1.033c-.323.526-.661 1.04-1.031 1.567.082.176.135.364.156.556.048.399-.004.807-.152 1.182a1 1 0 0 1-.08.159c-.256.413-.57.788-.935 1.115a1.858 1.858 0 0 1-1.703.456 1.845 1.845 0 0 1-1.016-.624c-.177.263-.359.534-.532.8-.347.526-.786.637-1.093.635-.138 0-.274-.021-.416-.066-.04.077-.08.153-.122.228.13.145.249.288.365.428.069.083.138.166.21.25a1 1 0 0 1-.114 1.414l-.22.188c-.16.138-.325.28-.5.418a2.066 2.066 0 0 1-2.232.27c-.466-.206-.932-.415-1.398-.623l-.702-.314a5.408 5.408 0 0 1-.098-.045 2.28 2.28 0 0 1-.48.792l.06.282c.026.127.054.259.086.397a1 1 0 0 1-1.113 1.215 66.999 66.999 0 0 0-.692-.092 35.05 35.05 0 0 1-1.13-.159c.014.243.024.483.034.72l.027.573a1 1 0 0 1-.066.413c.17-.045.343-.068.516-.068.882 0 1.609.575 1.853 1.466.245.867.521 1.848.418 2.925l-.002.012c-.02.188-.052.377-.095.562a1.48 1.48 0 0 0-.015.082c.023.015.052.033.09.055a6.337 6.337 0 0 0 1.964.714c.198.035.41.056.636.079.249.024.506.05.772.097.313.054.614.138.905.218.124.035.253.07.383.104a1 1 0 0 1 .616 1.47c-.053.092-.103.182-.151.27-.121.218-.246.443-.402.666a2.68 2.68 0 0 0-.452 1.43 4.774 4.774 0 0 1-1.705 3.403l.047.2.014.062 1.042.092c.17.004.337.032.498.085.046.015.091.034.135.055.635.317 1.817.905 2.185 2.289.176.667-.095 1.261-.69 1.534-.29.153-.595.284-.907.39a1 1 0 0 1-.123.032c-.25.05-.511.058-.763.023-.514.603-1.257.69-1.615.733l-.245.03c-.302.04-.646.084-.994.084ZM30.3 41.718c.17 0 .334.032.491.094a1 1 0 0 1 .252.147c.079.063.182.121.396.121.115 0 .252-.016.42-.049.116-.023.229-.037.328-.049l.075-.01a.998.998 0 0 1 .027-.048 2.196 2.196 0 0 1-1.827-1.417 9.77 9.77 0 0 1-.318-1.101c-.036-.147-.07-.286-.107-.424a1 1 0 0 1 .03-.612.996.996 0 0 1 .122-.442l.371-.68a1 1 0 0 1 .85-.52 1.77 1.77 0 0 0 .382-.773c.04-.196.07-.4.103-.617.051-.343.104-.698.202-1.065a13.474 13.474 0 0 1 .09-.271 9.348 9.348 0 0 1-3.428-1.2c-.714-.428-1.502-1.254-1.221-2.773a2.563 2.563 0 0 0 .067-.74 14.888 14.888 0 0 0-.134-.805c-.214.061-.44.092-.678.092a4.075 4.075 0 0 1-1.112-.18 1.267 1.267 0 0 1-.761-.687c-.073-.17-.148-.339-.227-.517-.166-.374-.337-.76-.488-1.162a1.715 1.715 0 0 1 .048-1.43 1.75 1.75 0 0 1 .552-.644 5.79 5.79 0 0 0-.039-.378 2.021 2.021 0 0 1 .473-1.716 2.118 2.118 0 0 1 1.704-.715c.22.018.441.05.658.095a1.737 1.737 0 0 1 .599-.758.281.281 0 0 0 .113-.161 1 1 0 0 1 .025-.088c.332-.98 1.111-1.564 2.085-1.564a2.669 2.669 0 0 1 .601.072c.264.07.52.167.765.286.302.134.606.272.9.405a2.24 2.24 0 0 1 .289-1.029 8.07 8.07 0 0 1 .144-.266c.055-.099.107-.192.145-.275a2.02 2.02 0 0 1 1.991-1.258c.017-.025.04-.061.071-.113.191-.336.408-.644.618-.943l.224-.322c.054-.082.109-.153.153-.21l.033-.044a1 1 0 0 1 1.262-.285c.14.073.287.134.438.183.19.038.372.099.541.18a2.044 2.044 0 0 1 .382-1.262c.322-.469.64-.954.927-1.401-.354-.141-.711-.288-1.06-.449a3.51 3.51 0 0 1-.884-.55 99.473 99.473 0 0 1-1.313-1.17c-.308-.279-.627-.566-.941-.845a1.96 1.96 0 0 1-.67-1.718c.015-.1.016-.2.006-.3a.612.612 0 0 0-.098-.2c-.33-.42-.683-.828-1.057-1.26-.08-.093-.16-.187-.242-.28a1 1 0 0 1 .056-1.365c-.45-.04-1.217-.166-1.69-.89a2.302 2.302 0 0 0-.496-.066 6.434 6.434 0 0 1-2.058-.21 2.01 2.01 0 0 1-.381.755A2.072 2.072 0 0 1 28.59 5.1l-.193.23c-.141.168-.287.342-.436.514a1.597 1.597 0 0 1-1.527.589c-.198.106-.478.22-.763.22a1.09 1.09 0 0 1-.571-.158.46.46 0 0 0-.03 0c-.054 0-.129.006-.208.013a4.087 4.087 0 0 1-.433.02c-.032 0-.065-.002-.097-.006a3.561 3.561 0 0 1-1.072-.297l-.215-.08-.184.174-.001.001a3.073 3.073 0 0 1-1.008.683 2.607 2.607 0 0 1-2.585-.37.997.997 0 0 1-.067-.058 1.175 1.175 0 0 0-.332-.221 3.33 3.33 0 0 1-1.526-.812 2.149 2.149 0 0 0-.67-.438l-.012.005c-.157.069-.394.172-.695.172-.045 0-.09-.002-.134-.007a7.898 7.898 0 0 0-.566.534c-.422.44-.855.533-1.144.533-.202 0-.4-.044-.588-.13a5.274 5.274 0 0 1-.932-.535c-.256.152-.53.23-.807.23-.568 0-1.065-.318-1.362-.873-.09-.168-.153-.328-.209-.468a42.285 42.285 0 0 0-.007-.02l-.498.577a1 1 0 0 1-.99.32l-.674.847A.999.999 0 0 1 7.83 7.73l-.18.123a1.238 1.238 0 0 1-.208 1.256 1 1 0 0 1-.554 1.696c-.108.016-.208.033-.304.049l-.093.015a1 1 0 0 1-.731 1.473l-.436.063a.833.833 0 0 0-.147.039l-.002.014a7.94 7.94 0 0 0-.027.89v.887a1 1 0 0 1-1.714.701 6.518 6.518 0 0 1-.458-.519c-.014.036-.03.072-.047.108a1 1 0 0 1-.083.143.846.846 0 0 0-.155.53.998.998 0 0 1 0 .092c-.035.783.218 1.556.553 2.486a3.549 3.549 0 0 1 .16.566c.03.17.054.338.077.5.035.243.067.472.115.688.083.381.184.767.291 1.158.241.116.462.271.65.459a5.486 5.486 0 0 1 .736-.276 8.449 8.449 0 0 1 2.997-.302.268.268 0 0 0 .248-.104 3.077 3.077 0 0 1 2.321-1.045c.185 0 .37.016.551.049.169.026.34.044.511.053.997-.022 1.842.722 1.94 1.686l.022.128c.031.188.067.402.082.625l.003.036c.03.44.066.956-.054 1.493a5.451 5.451 0 0 0 .563.312c.291.141 1.177.571 1.382 1.474.135.593-.055 1.218-.565 1.86a.896.896 0 0 1-.007.008c-.277.342-.574.653-.861.953-.093.097-.186.194-.277.292l-.032.035-.013.013c.075.367.08.738.018 1.1a.883.883 0 0 0 .008-.003c.286-.101.67-.217 1.09-.217.362 0 .703.087 1.01.256l.174-.096c.203-.112.412-.227.637-.336a5.071 5.071 0 0 1 1.631-.494c.11-.016.214-.031.304-.05.166-.036.329-.054.487-.054.763 0 1.384.415 1.626 1.085.113.286.326.53.603.69a1.969 1.969 0 0 1 .65 2.723c-.043.069-.086.137-.13.204.03.113.064.228.101.341l.122.01a2.426 2.426 0 0 0 1.067-.212c.388-.15.715-.22 1.032-.22.82 0 1.353.485 1.693.882.98.55 1.396 1.481 1.235 2.77a.964.964 0 0 1-.001.012c-.083.602.043.861.195 1.048a2.192 2.192 0 0 1 .51 1.74c-.073.47-.186.934-.298 1.372a2.445 2.445 0 0 1 1.258.778c.125.155.2.219.235.243.043-.008.148-.039.347-.143a1.32 1.32 0 0 1 .61-.15Z"/>
  </g>
</svg>