<svg xmlns="http://www.w3.org/2000/svg" viewBox="0 0 46.723 29.258">
  <path fill="#0378b3" d="M46.723 20.754a1.275 1.275 0 0 1-1.3.716c-1.706-.02-3.406-.007-5.108-.007-.965 0-1.165-.152-1.453-1.1-.043-.144-.1-.283-.172-.5-.488.333-.954.635-1.4.961-.068.05-.078.215-.073.324a3.217 3.217 0 0 1-2.946 3.482.7.7 0 0 0-.588.386 3.6 3.6 0 0 1-3.483 1.736.552.552 0 0 0-.6.307 3.446 3.446 0 0 1-3.837 1.614.392.392 0 0 0-.294.016 4.458 4.458 0 0 1-4.075.151 9.672 9.672 0 0 1-2.769-1.649c-2.4-1.875-4.818-3.719-7.16-5.661-1.179-.975-2.206-2.136-3.3-3.212-.052-.051-.108-.1-.165-.151a.527.527 0 0 0-.067.085c-.494 1.243-.494 1.243-1.849 1.243H1.243C.325 19.494 0 19.172 0 18.265V1.212C0 .32.382-.06 1.26.004a37.2 37.2 0 0 1 8.269 1.282 8.969 8.969 0 0 1 1.457.636 1.178 1.178 0 0 1 .658 1.41c-.035.161-.04.329-.065.549.19.009.349.022.508.022 2.281 0 4.562.009 6.843-.01a1.362 1.362 0 0 0 .741-.244 6.875 6.875 0 0 1 4.877-1.545 11.385 11.385 0 0 1 3.261.975c1.622.687 3.253 1.351 4.876 2.021.139.057.284.1.366.129a2.9 2.9 0 0 1 .295-.926 1.849 1.849 0 0 1 .8-.488 28.4 28.4 0 0 1 7.947-1.7c1.1-.1 2.217-.1 3.324-.169a1.22 1.22 0 0 1 1.3.707Zm-18.566 5.088-4.308-4.449a2.752 2.752 0 0 1-.325-.38.964.964 0 0 1 1.41-1.281 5.444 5.444 0 0 1 .419.419c1.409 1.407 2.8 2.838 4.227 4.228a1.542 1.542 0 0 0 2.2-.044c.356-.333.349-.453 0-.8q-2.568-2.6-5.129-5.2a.981.981 0 1 1 1.4-1.351c.461.466.906.945 1.368 1.409 1.332 1.341 2.671 2.667 4 4a.853.853 0 0 0 .908.26 1.21 1.21 0 0 0 .8-1.73 3.2 3.2 0 0 0-.518-.8 25.756 25.756 0 0 0-2.04-2.086c-2.749-2.355-5.531-4.673-8.311-6.994a.53.53 0 0 0-.429-.039 13.4 13.4 0 0 1-1.274.488 1.9 1.9 0 0 0-1.036.653 4.666 4.666 0 0 1-5.019 1.533 2.547 2.547 0 0 1-1.95-3.169 9.36 9.36 0 0 1 2.264-4.219c.11-.129.221-.257.366-.421h-5.925c-.122.57-.221 1.125-.366 1.667-.708 2.69-1.433 5.377-2.139 8.066a.721.721 0 0 0 .054.567 43.309 43.309 0 0 0 3.509 3.523c2.757 2.273 5.595 4.449 8.442 6.608a7.9 7.9 0 0 0 2.016.912 3.492 3.492 0 0 0 .926.1l.082-.184c-.961-.932-1.926-1.859-2.878-2.8a20.248 20.248 0 0 1-1.187-1.265.95.95 0 0 1 .086-1.359.975.975 0 0 1 1.323.032c.134.122.252.263.383.392q2.214 2.205 4.432 4.409a.965.965 0 0 0 1.292.137 6.866 6.866 0 0 0 .927-.832Zm8.167-6.725c.534-.36 1.058-.695 1.558-1.063a.451.451 0 0 0 .1-.407q-1.724-4.79-3.482-9.562a.706.706 0 0 0-.357-.366c-2.615-1.065-5.241-2.1-7.85-3.178a4.953 4.953 0 0 0-5.43.667 29.079 29.079 0 0 0-2.607 2.415 6.732 6.732 0 0 0-1.778 3.191c-.135.609 0 .845.609.986a3.641 3.641 0 0 0 1.121.1 3.25 3.25 0 0 0 2.242-1.5 1.822 1.822 0 0 1 .662-.592c.931-.355 1.889-.636 2.832-.964a1.063 1.063 0 0 1 1.13.251 647.263 647.263 0 0 0 4.865 4.144 46.556 46.556 0 0 1 6.391 5.865Zm-.835-13.7c.132.3.257.575.374.853 1.745 4.186 3.236 8.465 4.625 12.78a.539.539 0 0 0 .635.451c1.048-.024 2.1-.007 3.147-.01.16 0 .321-.016.481-.026V3.951a29.949 29.949 0 0 0-9.262 1.468ZM1.958 17.553c1.341 0 2.629.009 3.919-.015.112 0 .278-.193.322-.328q.508-1.585.975-3.184a90.248 90.248 0 0 0 2.376-9.7c.167-.975.189-1.047-.783-1.236-1.967-.381-3.947-.671-5.923-.986-.288-.046-.583-.045-.886-.066Z" data-name="Trazado 1421"/>
</svg>