<svg xmlns="http://www.w3.org/2000/svg" data-name="Capa 1" viewBox="0 0 65.828 52.822">
  <path fill="#676767" d="M0 43.268c.083-.034.063-.111.074-.174a3.808 3.808 0 0 1 4.4-3.131 3.675 3.675 0 0 1 2.217 1.016c.139.137.154.233 0 .344l-.048.048c-.2.185-.373.458-.609.529s-.387-.268-.609-.39a2.693 2.693 0 0 0-2.918.048 2.425 2.425 0 0 0-1.05 2.622 2.314 2.314 0 0 0 1.793 1.97 2.536 2.536 0 0 0 2.533-.569c.174-.162.268-.137.4.017a2.973 2.973 0 0 0 .444.424c.242.174.176.3 0 .464a4.016 4.016 0 0 1-4.1.72A3.482 3.482 0 0 1 .07 44.257c0-.065 0-.139-.071-.176Z" data-name="Trazado 990"/>
  <path fill="#28afd1" d="M33.065.004a19.072 19.072 0 0 1 17.788 12.064.866.866 0 0 1-.569 1.321l-6.507 2.528a.865.865 0 0 1-1.3-.549 10 10 0 0 0-7.988-6.264 10.208 10.208 0 0 0-3.632 20.076 9.778 9.778 0 0 0 4.327 0 1.113 1.113 0 0 1 1.013.216c1.272 1.011 2.562 1.993 3.851 2.992a.726.726 0 0 0 1.2-.453.948.948 0 0 0-.122-.521 96.422 96.422 0 0 1-1.395-3.513 1.238 1.238 0 0 1 .3-1.512 14.1 14.1 0 0 0 1.81-2.226 7.614 7.614 0 0 0 .686-1.215.834.834 0 0 1 1.167-.5q3.348 1.3 6.686 2.6a.828.828 0 0 1 .507 1.187 19.23 19.23 0 0 1-36.654-2.892 18.613 18.613 0 0 1 4.244-16.579A18.7 18.7 0 0 1 29.675.304a17.144 17.144 0 0 1 3.39-.3Z" data-name="Trazado 991"/>
  <path fill="#90b945" d="M25.576 19.241a7.614 7.614 0 1 1 2.231 5.4 7.637 7.637 0 0 1-2.231-5.4Z" data-name="Trazado 992"/>
  <path fill="#676767" d="M37.303 47.442a3.666 3.666 0 0 1-3.652-3.117 3.737 3.737 0 0 1 3.663-4.4 3.851 3.851 0 0 1 2.912 1.01c.151.145.2.245 0 .4s-.39.47-.635.549-.407-.285-.638-.4a2.69 2.69 0 0 0-2.878.071 2.418 2.418 0 0 0-1.059 2.619 2.311 2.311 0 0 0 1.788 1.975 2.542 2.542 0 0 0 2.536-.569c.171-.157.265-.145.407.014a3.841 3.841 0 0 0 .492.47c.185.142.131.239 0 .37a3.955 3.955 0 0 1-2.936 1.008Z" data-name="Trazado 993"/>
  <path fill="#676767" d="M24.825 44.977h-1.91c-.285 0-.285.085-.2.313a1.793 1.793 0 0 0 1.864 1.03 1.993 1.993 0 0 0 1.215-.49c.122-.114.2-.111.285.023a2.733 2.733 0 0 0 .222.259c.39.45.387.447-.111.8-1.292.914-4.227.726-4.8-1.637a2.847 2.847 0 0 1 1.668-3.37 2.883 2.883 0 0 1 3.592 1.176 3.194 3.194 0 0 1 .361 1.642c0 .188-.06.256-.253.253Zm-.646-.874h1.329c.245 0 .259-.1.208-.285a1.614 1.614 0 0 0-3.049.04c-.043.168-.02.251.182.248.444-.014.888-.006 1.329-.006Z" data-name="Trazado 994"/>
  <path fill="#676767" d="M64.533 46.776a2.489 2.489 0 0 1-2.562.515 1.58 1.58 0 0 1-1.227-1.566 1.516 1.516 0 0 1 1.272-1.514 8.684 8.684 0 0 1 2.138-.125c.37 0 .4-.043.325-.416a1.158 1.158 0 0 0-1.193-.877 3.034 3.034 0 0 0-1.864.538c-.145-.27-.285-.541-.436-.8-.105-.179.043-.222.14-.285a4.019 4.019 0 0 1 2.624-.518 2.083 2.083 0 0 1 2.069 2.317c.017 1.01 0 2.024 0 3.034 0 .2-.054.285-.268.27a2.738 2.738 0 0 0-.342 0c-.593.002-.593.002-.676-.573Zm-1-1.816a3.346 3.346 0 0 0-1.033.085.649.649 0 0 0-.467.532.692.692 0 0 0 .285.686 1.574 1.574 0 0 0 2.112-.515.956.956 0 0 0 .031-.729c-.054-.145-.31-.043-.475-.057s-.273-.002-.455-.002Z" data-name="Trazado 995"/>
  <path fill="#676767" d="M45.037 46.707a2.613 2.613 0 0 1-3.06.39 1.537 1.537 0 0 1-.76-1.551 1.44 1.44 0 0 1 1.01-1.25 4.238 4.238 0 0 1 1.611-.2c.285 0 .569-.017.854 0s.285-.1.262-.319a1.152 1.152 0 0 0-1.213-.976 2.75 2.75 0 0 0-1.657.416c-.168.105-.25.1-.325-.083a2.525 2.525 0 0 0-.157-.3c-.253-.475-.259-.487.222-.712a4.233 4.233 0 0 1 2.79-.313 1.958 1.958 0 0 1 1.64 1.993c.028 1.113 0 2.226.017 3.339 0 .176-.048.245-.231.233a4.114 4.114 0 0 0-.649 0c-.285.028-.407-.048-.359-.344a2.451 2.451 0 0 0 .005-.323Zm-1.028-1.748a3.18 3.18 0 0 0-1.07.094.689.689 0 0 0-.188 1.187 1.564 1.564 0 0 0 2.158-.521.928.928 0 0 0 .026-.7c-.054-.151-.307-.046-.473-.06s-.273 0-.452 0Z" data-name="Trazado 996"/>
  <path fill="#676767" d="M13.305 44.583a2.828 2.828 0 0 1-3 2.846 2.863 2.863 0 1 1 .048-5.721 2.808 2.808 0 0 1 2.952 2.875Zm-4.631-.04a1.664 1.664 0 1 0 3.322.006 1.662 1.662 0 1 0-3.322 0Z" data-name="Trazado 997"/>
  <path fill="#676767" d="M15.843 42.416a2.73 2.73 0 0 1 2.411-.658 2.047 2.047 0 0 1 1.79 2.081c.04 1.1 0 2.2.017 3.3 0 .165-.051.233-.213.211h-.068c-.327-.017-.749.137-.956-.057s-.057-.621-.063-.948V44.37c0-.991-.436-1.506-1.264-1.52a1.426 1.426 0 0 0-1.6 1.5c-.028.885-.02 1.773 0 2.659 0 .25-.037.381-.33.35s-.734.1-.922-.06-.068-.621-.068-.945v-4.228c0-.313.094-.41.381-.362a1.64 1.64 0 0 0 .2 0c.61-.002.61-.002.685.652Z" data-name="Trazado 998"/>
  <path fill="#676767" d="M52.114 46.662a2.6 2.6 0 0 1-2.545.68 2.067 2.067 0 0 1-1.651-2.106c-.043-1.09 0-2.18-.02-3.273 0-.176.077-.2.225-.2.285 0 .547.017.82 0 .213 0 .27.057.268.268v2.59a2.847 2.847 0 0 0 .023.441c.114.82.51 1.2 1.25 1.207a1.4 1.4 0 0 0 1.514-1.181 9.183 9.183 0 0 0 .054-1.531v-1.534c0-.182.034-.285.242-.259.344.034.8-.145 1.011.077.168.176.054.626.054.954v4.27c0 .236-.063.325-.3.3a2.455 2.455 0 0 0-.569 0c-.31.043-.416-.083-.367-.376a2.684 2.684 0 0 0-.009-.327Z" data-name="Trazado 999"/>
  <path fill="#676767" d="M27.521 41.767h1.25c.142 0 .2.088.265.179.362.484.729.962 1.079 1.449.122.168.191.174.316 0 .344-.481.712-.942 1.056-1.423a.436.436 0 0 1 .424-.208c.35.014.7 0 1.059 0 .048.131-.063.188-.117.262-.569.743-1.122 1.489-1.708 2.215a.342.342 0 0 0 0 .515c.569.732 1.139 1.474 1.708 2.217a.891.891 0 0 1 .228.379h-1.292c-.142 0-.194-.1-.259-.188-.387-.521-.78-1.036-1.153-1.566-.12-.168-.179-.142-.285 0-.376.515-.763 1.019-1.139 1.534a.447.447 0 0 1-.421.219c-.37-.017-.743 0-1.184 0l.484-.635c.5-.66 1-1.324 1.52-1.973a.31.31 0 0 0 0-.464 121.905 121.905 0 0 1-1.688-2.229c-.052-.077-.146-.14-.143-.283Z" data-name="Trazado 1000"/>
  <path fill="#676767" d="M57.559 47.431a2.845 2.845 0 0 1-2.639-1.54 2.8 2.8 0 0 1 .2-3 3.175 3.175 0 0 1 4.219-.672 2.89 2.89 0 0 1 .461.453c.2.233.2.4-.111.521a.719.719 0 0 0-.12.068 1.614 1.614 0 0 1-.507.268c-.2.028-.285-.231-.416-.35a1.677 1.677 0 0 0-2.593.658 1.714 1.714 0 0 0 1.83 2.445 1.406 1.406 0 0 0 .976-.569c.117-.157.211-.159.359-.057a4.816 4.816 0 0 0 .438.262c.379.219.384.222.117.569a2.723 2.723 0 0 1-2.214.944Z" data-name="Trazado 1001"/>
  <path fill="#d84431" d="M58.946 36.627a2.118 2.118 0 1 1 2.118 2.118 2.118 2.118 0 0 1-2.118-2.118Z" data-name="Trazado 1002"/>
  <path fill="#90b945" d="M56.11 34.518a2.124 2.124 0 1 1-1.963 1.313 2.112 2.112 0 0 1 1.963-1.313Z" data-name="Trazado 1003"/>
  <path fill="#676767" d="M36.151 51.463a1.234 1.234 0 0 1-1.739.071 1.139 1.139 0 0 1-.048-1.494c.418-.49 1.079-.5 1.768-.023.054-.017.048-.065.06-.108.02-.085-.051-.236.12-.222s.1.154.1.242v1.773a.942.942 0 0 1-.547 1.008 1.6 1.6 0 0 1-1.469-.154c-.074-.046-.131-.108-.065-.194s.117-.026.176.014a1.281 1.281 0 0 0 .4.182c.885.24 1.355-.158 1.244-1.095Zm-.9.2a.871.871 0 0 0 .928-.905.854.854 0 0 0-.9-.894.9.9 0 1 0-.026 1.8Z" data-name="Trazado 1004"/>
  <path fill="#676767" d="M3.985 51.913c-.139.051-.222.04-.285-.046a1.139 1.139 0 0 1-.139-.194 1.193 1.193 0 0 0-1.423-.726c-.239.034-.31.094-.285.322a4.344 4.344 0 0 1 0 .51c0 .08 0 .168-.111.165s-.1-.071-.1-.142v-2.758c0-.131.077-.148.176-.145.421 0 .854 0 1.258.037a.991.991 0 0 1 .381 1.853c-.171.1-.165.165-.063.3.186.263.372.53.591.824ZM1.85 49.94v.615c0 .105 0 .211.151.2a4.6 4.6 0 0 0 1.153-.065.709.709 0 0 0 .547-.618.788.788 0 0 0-.832-.953c-1.028-.077-1.028-.077-1.028.689Z" data-name="Trazado 1005"/>
  <path fill="#676767" d="M13.473 50.1v-1.173c0-.083-.028-.2.117-.2s.111.12.111.2v2.824c0 .085.028.2-.117.194s-.1-.1-.108-.176a2 2 0 0 0-.017-.225 1.23 1.23 0 0 1-1.218.379 1.056 1.056 0 0 1-.623-.444 1.241 1.241 0 0 1 .157-1.531c.445-.417 1.071-.375 1.698.152Zm0 .729a.908.908 0 1 0-.44.841.905.905 0 0 0 .44-.841Z" data-name="Trazado 1006"/>
  <path fill="#676767" d="M21.54 50.074v-1.139c0-.08-.046-.2.1-.213s.12.134.12.222v2.724c0 .094.083.268-.1.265s-.077-.174-.105-.268a1.565 1.565 0 0 1 0-.191 1.119 1.119 0 0 1-.919.492 1.09 1.09 0 0 1-.911-.45 1.25 1.25 0 0 1 .105-1.54c.403-.426 1.01-.413 1.71.098Zm-1.822.737a.908.908 0 0 0 .922.962.922.922 0 0 0 .9-.959.914.914 0 1 0-1.825 0Z" data-name="Trazado 1007"/>
  <path fill="#676767" d="M58.004 50.433a1.782 1.782 0 0 1-.211.951 1.067 1.067 0 0 1-.965.589 1.028 1.028 0 0 1-.971-.569 1.993 1.993 0 0 1 0-1.953 1.087 1.087 0 0 1 1.919 0 1.791 1.791 0 0 1 .228.982Zm-2.146 0a1.819 1.819 0 0 0 .148.794.854.854 0 0 0 .825.547.837.837 0 0 0 .8-.535 1.933 1.933 0 0 0 0-1.617.828.828 0 0 0-.774-.518.854.854 0 0 0-.82.5 1.791 1.791 0 0 0-.179.811Z" data-name="Trazado 1008"/>
  <path fill="#676767" d="M62.88 50.194c.2.054.344.083.481.134a.746.746 0 0 1 .51.7.8.8 0 0 1-.41.8 1.625 1.625 0 0 1-1.586-.137c-.054-.046-.154-.085-.094-.185s.151-.026.219.02a1.423 1.423 0 0 0 1.073.211.643.643 0 0 0 .057-1.272c-.054-.014-.111-.02-.165-.031-.125-.034-.307.065-.373-.068s.105-.256.185-.37c.162-.222.336-.43.5-.646.043-.06.142-.114.083-.2-.028-.037-.122-.037-.188-.037H62.05c-.083 0-.2.026-.194-.117s.111-.091.188-.091h1.5c.074 0 .174-.023.208.071s-.037.148-.085.211c-.255.321-.509.647-.787 1.007Z" data-name="Trazado 1009"/>
  <path fill="#676767" d="M59.356 51.742h1.324c.108 0 .307-.077.31.094s-.213.1-.324.105c-.475.014-.954 0-1.423 0-.1 0-.253.068-.3-.071s.1-.194.174-.285q.444-.447.894-.891c.08-.08.162-.159.239-.242.41-.424.51-.854.285-1.139a1.129 1.129 0 0 0-1.3-.074 1.508 1.508 0 0 0-.134.1c-.063.054-.122.06-.174 0s0-.1.028-.145a1.447 1.447 0 0 1 1.651-.117c.4.319.39.854-.02 1.329-.316.356-.666.68-1 1.025-.093.092-.204.141-.23.311Z" data-name="Trazado 1010"/>
  <path fill="#676767" d="M53.053 51.742h1.423c.088 0 .236-.06.242.1s-.145.1-.231.105H52.85c-.074 0-.174.029-.211-.063s.043-.142.1-.2c.4-.4.808-.8 1.21-1.2a1.1 1.1 0 0 0 .4-.763.546.546 0 0 0-.45-.595 1.233 1.233 0 0 0-1.042.174c-.065.048-.137.165-.225.051s.046-.179.117-.228a1.423 1.423 0 0 1 1.395-.134.818.818 0 0 1 .285 1.247 7.3 7.3 0 0 1-.931.991c-.145.154-.307.285-.461.433Z" data-name="Trazado 1011"/>
  <path fill="#676767" d="M9.559 50.868H8.81c-.25 0-.259.111-.2.285a.989.989 0 0 0 1.449.455c.071-.043.142-.211.245-.083s-.068.191-.142.245a1.244 1.244 0 0 1-1.423-.08 1.215 1.215 0 0 1-.285-1.4 1.056 1.056 0 0 1 1.167-.623 1.07 1.07 0 0 1 .9.971c0 .159-.028.231-.2.225-.261-.004-.512.005-.762.005Zm-.1-.171h.643c.137 0 .211 0 .168-.188a.854.854 0 0 0-.811-.649.828.828 0 0 0-.854.586c-.043.154-.043.265.174.253s.453 0 .68 0Z" data-name="Trazado 1012"/>
  <path fill="#676767" d="M24.096 50.869h-.78c-.159 0-.188.06-.154.211a.98.98 0 0 0 1.486.529c.074-.043.151-.2.242-.051.063.1-.063.154-.131.208a1.247 1.247 0 0 1-1.423-.048 1.224 1.224 0 0 1-.3-1.423 1.073 1.073 0 0 1 1.207-.612 1.107 1.107 0 0 1 .854 1.011c0 .174-.088.179-.213.179Zm-.105-.171h.646c.216 0 .236-.1.185-.268a.868.868 0 0 0-1.654.063c-.04.145-.023.211.142.2.231-.003.455.005.686.005Z" data-name="Trazado 1013"/>
  <path fill="#676767" d="M32.206 50.869h-.714c-.239 0-.262.083-.191.285a.978.978 0 0 0 1.494.433c.06-.037.114-.142.2-.048s0 .139-.065.191a1.223 1.223 0 0 1-1.608-.128 1.238 1.238 0 0 1 .077-1.665 1.062 1.062 0 0 1 1.648.248.717.717 0 0 1 .139.609c-.08.176-.327.06-.5.077a4.467 4.467 0 0 1-.48-.002Zm-.108-.171h.646c.259.02.251-.111.185-.285a.868.868 0 0 0-1.62 0c-.068.182-.083.3.176.285.203-.014.396 0 .613 0Z" data-name="Trazado 1014"/>
  <path fill="#676767" d="M16.474 51.666a1.07 1.07 0 0 1-.965.285c-.4-.071-.629-.31-.621-.646a.626.626 0 0 1 .655-.6 5.984 5.984 0 0 1 .749 0c.188 0 .231-.074.225-.242a.544.544 0 0 0-.512-.569 1.164 1.164 0 0 0-.811.171c-.057.037-.12.091-.176.017s0-.128.057-.168a1.324 1.324 0 0 1 1.233-.148c.379.145.436.487.436.854v1.053c0 .1.074.262-.083.285-.211.017-.08-.218-.187-.292Zm-.461-.82a1.933 1.933 0 0 0-.569.048.4.4 0 0 0-.319.39.424.424 0 0 0 .262.433.888.888 0 0 0 1.022-.231.569.569 0 0 0 .1-.532c-.057-.188-.253-.06-.384-.091a.413.413 0 0 0-.107-.017Z" data-name="Trazado 1015"/>
  <path fill="#676767" d="M45.303 50.83a1.139 1.139 0 1 1 1.139 1.139 1.1 1.1 0 0 1-1.139-1.139Zm1.139-.965a.9.9 0 0 0-.925.925.919.919 0 1 0 1.833.014.9.9 0 0 0-.908-.939Z" data-name="Trazado 1016"/>
  <path fill="#676767" d="M37.574 50.803a1.139 1.139 0 1 1 1.12 1.157 1.139 1.139 0 0 1-1.12-1.157Zm.222-.023a.917.917 0 1 0 .962-.914.888.888 0 0 0-.956.914Z" data-name="Trazado 1017"/>
  <path fill="#676767" d="M28.141 50.023a1.067 1.067 0 0 1 .948-.356.8.8 0 0 1 .791.783c.026.441 0 .885 0 1.329 0 .077 0 .168-.111.165s-.1-.1-.1-.176v-1.139c0-.51-.248-.766-.7-.78a.769.769 0 0 0-.874.749c-.026.35 0 .7-.017 1.056 0 .1.068.262-.108.285s-.117-.162-.117-.256v-1.671c0-.111-.105-.316.111-.325s.049.217.177.336Z" data-name="Trazado 1018"/>
  <path fill="#676767" d="M49.319 49.662a1.452 1.452 0 0 1 .666.139c.065.031.125.071.085.154s-.105.063-.171.028a1.287 1.287 0 0 0-.8-.105c-.2.034-.37.125-.393.359s.125.35.33.4.484.114.726.179a.515.515 0 0 1 .438.529.569.569 0 0 1-.436.547 1.546 1.546 0 0 1-1.19-.1c-.077-.037-.191-.071-.134-.194s.151-.023.219 0a1.423 1.423 0 0 0 .991.117.367.367 0 0 0 .319-.347.342.342 0 0 0-.285-.37c-.208-.057-.421-.094-.629-.145-.43-.114-.609-.313-.569-.635a.663.663 0 0 1 .675-.569Z" data-name="Trazado 1019"/>
  <path fill="#676767" d="M6.911 51.586a1 1 0 0 1-.675.376.874.874 0 0 1-1.067-.854c-.026-.407 0-.817 0-1.227 0-.08-.031-.2.117-.194s.105.125.105.2v1.09c0 .51.236.766.692.788a.771.771 0 0 0 .854-.726c.031-.361 0-.726.017-1.087 0-.094-.08-.268.105-.265s.1.174.1.27v1.634c0 .117.094.327-.091.342s-.04-.224-.157-.347Z" data-name="Trazado 1020"/>
  <path fill="#676767" d="M41.915 49.662a1 1 0 0 1 .72.256c.054.048.145.1.074.194s-.139.02-.2-.031a.894.894 0 0 0-.956-.148.828.828 0 0 0-.552.786.9.9 0 0 0 .441.928.939.939 0 0 0 1-.04c.08-.048.154-.245.265-.083s-.08.191-.159.25a1.178 1.178 0 0 1-1.315 0 1.2 1.2 0 0 1-.413-1.341 1.1 1.1 0 0 1 1.095-.771Z" data-name="Trazado 1021"/>
  <path fill="#676767" d="M44.14 50.837v.919c0 .077.014.174-.1.179s-.111-.091-.111-.171v-1.907c0-.074-.02-.174.1-.174s.108.117.111.2c.003.316 0 .635 0 .954Z" data-name="Trazado 1022"/>
  <path fill="#676767" d="M44.206 48.962c-.031.108-.085.176-.191.168a.157.157 0 0 1-.151-.182.148.148 0 0 1 .179-.151c.109-.003.146.071.163.165Z" data-name="Trazado 1023"/>
</svg>