<svg xmlns="http://www.w3.org/2000/svg" data-name="Isolation Mode" viewBox="0 0 49.54 56.82">
  <path fill="#0278b3" d="M48.29 27.47a2.11 2.11 0 0 0-4 .82 5.81 5.81 0 0 0 .2 1.09 21.08 21.08 0 0 1 .81 6.11 16.7 16.7 0 0 1-.3 2.09l-.27.07c-4.32-2.24-7-6-10-9.69a7.19 7.19 0 0 0 4.07-3.8 5.85 5.85 0 0 0-.44-5.36 6.21 6.21 0 0 0-3.59-2.78 7.22 7.22 0 0 0-6.44 1.13c-.09-.05-.12-.05-.12-.07a35.71 35.71 0 0 1-3.78-10.72 16.56 16.56 0 0 1 0-2.35 8.06 8.06 0 0 1 1.22.35 24.24 24.24 0 0 1 8.73 6.78 2.46 2.46 0 0 0 2.27.92h.2a4.69 4.69 0 0 0 1.61-1.71c-.12-.42-.19-.85-.27-1.28-.28-.39-.6-.76-.88-1.13a1.6 1.6 0 0 1-.58-.37c-1.33-1.26-2.71-2.48-4-3.73l-4.68-3C27.39.62 26.83.4 26.26.25a5 5 0 0 0-4.18.43 4.47 4.47 0 0 0-1.9 3.18c-.35 1.93-.6 3.87-.93 5.8a26.67 26.67 0 0 1-1.77 6.75 21 21 0 0 1-9.39 9.67c-1.5.82-3 1.58-4.46 2.52a7.85 7.85 0 0 0-3.07 9.38 8.43 8.43 0 0 0 8.77 5.24 27.21 27.21 0 0 0 3.44-.78c.07.11.22.3.37.5q4.51 6.24 9 12.48a3.58 3.58 0 0 0 1.66 1.39h.91c.22-.09.44-.16.65-.27 2.53-1.39 5.06-2.76 7.58-4.17a2 2 0 0 0 .57-3.05c-2.32-2.77-4.67-5.52-7-8.28a2.07 2.07 0 0 0-1.89-.73 2 2 0 0 0-1.37 3.32c1.36 1.65 2.77 3.28 4.14 4.91l1.26 1.52-3.72 2-8.58-11.8a2.83 2.83 0 0 1 .25-.17 25.44 25.44 0 0 1 10.34-3 18.79 18.79 0 0 1 7.79 1.27q4.24 1.49 8.51 2.93a4.18 4.18 0 0 0 5.21-1.59 5.83 5.83 0 0 0 .71-1.64c.84-3.56.16-7.1-.87-10.59Zm-32.76 8.59-4.73 2.57a4.41 4.41 0 0 1-6-1.41 4 4 0 0 1 1.75-5.62c1.67-.93 3.36-1.85 5.12-2.82a25.53 25.53 0 0 0 4.25 7l-.44.27Zm5.22-1.93a.78.78 0 0 1-.89-.23 21.52 21.52 0 0 1-4.51-7.44.65.65 0 0 1 .26-.79 23.49 23.49 0 0 0 6.25-8.9c.23-.61.39-1.25.62-2a78.32 78.32 0 0 0 11.66 19.21c-4.57-1.42-8.99-.98-13.39.15ZM34 23.67c-.47.31-1 .57-1.57.89l-2.3-3.76a18.19 18.19 0 0 1 1.81-.92 2.28 2.28 0 0 1 2.76 1 2.09 2.09 0 0 1-.7 2.79Zm7.12-4a1.93 1.93 0 0 1 .63-1.41 2.15 2.15 0 0 1 1.5-.56 2.09 2.09 0 0 1 1.48.59 1.88 1.88 0 0 1 .58 1.42 2 2 0 0 1-2.08 2 2.06 2.06 0 0 1-2.08-2.01ZM25.38 50.5a1.22 1.22 0 0 1-1.28-1.16 1.12 1.12 0 0 1 .34-.86 1.21 1.21 0 0 1 .9-.36 1.19 1.19 0 1 1 0 2.38Z"/>
</svg>