<svg xmlns="http://www.w3.org/2000/svg" data-name="Capa 1" viewBox="0 0 70.469 70.48">
  <path fill="#0278b3" d="M17.891 0h2.758a3.126 3.126 0 0 0 .46.12 15.12 15.12 0 0 1 5.453 1.765 3.14 3.14 0 0 0 1.412.379q19.778.029 39.553 0a2.76 2.76 0 0 1 2.942 1.73v30.687a2.761 2.761 0 0 1-2.966 1.7c-2.521-.075-5.045-.022-7.568-.02-.217 0-.434.02-.791.039l7.044 7.954h-5.622l8.848 11.386H64.76v14.677H44.288V55.672H39.75l8.85-11.39h-5.623l7-7.878H38.652v31.467a2.319 2.319 0 0 1-2.506 2.609H2.5A2.278 2.278 0 0 1 0 68.013V20.658a2.289 2.289 0 0 1 2.493-2.48h2.422c-.048-.3-.081-.52-.12-.745A14.709 14.709 0 0 1 14.183.947 35.447 35.447 0 0 1 17.891 0ZM2.318 68.134h33.99v-47.66c-1.054 0-2.059-.011-3.063.013a.572.572 0 0 0-.4.27c-.344.618-.653 1.256-.973 1.888 1.87.6 2.239 1.12 2.239 3.138v5.5c0 1.971-.84 2.819-2.793 2.819H11.986c-1.675 0-3.348.013-5.023 0a2.27 2.27 0 0 1-2.41-2.282 366.991 366.991 0 0 1 0-6.8 2.228 2.228 0 0 1 1.728-2.206c.165-.046.331-.1.5-.147-.331-.649-.631-1.265-.962-1.866a.6.6 0 0 0-.382-.3c-1.026-.024-2.052-.013-3.126-.013Zm65.809-34.028V13.67H34.039c0 .767.035 1.5-.011 2.225s-.184 1.484-.274 2.282c.3 0 .57.013.84 0 3.583-.195 4.159.693 4.078 4.095-.088 3.666-.02 7.336-.02 11.006v.772a2.356 2.356 0 0 0 .314.053c4.218 0 8.437.011 12.655-.011a1.18 1.18 0 0 0 .735-.388c.746-.789 1.456-1.614 2.206-2.449.746.838 1.445 1.6 2.111 2.39a1.237 1.237 0 0 0 1.057.482c3.232-.02 6.464-.011 9.7-.011ZM19.353 2.28a12.489 12.489 0 1 0 8.828 3.689 12.493 12.493 0 0 0-8.828-3.689Zm38.61 65.863V42.035h3.148l-6.551-7.371-6.573 7.393h3.173v26.086ZM31.782 25.062c-1.614-.151-1.614-.151-2.758.842a14.642 14.642 0 0 1-19.513-.149 3.047 3.047 0 0 0-2.627-.7v6.7h24.9ZM30.059 4.571c.478.609.943 1.116 1.305 1.69a1.151 1.151 0 0 0 1.125.572q17.43-.022 34.861-.011h.791V4.571ZM33 9.11a11.826 11.826 0 0 1 .507 1.587c.1.585.4.693.94.691q16.47-.022 32.942-.011h.735V9.11Zm13.606 44.31v14.708h2.2V47.72l-4.427 5.7Zm18.1-.026-4.42-5.69v20.439h2.225V53.389Z" data-name="Trazado 1360"/>
  <path fill="#0278b3" d="M25.016 55.668v-5.433a2.251 2.251 0 0 1 2.521-2.489c.688 0 1.377-.015 2.063 0a2.184 2.184 0 0 1 2.206 2.182q.033 5.742 0 11.484a2.16 2.16 0 0 1-2.1 2.206 22.552 22.552 0 0 1-2.543 0 2.165 2.165 0 0 1-2.131-2.243c-.024-1.9 0-3.806 0-5.7Zm4.5 5.668V50.05H27.31v11.287Z" data-name="Trazado 1361"/>
  <path fill="#0278b3" d="M13.631 51.138c.21 2.694-.886 3.445-3.4 3.449-2.64 0-3.593-.853-3.411-3.444.033-.456-.009-.919.031-1.372a2.206 2.206 0 0 1 2.138-2.022 46.608 46.608 0 0 1 2.335 0 2.236 2.236 0 0 1 2.3 2.293c.014.363.007.73.007 1.096Zm-2.3-1.094h-2.19v2.206h2.19Z" data-name="Trazado 1362"/>
  <path fill="#0278b3" d="M22.719 60.222c0 .388.009.778 0 1.167a2.2 2.2 0 0 1-2.146 2.232 23.583 23.583 0 0 1-2.471 0 2.184 2.184 0 0 1-2.17-2.206q-.042-1.168 0-2.335a2.218 2.218 0 0 1 2.346-2.245h2.061a2.249 2.249 0 0 1 2.39 2.352c-.002.344-.008.688-.01 1.035Zm-4.5-1.127v2.227h2.248c0-.642.02-1.234-.015-1.82a.512.512 0 0 0-.316-.393c-.629-.038-1.263-.017-1.912-.017Z" data-name="Trazado 1363"/>
  <path fill="#0278b3" d="M10.232 38.658c.412 0 .826-.013 1.236 0a2.206 2.206 0 0 1 2.151 2.089c.039.868.039 1.741 0 2.609a2.179 2.179 0 0 1-2.087 2.067c-.868.04-1.739.04-2.607 0a2.135 2.135 0 0 1-2.067-2 22.813 22.813 0 0 1 0-2.677 2.177 2.177 0 0 1 2.206-2.085c.39-.014.779-.005 1.168-.003Zm-1.114 4.5h2.206v-2.206H9.117Z" data-name="Trazado 1364"/>
  <path fill="#0278b3" d="M19.336 47.748c.412 0 .826-.015 1.236 0a2.206 2.206 0 0 1 2.136 2.1 32.57 32.57 0 0 1 0 2.539 2.168 2.168 0 0 1-2.022 2.122 24.088 24.088 0 0 1-2.677 0 2.147 2.147 0 0 1-2.068-2.079 26.447 26.447 0 0 1 0-2.471 2.2 2.2 0 0 1 2.307-2.206h1.1Zm1.1 2.3h-2.221v2.192h2.219Z" data-name="Trazado 1365"/>
  <path fill="#0278b3" d="M31.808 42.043c0 .436.02.871 0 1.305a2.173 2.173 0 0 1-2.022 2.074 25.277 25.277 0 0 1-2.743 0 2.149 2.149 0 0 1-2.022-2.063 29.104 29.104 0 0 1 0-2.609 2.173 2.173 0 0 1 2.138-2.089 42.273 42.273 0 0 1 2.335 0 2.222 2.222 0 0 1 2.3 2.287c.009.368 0 .735 0 1.1Zm-2.3 1.123v-2.225h-2.19v2.225Z" data-name="Trazado 1366"/>
  <path fill="#0278b3" d="M13.631 60.22v1.1a2.2 2.2 0 0 1-2.153 2.291 22.065 22.065 0 0 1-2.539 0 2.157 2.157 0 0 1-2.094-2.133 24.367 24.367 0 0 1 0-2.539 2.192 2.192 0 0 1 2.206-2.105 58.974 58.974 0 0 1 2.265 0 2.244 2.244 0 0 1 2.315 2.285c.008.368 0 .733 0 1.101Zm-2.263 1.127c0-.664.017-1.3-.015-1.929a.474.474 0 0 0-.322-.311c-.631-.031-1.261-.015-1.885-.015v2.255Z" data-name="Trazado 1367"/>
  <path fill="#0278b3" d="M19.345 45.446c-2.642.2-3.613-.813-3.427-3.357.033-.456 0-.919.024-1.373a2.184 2.184 0 0 1 2.103-2.053q1.27-.044 2.541 0a2.19 2.19 0 0 1 2.122 2.111c.033.8.024 1.6 0 2.4a2.219 2.219 0 0 1-2.258 2.265c-.38.024-.777.007-1.105.007Zm-1.116-4.5v2.2h2.206v-2.2Z" data-name="Trazado 1368"/>
  <path fill="#0278b3" d="M63.631 23.891a5.67 5.67 0 1 1-5.661-5.711 5.67 5.67 0 0 1 5.661 5.711Zm-5.661 3.372a3.394 3.394 0 1 0-3.422-3.389 3.394 3.394 0 0 0 3.422 3.389Z" data-name="Trazado 1369"/>
  <path fill="#0278b3" d="M40.936 27.22v-2.157h2.221v2.157Z" data-name="Trazado 1370"/>
  <path fill="#0278b3" d="M47.705 27.228h-2.217V25.06h2.217Z" data-name="Trazado 1371"/>
  <path fill="#0278b3" d="m25.373 7.119 1.533 1.68-13.633 12.5-1.537-1.672Z" data-name="Trazado 1372"/>
  <path fill="#0278b3" d="M18.174 10.219a3.394 3.394 0 1 1-1-2.4 3.4 3.4 0 0 1 1 2.4Zm-2.267.022a1.134 1.134 0 1 0-1.149 1.116 1.158 1.158 0 0 0 1.149-1.116Z" data-name="Trazado 1373"/>
  <path fill="#0278b3" d="M27.263 19.305a3.379 3.379 0 1 1-1-2.4 3.4 3.4 0 0 1 1 2.4Zm-3.383 1.153a1.136 1.136 0 1 0-1.151-1.123 1.164 1.164 0 0 0 1.151 1.122Z" data-name="Trazado 1374"/>
</svg>