<svg xmlns="http://www.w3.org/2000/svg" data-name="Layer 1" viewBox="0 0 56.03 47.02">
  <path fill="#0378b3" fill-rule="evenodd" d="M17.39 20.25v5.34a6.52 6.52 0 0 1-2.87 5.42 3.4 3.4 0 0 0-1.55 2.84l.11 12.21a.94.94 0 0 1-.92.94.92.92 0 0 1-.92-.92l-.11-12.22a5.25 5.25 0 0 1 2.38-4.39 4.69 4.69 0 0 0 2.07-3.9v-5.34a.72.72 0 0 0-.72-.72.73.73 0 0 0-.73.72v4.24a.93.93 0 1 1-1.85 0V11.11a.61.61 0 1 0-1.21 0v10.11a.93.93 0 0 1-1.85 0v-12a.61.61 0 1 0-1.21 0v11.5a.93.93 0 0 1-1.85 0v-9.16a.61.61 0 0 0-1.21 0v9.76a.93.93 0 0 1-1.85 0v-6.7a.61.61 0 0 0-1.21 0v10.42a8.69 8.69 0 0 0 .88 3.81 11.69 11.69 0 0 1 1.25 5.22l.11 12a.94.94 0 0 1-.92.94.92.92 0 0 1-.92-.92l-.11-12a9.87 9.87 0 0 0-1.06-4.4 10.54 10.54 0 0 1-1.07-4.62V14.66a2.46 2.46 0 0 1 2.46-2.45 2.06 2.06 0 0 1 .6.08v-.73a2.44 2.44 0 0 1 3.06-2.37 2.45 2.45 0 0 1 4.87-.44 2.32 2.32 0 0 1 .65-.09 2.46 2.46 0 0 1 2.45 2.46v6.67a2.92 2.92 0 0 1 .73-.1 2.57 2.57 0 0 1 2.52 2.56Zm16.75-9.29a2.48 2.48 0 0 0-.73.1V4.38a2.45 2.45 0 0 0-2.45-2.45 2.32 2.32 0 0 0-.65.09 2.45 2.45 0 0 0-4.87.44 2.09 2.09 0 0 0-.61-.08 2.45 2.45 0 0 0-2.45 2.45v.72a2.48 2.48 0 0 0-.61-.07 2.45 2.45 0 0 0-2.45 2.45v10.39a10.57 10.57 0 0 0 1.07 4.62 9.76 9.76 0 0 1 1.05 4.4l.11 18.7a.93.93 0 0 0 .93.92.93.93 0 0 0 .92-.93l-.11-18.69a11.82 11.82 0 0 0-1.24-5.22 8.61 8.61 0 0 1-.88-3.8V7.94a.61.61 0 0 1 1.21 0v6.7a.93.93 0 0 0 1.85 0v-9.8a.61.61 0 0 1 1.21 0V14a.93.93 0 0 0 1.85 0V2.46a.61.61 0 1 1 1.21 0v12a.93.93 0 1 0 1.85 0V4.38a.61.61 0 0 1 1.21 0v13.39a.93.93 0 1 0 1.85 0v-4.24a.73.73 0 0 1 .73-.73.73.73 0 0 1 .72.73v5.34a4.7 4.7 0 0 1-2.06 3.89 5.28 5.28 0 0 0-2.39 4.39l.11 18.95a.93.93 0 0 0 .93.92.93.93 0 0 0 .92-.93l-.11-18.94a3.41 3.41 0 0 1 1.56-2.84 6.57 6.57 0 0 0 2.87-5.42v-5.34a2.57 2.57 0 0 0-2.55-2.59Zm19.31 4.44a2.46 2.46 0 0 0-.72.1V8.82a2.46 2.46 0 0 0-2.46-2.45 2.25 2.25 0 0 0-.64.09 2.46 2.46 0 0 0-4.88.44 2 2 0 0 0-.6-.08 2.46 2.46 0 0 0-2.46 2.45v.72a2.4 2.4 0 0 0-.6-.07 2.45 2.45 0 0 0-2.46 2.45v10.42a10.57 10.57 0 0 0 1.12 4.63 10 10 0 0 1 1 4.4l.11 14.26a.92.92 0 0 0 .92.92.93.93 0 0 0 .92-.94l-.11-14.24a11.69 11.69 0 0 0-1.25-5.22 8.76 8.76 0 0 1-.89-3.8V12.38a.61.61 0 0 1 .61-.6.6.6 0 0 1 .6.6v6.7a.93.93 0 0 0 1.85 0V9.32a.61.61 0 0 1 .61-.6.6.6 0 0 1 .6.6v9.16a.93.93 0 0 0 1.86 0V6.9a.61.61 0 1 1 1.21 0v12a.93.93 0 1 0 1.85 0V8.82a.61.61 0 0 1 1.21 0v13.39a.93.93 0 1 0 1.85 0v-4.24a.73.73 0 0 1 .75-.7.74.74 0 0 1 .7.7v5.35a4.68 4.68 0 0 1-2.08 3.89 5.27 5.27 0 0 0-2.38 4.39l.11 14.51a.93.93 0 0 0 .93.92.94.94 0 0 0 .92-.94l-.11-14.49a3.4 3.4 0 0 1 1.55-2.84 6.55 6.55 0 0 0 2.88-5.42V18a2.58 2.58 0 0 0-2.52-2.6Z"/>
</svg>
