<svg xmlns="http://www.w3.org/2000/svg" version="1.0" viewBox="0 0 512 512">
  <path fill="#0378b3" d="M431.5 1.9c-1.1.5-2.8 1.8-3.8 2.9-2.6 2.8-13.7 32.7-13.7 36.7 0 7.8 10.5 12.4 16.5 7.2C433.7 46 445 16.6 445 11.1c-.1-7.1-7-11.8-13.5-9.2zM256 4.9c-3 1-7.1 2.6-9 3.5-1.9 1-28.3 26.6-58.6 56.8l-55.2 55.1-.6-9.9c-.8-13.3-3.6-22-9.4-29.6-8.5-11.2-19.9-16.9-33.7-17-9.6-.1-16.4 1.8-23.7 6.5-9 5.8-15.1 13.6-18.1 23.2-.8 2.7-6.4 40.7-12.4 84.4l-10.8 79.4-9.2 10.6C3.2 281.7.5 287.1.5 297c.1 11.6 2 14.8 19.2 32.2l14.6 14.7-2.3 5.3c-3.3 7.5-3.2 16.5.4 24.4 2.4 5.3 9.1 12.3 65.9 68.7 68 67.6 67.6 67.2 79.1 68.4 9.2.9 14.6-1.5 31.3-14.1 12.5-9.4 15.8-11.5 21.3-13 28.9-7.8 66.6-30.1 105-62 28-23.3 109.4-104 114.2-113.1 3.8-7.4 5.1-14.5 4.5-24.1-.6-11.1-5.4-21.1-13.6-28.6-5.2-4.7-14.2-9.8-17.6-9.8-3 0-2.3-2.1 2.5-7.6 6.5-7.4 9.6-12.9 11.5-20 4.7-18.2-2.3-37.1-17.6-47.3-3.4-2.3-8.2-4.6-10.5-5.2-2.4-.6-4.4-1.6-4.4-2.1 0-.6 1.3-3.4 2.9-6.2 8.9-15.7 8-34.6-2.5-48.5-5.1-6.8-13.8-13.1-20.8-15.1-3.6-1-4.6-1.7-4.2-2.9.2-.9 1.2-3.6 2.1-5.9 8.3-22.8-5.9-49.4-29.9-55.8-11.4-3-23.6-1.2-34.1 5.1-3.2 2-5.9 3.4-6 3.3-.1-.2-.9-2.5-1.8-5.2-4.7-13.9-15.9-24.4-30.2-28.2-6.9-1.9-16.9-1.6-23.5.5zm25.2 22.6c6.1 4.1 9.2 9.6 9.6 17.5.3 5.6 0 7.4-2.1 11.6-1.9 3.7-17.3 19.5-64.6 66.3L162 184.2v-7.3c0-15.8-3.9-27.3-12.1-35.8l-4.2-4.3 54.4-54.5c29.9-29.9 55.7-55.1 57.2-55.9 7.1-3.8 17.3-3.3 23.9 1.1zm68.3 23c11.8 4.8 16.9 19.3 11 31.2-2.8 5.6-18.2 21.1-19.4 19.7-.4-.5-1.3-2.8-1.9-5.1-2.9-10-15.3-23.2-24.8-26.3l-3.6-1.2 7.8-8c4.4-4.4 9.1-8.6 10.6-9.4 6.2-3.2 13.7-3.6 20.3-.9zM98.9 86.6c9.9 5 13.1 12.4 13.1 30.8v10.4l-3.7.7c-14.9 2.8-29 17.2-32.3 33-.6 2.7-5.8 39.6-11.6 81.9-5.7 42.3-10.9 77.6-11.3 78.5-.5.9-2 2.6-3.3 3.9l-2.4 2.2-13.2-13.4c-18.1-18.4-18.4-16 4.6-42.3l5.4-6.2 11-81.3c6.1-44.7 11.7-83.2 12.5-85.6 2.1-6 5.9-10.1 11.8-12.8 6.7-3.2 12.7-3.1 19.4.2zm208.8 3.1c5.6 2.6 10.9 9.4 12.3 15.5 1.1 4.7 1 6.3-.5 11.4-1.6 5.8-2.1 6.4-45.4 49.9-24.1 24.2-44.6 45.1-45.5 46.5-4.2 6.3.3 15.5 7.9 16.2h4.5c1.8-.2 17.1-14.8 59-56.6 31.1-31 57.9-57.1 59.5-57.9 4.8-2.3 9.8-2.8 15.5-1.6 4.4.9 6.3 2.1 10.6 6.3 4.2 4.2 5.4 6.2 6.3 10.4 1.1 5.4.3 11.9-2 16.6-.6 1.1-26.5 27.5-57.5 58.6-41.6 41.8-56.4 57.2-56.6 59-.4 6.6 1.3 10.5 5.4 12.6 4.2 2.2 8.1 1.7 12.4-1.5 2.1-1.6 22.6-21.6 45.4-44.6 22.8-22.9 43.1-42.5 45-43.5 8.7-4.5 18-3.4 25.3 3.1 5.8 5 7.7 9.2 7.7 16.8 0 4.6-.6 7.4-2.4 10.9-1.7 3.3-15.1 17.3-45.1 47.2-23.4 23.4-43.3 43.7-44.1 45.2-3.6 6.8.7 15.4 8.1 16 6 .4 6.9-.3 36.4-29.5 24.7-24.4 30.3-29.5 33.7-30.5 11.1-3.2 21.4.7 26.8 10.1 3.5 6 4.1 11.5 2.1 18.4-1.6 5.5-2.8 6.9-27.8 32.2-61.5 62-93.3 89.9-126.2 110.8-20.8 13.3-37.7 21.3-56.7 26.8-7.8 2.3-9.9 3.5-20.5 11.7-16.5 12.8-18.1 13.8-22.2 13.8-3.4 0-6.6-3-65.8-62.2-65.7-65.7-65.3-65.2-62.2-70.9.7-1.3 6-7.9 11.8-14.7l10.6-12.3 11.1-80.7c6.1-44.4 11.4-82.4 11.8-84.4 2.3-12.5 18.9-20.5 31.1-14.9 5.2 2.3 11.1 9 12.4 13.8.5 2.1 1.3 13.2 1.7 24.8.7 22.6 1.5 26.3 6 28.4 1.4.6 4.1 1.1 6.1 1.1 3.5 0 6.4-2.7 67.8-63.9 64.2-64 64.7-64.5 73-66.4 2.9-.7 9.5.3 13.2 2zM477.7 39.4c-5 2.7-26.6 18.6-28.6 21.3-3 3.8-2.7 8.6.8 12.5 4.6 5.1 8.9 4.5 19.3-2.7 20.3-14.2 22.7-16.2 23.4-20 1.7-9-6.8-15.3-14.9-11.1zM466 97.1c-6.5 2.6-8.1 11-3 16l3 3 19.9-.3c19.4-.3 20-.4 22.5-2.7 3.1-3 4.2-7.3 2.6-11.2-2.2-5.3-5-5.9-24.7-5.8-9.8 0-18.9.5-20.3 1z"/>
</svg>
