<svg xmlns="http://www.w3.org/2000/svg" id="Isolation_Mode" data-name="Isolation Mode" viewBox="0 0 91.42 157.25">
  <defs>
    <style>
      .cls-2{fill:#0380ba}
    </style>
  </defs>
  <path fill="#fff" d="M81.03 133.83H10.42A10.42 10.42 0 0 1 0 123.42V10.48A10.43 10.43 0 0 1 10.42 0h70.57a10.43 10.43 0 0 1 10.43 10.48v113a10.43 10.43 0 0 1-10.43 10.43M12.48 152.7a4.69 4.69 0 0 0 1.26 3.32 4.33 4.33 0 0 0 3.24 1.22 4.7 4.7 0 0 0 2.24-.49 3.61 3.61 0 0 0 1.46-1.44 4.15 4.15 0 0 0 .54-2.09 3.8 3.8 0 0 0-.51-2 3.74 3.74 0 0 0-1.52-1.35 15.33 15.33 0 0 0-2.28-.78 5.57 5.57 0 0 1-2.14-.91 1.63 1.63 0 0 1-.47-1.26 1.76 1.76 0 0 1 .65-1.43 2.82 2.82 0 0 1 1.88-.55 2.64 2.64 0 0 1 1.88.63 2.88 2.88 0 0 1 .78 1.93l1.4-.12a4.52 4.52 0 0 0-.54-2.13 3.48 3.48 0 0 0-1.43-1.39 4.53 4.53 0 0 0-2.14-.48 3.87 3.87 0 0 0-2.83 1 3.55 3.55 0 0 0-1 2.66 3.5 3.5 0 0 0 .37 1.62 3.09 3.09 0 0 0 1 1.18 8.11 8.11 0 0 0 2.21.93 13.9 13.9 0 0 1 2.27.8 1.86 1.86 0 0 1 1 1.75 2.1 2.1 0 0 1-.71 1.65 3 3 0 0 1-2 .63 3.5 3.5 0 0 1-1.62-.37 2.82 2.82 0 0 1-1.11-1 3.89 3.89 0 0 1-.5-1.72l-1.37.14m18.51-.38 1.46.45a6.17 6.17 0 0 1-1.69 3.36 4.18 4.18 0 0 1-2.95 1.11 4.53 4.53 0 0 1-2.6-.74 5.33 5.33 0 0 1-1.77-2.39 10 10 0 0 1-.69-3.89 9.14 9.14 0 0 1 .66-3.69 5.29 5.29 0 0 1 1.87-2.31 4.63 4.63 0 0 1 2.63-.78 4 4 0 0 1 2.73 1 5.3 5.3 0 0 1 1.6 2.9l-1.42.41q-.74-2.79-2.94-2.79a3.15 3.15 0 0 0-1.9.57 3.7 3.7 0 0 0-1.29 1.75 8.07 8.07 0 0 0-.48 3 7.21 7.21 0 0 0 1 4.13 3 3 0 0 0 2.58 1.38 2.87 2.87 0 0 0 2.05-.85 4.62 4.62 0 0 0 1.15-2.56m2.71 1.09 1.34-.22q.42 2.64 2.13 2.64a2 2 0 0 0 1.6-.78 3 3 0 0 0 .68-2 2.79 2.79 0 0 0-.62-1.88 1.93 1.93 0 0 0-1.53-.72 3 3 0 0 0-.95.19l.16-1.45h.21a2.29 2.29 0 0 0 1.69-3.72 1.74 1.74 0 0 0-2.59 0 3.15 3.15 0 0 0-.68 1.81L33.8 147a4.39 4.39 0 0 1 1.15-2.59 3.09 3.09 0 0 1 4.43.11 3.45 3.45 0 0 1 .94 2.48 3.23 3.23 0 0 1-.4 1.61 2.86 2.86 0 0 1-1.1 1.11 2.36 2.36 0 0 1 1.08.6 3 3 0 0 1 .69 1.12 4.42 4.42 0 0 1 .26 1.57 4.29 4.29 0 0 1-1.08 3 3.43 3.43 0 0 1-2.61 1.17 3.16 3.16 0 0 1-2.38-1 4.32 4.32 0 0 1-1.11-2.75m8.57 0 1.34-.22q.42 2.64 2.13 2.64a2 2 0 0 0 1.6-.78 3 3 0 0 0 .68-2 2.79 2.79 0 0 0-.62-1.88 1.93 1.93 0 0 0-1.53-.72 3 3 0 0 0-.95.19l.16-1.45h.19a2.29 2.29 0 0 0 1.73-3.75 1.74 1.74 0 0 0-2.59 0 3.15 3.15 0 0 0-.68 1.81l-1.35-.29a4.39 4.39 0 0 1 1.15-2.59 3.09 3.09 0 0 1 4.43.11 3.45 3.45 0 0 1 .94 2.48 3.23 3.23 0 0 1-.4 1.61 2.86 2.86 0 0 1-1.1 1.11 2.36 2.36 0 0 1 1.08.6 3 3 0 0 1 .69 1.12 4.42 4.42 0 0 1 .26 1.57 4.29 4.29 0 0 1-1.08 3 3.43 3.43 0 0 1-2.61 1.17 3.16 3.16 0 0 1-2.38-1 4.32 4.32 0 0 1-1.09-2.74m12.85-1.15v-6l-3.43 6Zm0 4.71v-3.2h-4.76v-1.51l5-8.68h1.09v8.68h1.49v1.51h-1.49v3.2Zm5.74-4.38a3.76 3.76 0 0 0 .68 2.34 2 2 0 0 0 1.59.88 1.79 1.79 0 0 0 1.42-.83 3.79 3.79 0 0 0 .63-2.29 3.56 3.56 0 0 0-.62-2.21 1.87 1.87 0 0 0-1.52-.78 2 2 0 0 0-1.53.78 3.21 3.21 0 0 0-.65 2.11m5.45-5.74-1.34.13a3.33 3.33 0 0 0-.52-1.49 1.65 1.65 0 0 0-1.3-.64 2.13 2.13 0 0 0-1.88 1.46 8.66 8.66 0 0 0-.62 3.73 3.42 3.42 0 0 1 1.17-1.33 2.68 2.68 0 0 1 1.48-.45 2.87 2.87 0 0 1 2.28 1.18 4.8 4.8 0 0 1 1 3.16 6 6 0 0 1-.49 2.44 3.76 3.76 0 0 1-1.26 1.61 2.93 2.93 0 0 1-1.69.52 3.24 3.24 0 0 1-2.74-1.5q-1.08-1.5-1.08-5 0-3.88 1.11-5.53a3.3 3.3 0 0 1 2.83-1.65 2.84 2.84 0 0 1 2.09.85 4 4 0 0 1 1 2.47m1.38 4.49h4.14v1.65H67.7Zm10.31 5.67h-1.35V146.5a8.28 8.28 0 0 1-1.25 1.12 8.7 8.7 0 0 1-1.44.86v-1.59a8.63 8.63 0 0 0 2-1.56 6.1 6.1 0 0 0 1.2-1.8h.87Z"/>
  <path d="M36.97 102.73a6.24 6.24 0 0 0-3.42-.89 6.52 6.52 0 0 0-3.25.91 5.73 5.73 0 0 0-2.19 2.36 7.41 7.41 0 0 0-.79 3.46 7.53 7.53 0 0 0 .73 3.3 5.67 5.67 0 0 0 2.13 2.37 6.08 6.08 0 0 0 3.35.88 6.57 6.57 0 0 0 3.29-.91 6 6 0 0 0 2.18-2.33 7.35 7.35 0 0 0 .78-3.47 7.66 7.66 0 0 0-.71-3.3 5.5 5.5 0 0 0-2.1-2.38Zm-.23 8.39a3.42 3.42 0 0 1-3.21 2v.05a3.32 3.32 0 0 1-2-.58 3.62 3.62 0 0 1-1.28-1.61 5.89 5.89 0 0 1-.45-2.35 5.49 5.49 0 0 1 .51-2.46 4 4 0 0 1 1.38-1.61 3.28 3.28 0 0 1 1.85-.57 3.32 3.32 0 0 1 2 .58 3.69 3.69 0 0 1 1.28 1.61 6.74 6.74 0 0 1-.08 4.94ZM29.24 68.29a3.11 3.11 0 1 0 3.12-3.1 3.1 3.1 0 0 0-3.12 3.1ZM24.99 109.17a8.94 8.94 0 0 0-1.25-.86c-.45-.26-.95-.55-1.35-.81s-.79-.49-1.17-.7a3.32 3.32 0 0 1-.91-.66 1.15 1.15 0 0 1-.34-.82 1.05 1.05 0 0 1 .56-1 2.61 2.61 0 0 1 1.37-.32 4.22 4.22 0 0 1 1 .13 7.45 7.45 0 0 1 .91.3l.8.36.8-2a12.55 12.55 0 0 0-1.67-.65 6.14 6.14 0 0 0-1.9-.3 5.61 5.61 0 0 0-2.36.45 3.38 3.38 0 0 0-1.5 1.22 3.08 3.08 0 0 0-.51 1.74 2.71 2.71 0 0 0 .33 1.31 4.67 4.67 0 0 0 .9 1.13 8.76 8.76 0 0 0 1.23.95c.44.29.88.57 1.33.83l1.14.67a6 6 0 0 1 .93.66 1 1 0 0 1 .36.77 1.1 1.1 0 0 1-.26.76 1.56 1.56 0 0 1-.76.45 4.62 4.62 0 0 1-1.28.15 4.71 4.71 0 0 1-1.12-.14 9.15 9.15 0 0 1-1.13-.34c-.31-.12-.61-.25-.91-.4l-.48 2a4.5 4.5 0 0 0 .79.4 7.36 7.36 0 0 0 1 .34l1 .24a4.61 4.61 0 0 0 .91.1 6.36 6.36 0 0 0 2.59-.46 3.82 3.82 0 0 0 1.62-1.25 3 3 0 0 0 .56-1.78 2.89 2.89 0 0 0-.34-1.44 3.82 3.82 0 0 0-.89-1.03ZM45.61 30.8a4.27 4.27 0 1 0 4.25 4.27 4.28 4.28 0 0 0-4.25-4.27ZM12.81 102.14h2.41v12.72h-2.41zM60.95 67.19h5.12a2.39 2.39 0 0 0-2.53-2.22 2.53 2.53 0 0 0-2.59 2.22ZM51.66 104.6a5.44 5.44 0 0 0-2.51-.55 4.34 4.34 0 0 0-2.06.48 3.69 3.69 0 0 0-1.44 1.36 4.09 4.09 0 0 0-.52 2.05 3.68 3.68 0 0 0 .53 1.94 4 4 0 0 0 1.46 1.41 4.1 4.1 0 0 0 2.11.52 3.91 3.91 0 0 0 1.48-.26l.41-.2a4.55 4.55 0 0 1-.57.74 5.42 5.42 0 0 1-1.25.93 10.11 10.11 0 0 1-1.46.67c-.49.18-1 .35-1.49.5l.33 2a8.42 8.42 0 0 0 1.92-.47 8.7 8.7 0 0 0 2-1 8.84 8.84 0 0 0 1.74-1.43 6.5 6.5 0 0 0 1.24-1.9 6 6 0 0 0 .45-2.38 5.48 5.48 0 0 0-.63-2.75 4.16 4.16 0 0 0-1.74-1.66Zm-.11 4.68a4 4 0 0 1-1.09.5 3.91 3.91 0 0 1-1.22.17 1.88 1.88 0 0 1-1-.29 2.16 2.16 0 0 1-.7-.74 2.07 2.07 0 0 1-.26-1 1.84 1.84 0 0 1 .25-.94 1.73 1.73 0 0 1 .7-.64 2 2 0 0 1 1-.24 2.63 2.63 0 0 1 1.29.33 2.16 2.16 0 0 1 .89 1 4.19 4.19 0 0 1 .32 1.71ZM77.34 105.98l.92 1.79 2.13-.82v7.91h2.43v-10.58h-1.63l-3.85 1.7zM74.24 104.74a5.43 5.43 0 0 0-5.38 0 5 5 0 0 0-1.85 1.95 5.84 5.84 0 0 0-.68 2.84 6 6 0 0 0 .69 2.88 5.09 5.09 0 0 0 7.21 2 5 5 0 0 0 1.84-2 6.16 6.16 0 0 0 .66-2.89 5.84 5.84 0 0 0-.66-2.81 5 5 0 0 0-1.83-1.97Zm-.08 6.57a3.17 3.17 0 0 1-1.05 1.22 2.84 2.84 0 0 1-3.09 0 3.23 3.23 0 0 1-1.07-1.25 4.17 4.17 0 0 1-.39-1.84 3.77 3.77 0 0 1 .39-1.75 3.2 3.2 0 0 1 1.06-1.19 2.65 2.65 0 0 1 1.52-.44 2.85 2.85 0 0 1 1.58.45 3 3 0 0 1 1.05 1.23 4 4 0 0 1 .39 1.8 3.84 3.84 0 0 1-.44 1.77Z" class="cls-2"/>
  <path d="M86.62 5.06a9 9 0 0 0-6.38-2.64h-68.9a9.08 9.08 0 0 0-9.09 9.08v110.65a9.09 9.09 0 0 0 9.09 9.09h68.9a9.08 9.08 0 0 0 9.08-9.09V11.48a9 9 0 0 0-2.7-6.42ZM72.88 63.67a5.3 5.3 0 0 1 6.4 1l-1.41 1.75a3.21 3.21 0 0 0-2.45-1.19 3.08 3.08 0 0 0 0 6.16 3.17 3.17 0 0 0 2.47-1.22l1.42 1.74a5.33 5.33 0 0 1-3.89 1.69 5.29 5.29 0 0 1-2.54-9.92Zm-4.46 4.58v.66h-7.59a2.82 2.82 0 0 0 3 2.59 3.15 3.15 0 0 0 2.69-1.44l1.59 1.19a4.84 4.84 0 0 1-4.32 2.34 5 5 0 0 1-5.27-5.28 5.07 5.07 0 0 1 5-5.35c3.77-.01 4.9 3.02 4.9 5.29Zm-3.9-33.07a18.85 18.85 0 0 1-6.26 14l-1.56-2a16.4 16.4 0 0 0 3.28-20l-3.05 1.89a13 13 0 0 1 1.5 6 12.71 12.71 0 0 1-1.76 6.45l-2-1.48a10.18 10.18 0 0 0 1.29-5 11.48 11.48 0 0 0-2.47-6.83l7.33-4.53v.13a19.61 19.61 0 0 1 3.7 11.37Zm-8 36.4H57v1.84a6.29 6.29 0 0 1-1.14.11 2.68 2.68 0 0 1-2.56-1.34 5.39 5.39 0 0 1-.5-2.53v-4.84h-1.34v-1.71h1.33v-2h2.33v2h2v1.72h-2v5.15c.03 1.36.48 1.6 1.43 1.6ZM44.6 65.63a3 3 0 0 0-2.93 2.48v5.22h-2.32v-5.06a5.28 5.28 0 0 1 5.28-5.26 5.29 5.29 0 0 1 5.28 5.27v5.06h-2.34v-5.28a3 3 0 0 0-2.94-2.43ZM33.24 49.24l1.77-1.77a16.35 16.35 0 0 0 19.8 1.19l1.56 2a18.86 18.86 0 0 1-23.13-1.42Zm4.41 19.07a5.27 5.27 0 1 1-5.28-5.27 5.27 5.27 0 0 1 5.24 5.27Zm13.86-41.78a10.31 10.31 0 1 0 1.73 15.52l2 1.48a12.81 12.81 0 1 1-1.49-18.42Zm.91 8.51a6.77 6.77 0 1 1-6.76-6.78 6.78 6.78 0 0 1 6.72 6.78Zm-6.71-18.91a18.69 18.69 0 0 1 13.46 5.65l-2.19 1.36a16.35 16.35 0 0 0-20.14-1.9l-1.51-2a18.78 18.78 0 0 1 10.34-3.11ZM31.46 22.6a18.48 18.48 0 0 1 1.77-1.77L35 22.61a14.8 14.8 0 0 0-1.76 1.81l-1.77-1.78Zm-1.58 2.1 2 1.51a16.35 16.35 0 0 0 1.36 19.49l-1.78 1.78a18.83 18.83 0 0 1-1.62-22.78Zm-10.37 39a5.3 5.3 0 0 1 6.4 1l-1.41 1.75a3.22 3.22 0 0 0-2.44-1.19 3.08 3.08 0 0 0 0 6.16 3.17 3.17 0 0 0 2.47-1.22l1.42 1.74a5.33 5.33 0 0 1-3.89 1.69 5.29 5.29 0 0 1-2.54-9.92Zm-5.91-3.25a1.34 1.34 0 1 1-1.34 1.34 1.34 1.34 0 0 1 1.3-1.37Zm1.1 12.82h-2.24v-9h2.2Zm61.2 55.9H15.59a11.56 11.56 0 0 1-11.55-11.56V80.68a80.78 80.78 0 0 0 41.71 11.83 79.15 79.15 0 0 0 41.67-11.83v36.93a11.57 11.57 0 0 1-11.56 11.53Z" class="cls-2"/>
  <path d="M61.5 104.16a5.2 5.2 0 0 0-4 .58 5 5 0 0 0-1.85 1.95 5.84 5.84 0 0 0-.68 2.84 6 6 0 0 0 .68 2.88 5 5 0 0 0 1.85 2 5.37 5.37 0 0 0 5.37 0 5.13 5.13 0 0 0 1.84-2 6.16 6.16 0 0 0 .66-2.89 5.84 5.84 0 0 0-.66-2.81 5.17 5.17 0 0 0-3.21-2.55Zm1.28 7.16a3.2 3.2 0 0 1-1.06 1.22 2.83 2.83 0 0 1-3.08 0 3.09 3.09 0 0 1-1.07-1.25 4.17 4.17 0 0 1-.39-1.84 3.77 3.77 0 0 1 .39-1.75 3.11 3.11 0 0 1 1.06-1.19 2.65 2.65 0 0 1 1.52-.44 2.81 2.81 0 0 1 1.57.45 3 3 0 0 1 1.06 1.23 4.13 4.13 0 0 1 .38 1.8 4 4 0 0 1-.38 1.77Z" class="cls-2"/>
</svg>