<svg xmlns="http://www.w3.org/2000/svg" data-name="Isolation Mode" viewBox="0 0 47.9 47.89">
  <path fill="#0278b3" d="m27.83 41.99 3.28-3.36h-3.32Zm7.71-29.65V8.59a2.32 2.32 0 0 0-2.41-2.41h-5.47c.09.39.19.71.24 1s.23.53.65.52h3.17c1.73-.1 2.39.55 2.28 2.28v2.33Zm-13.92-7.7v-.72a2.27 2.27 0 0 0-2.31-2.36h-1.59a2.3 2.3 0 0 0-2.27 2.31v.77h-3c-1 0-1 0-1.26 1-.3 1.21-.6 2.41-.9 3.64h16.54c-.38-1.49-.73-3-1.12-4.41 0-.1-.26-.18-.41-.18h-2.19ZM9.43 6.18H4.11A2.32 2.32 0 0 0 1.57 8.7v35.12a2.31 2.31 0 0 0 2.54 2.51h28.9a2.33 2.33 0 0 0 2.55-2.56V30.93h-1.55V37.79a1 1 0 0 1-.26.65q-3 3.08-6.12 6.11a.89.89 0 0 1-.6.24H4.86a1.56 1.56 0 0 1-1.73-1.74V9.48a1.56 1.56 0 0 1 1.76-1.76h3.79c.33 0 .47-.1.52-.42s.13-.67.23-1.12Zm15.29 7.76v12.81a2.37 2.37 0 0 0 2.6 2.61h16.41a2.35 2.35 0 0 0 2.62-2.59V13.94ZM4.67 9.28v33.94h21.6v-6.15h6.14v-6.18h-5a5.55 5.55 0 0 1-1.07-.07 3.83 3.83 0 0 1-3.11-3.93V12.38h9.21V9.31h-4l.35 1.5H8.3c.12-.52.23-1 .35-1.5Zm29.1 38.61H3.28c-.1 0-.2-.08-.3-.1a3.88 3.88 0 0 1-2.75-2.48c-.09-.22-.15-.46-.23-.69V7.95a.34.34 0 0 0 .06-.12 3.86 3.86 0 0 1 4.16-3.19h5c.41 0 .64-.07.69-.52a7.86 7.86 0 0 1 .27-1.06h3.74a3.89 3.89 0 0 1 3.29-3 8.67 8.67 0 0 1 1.35 0c2.55 0 3.55.68 4.5 3v.06h3.7a10.81 10.81 0 0 1 .27 1.05c.06.39.24.51.64.51h5.71a3.68 3.68 0 0 1 3.48 2.94 5.81 5.81 0 0 1 .11 1.25v3.5H47.8v14.39a3.87 3.87 0 0 1-4.15 4.14h-6.67v12.94a3.84 3.84 0 0 1-2.51 3.79c-.16.11-.43.18-.7.26ZM14.7 40.16a6.93 6.93 0 1 0-4.93-2 6.94 6.94 0 0 0 4.93 2Zm0 1.55a8.5 8.5 0 1 1 8.51-8.5 8.51 8.51 0 0 1-8.54 8.5ZM9.29 22.39a.78.78 0 1 0-.76.78.77.77 0 0 0 .73-.78Zm10-3.07a.78.78 0 0 0-.76.78.78.78 0 0 0 1.55 0 .78.78 0 0 0-.79-.75Zm-5.4-4.65a.76.76 0 0 0-.76-.71.77.77 0 0 0-.78.7.75.75 0 0 0 .36.72.77.77 0 0 0 1.18-.71Zm-5.33 5.42c.32.12.48-.09.65-.37.63-1.09 1.28-2.17 1.94-3.25a.5.5 0 0 0 0-.62 2.3 2.3 0 0 1 3.08-3.21 2.34 2.34 0 0 1 1.15 2.58.64.64 0 0 0 .15.51c.79.73 1.6 1.44 2.42 2.13a.64.64 0 0 0 .52.07 2.31 2.31 0 1 1-.21 4.22 2.3 2.3 0 0 1-1.2-2.59.52.52 0 0 0-.19-.6c-.8-.67-1.57-1.38-2.37-2a.81.81 0 0 0-.52-.08 4.28 4.28 0 0 1-.91.14c-.36 0-.49.11-.65.38l-2 3.24a.51.51 0 0 0 0 .62 2.25 2.25 0 0 1-.33 2.83 2.31 2.31 0 1 1-1.56-3.95Zm25.41-1.54h1.54v7.69h1.6v-6.12h1.56v6.12h1.54v-9.21h1.55v9.21h1.54V15.47h1.53v12.3H26.31v-1.49h1.47v-5.39h1.57v5.34h1.53v-3h1.56v3h1.54ZM12.39 6.2h1.49v1.49h-1.49Zm10.82 0h1.46v1.5h-1.46Zm-3.92-2.35a.76.76 0 0 1-.21.55.8.8 0 0 1-.55.22.76.76 0 0 1-.76-.73.77.77 0 0 1 .74-.8.75.75 0 0 1 .78.76Zm-5.38 27.06v.69a.78.78 0 0 0 .79.85 2.32 2.32 0 0 1 2.29 2.53v2.07h-1.54v1.58h-1.54v-1.3a.74.74 0 0 0-.29-.49 2.48 2.48 0 0 1-1.26-2h1.4c.05 0 .14 0 .15.08.23.83.88.68 1.54.67a6.42 6.42 0 0 0 0-.88c-.06-.44-.37-.61-.78-.67a2.32 2.32 0 0 1-2.29-2.58v-2h1.55v-1.55h1.54v1.25a.53.53 0 0 0 .33.58 2.26 2.26 0 0 1 1.23 2h-1.39a.22.22 0 0 1-.16-.12c-.27-.86-.9-.73-1.56-.71Zm-4.63 1.57h1.5v1.47h-1.5Zm9.27 0h1.56v1.47H18.6Z"/>
</svg>