<svg xmlns="http://www.w3.org/2000/svg" data-name="Isolation Mode" viewBox="0 0 95.69 95.09">
  <path fill="#fff" d="M30.87 10.05a1 1 0 0 1 .11.57.9.9 0 0 1-.25.56 2.61 2.61 0 0 1-.72.51l-1.56.83-1-1.81 1.73-.92a1.54 1.54 0 0 1 1-.23 1 1 0 0 1 .62.49m52.82 16.06-4.22 2.15.6 1.18a2.94 2.94 0 0 0 .54.81 1.3 1.3 0 0 0 .54.35 2 2 0 0 0 .9 0 3.87 3.87 0 0 0 1.14-.4 2.89 2.89 0 0 0 1.19-1 1.55 1.55 0 0 0 .27-1 3 3 0 0 0-.37-1Zm1.72 2.8a2.11 2.11 0 0 0 0-1 4.61 4.61 0 0 0-.42-1l-1-1.9-5.53 2.81 1 2a4.19 4.19 0 0 0 .55.84 2.34 2.34 0 0 0 .61.52 2 2 0 0 0 .76.24 2.8 2.8 0 0 0 1 0A4.11 4.11 0 0 0 83.5 31a4 4 0 0 0 1.2-.89 2.5 2.5 0 0 0 .61-1.13m-8-8.92-2.47-2.39 1.32-1.36 2.64 2.54.51-.52-3.23-3.12-4.31 4.46 3.33 3.22.51-.53-2.74-2.64 1.47-1.52 2.46 2.38Zm-7.53-9.5-.71-.41-3.11 5.38.72.41Zm-7.44-3.6-4-1.22-1.81 5.93.78.24.83-2.69 2.78.85.22-.7-2.79-.86.56-1.83 3.22 1ZM50.68 4.71l-.82-.06-.43 6.19.82.06Zm-9.86 1.23 2-.32-.11-.72-4.86.77.11.72 2-.32.86 5.41.81-.13Zm-6.79 7.39-1.74-1a4.58 4.58 0 0 0-1-.41 2 2 0 0 0-.59 0 2.14 2.14 0 0 0 .9-1.13 1.52 1.52 0 0 0-.15-1.18 1.8 1.8 0 0 0-.66-.71 1.47 1.47 0 0 0-.89-.2 3.9 3.9 0 0 0-1.19.45l-2.43 1.29 2.91 5.48.73-.39-1.29-2.43.84-.45a1.65 1.65 0 0 1 .41-.18.94.94 0 0 1 .41 0 1.52 1.52 0 0 1 .56.17c.23.1.54.26.93.47l1.37.74Zm-9.53 6.18-.51-.53-2.74 2.65-1.47-1.52 2.45-2.4-.51-.53-2.46 2.39-1.32-1.37 2.63-2.55-.51-.52-3.22 3.12 4.31 4.46Zm-7.76 10.36a2.58 2.58 0 0 0 .27-1.7 2.78 2.78 0 0 0-1-1.53l-.56.64a2 2 0 0 1 .76 1.11 1.78 1.78 0 0 1-.18 1.22 1.87 1.87 0 0 1-.74.81 1.72 1.72 0 0 1-1.11.24 3.85 3.85 0 0 1-1.33-.43 3.71 3.71 0 0 1-1-.71 1.82 1.82 0 0 1-.51-1 2 2 0 0 1 .24-1.22 1.65 1.65 0 0 1 .74-.78 1.92 1.92 0 0 1 1.16-.11l.2-.81a2.42 2.42 0 0 0-1.59.19 2.49 2.49 0 0 0-1.13 1.18 2.91 2.91 0 0 0-.35 1.5 2.51 2.51 0 0 0 .5 1.44 3.58 3.58 0 0 0 1.34 1.1 4.24 4.24 0 0 0 1.63.46 2.56 2.56 0 0 0 1.49-.31 2.94 2.94 0 0 0 1.1-1.27m78.49 13.95c0 .27.4.49.3.49h-14.6c-.69-17.29-17.57-30.76-32.38-30.44a34.63 34.63 0 0 0-34.1 30.44H.21c-.11 0-.24-.23-.19-.49C3.42 22.43 17.77.25 48.28 0c31.6-.25 47.44 29.42 46.95 43.84M.03 48.71h14.36v-2.07H.03Zm81.31 0H95.7v-2.07H81.34ZM13.5 69.17l1 1.84 1.19-1.4c.36-.42.67-.76.91-1a7.12 7.12 0 0 1-1.19.29Zm73.86-6.34-5.82-2.12-.38 1 3.54 2.87.83.65h-1l-4.63-.13-.42 1.16 5.83 2.13.27-.75-5-1.8 5.57.12.26-.7-4.27-3.47 4.88 1.77Zm-2.57 6.53-.64-.36-1.84 3.33-1.85-1 1.66-3-.64-.35-1.66 3-1.66-.92 1.78-3.21-.64-.35-2.18 3.92 5.43 3Zm-4.17 6.69-4.37-3.29 1.23-1.64-.58-.44-3 3.93.58.44 1.23-1.63 4.37 3.29ZM77.4 79.4a1.76 1.76 0 0 0-.36-1.91 1.59 1.59 0 0 0-.81-.45 1.9 1.9 0 0 0-1 .12 10.15 10.15 0 0 0-1.25.69 3.28 3.28 0 0 1-1.19.57.69.69 0 0 1-.56-.22.78.78 0 0 1-.22-.71 1.72 1.72 0 0 1 .57-1 1.64 1.64 0 0 1 1-.55 1.32 1.32 0 0 1 .93.32l.51-.59a1.84 1.84 0 0 0-.9-.48 1.8 1.8 0 0 0-1 .11 3.17 3.17 0 0 0-1 .7 3.14 3.14 0 0 0-.65 1 1.63 1.63 0 0 0-.11 1 1.53 1.53 0 0 0 .43.8 1.37 1.37 0 0 0 .7.4 1.65 1.65 0 0 0 .88-.06 5.9 5.9 0 0 0 1.12-.57 9.9 9.9 0 0 1 1-.57 1.25 1.25 0 0 1 .66-.14.82.82 0 0 1 .48.24 1 1 0 0 1 .25.5 1.21 1.21 0 0 1-.11.65 2.41 2.41 0 0 1-.49.69 2.27 2.27 0 0 1-.8.54 1.4 1.4 0 0 1-.78.1 1.67 1.67 0 0 1-.73-.36l-.49.6a2.15 2.15 0 0 0 1 .55 1.93 1.93 0 0 0 1.16-.12 3.54 3.54 0 0 0 1.17-.82 2.84 2.84 0 0 0 .67-1m-5.05 4.5-1.58-2.09-.17-4.35-.77.57.14 2.18q0 .73.12 1.29c-.37-.16-.74-.32-1.14-.46l-2.1-.76-.79.6 4.06 1.42 1.58 2.1Zm-4.09 2.45a1.84 1.84 0 0 0 .4-1 1.73 1.73 0 0 0-.19-1 1.44 1.44 0 0 0-.64-.65 1.83 1.83 0 0 0-1-.19 8.52 8.52 0 0 0-1.4.3 3.39 3.39 0 0 1-1.3.19.7.7 0 0 1-.47-.37.87.87 0 0 1 0-.74 1.73 1.73 0 0 1 .83-.75 1.65 1.65 0 0 1 1.1-.25 1.31 1.31 0 0 1 .8.58l.66-.42a1.87 1.87 0 0 0-.73-.72 1.75 1.75 0 0 0-1-.19 3.07 3.07 0 0 0-1.18.37 3 3 0 0 0-.9.72 1.6 1.6 0 0 0-.4.92 1.57 1.57 0 0 0 .18.9 1.53 1.53 0 0 0 .55.58 1.7 1.7 0 0 0 .86.2 5.76 5.76 0 0 0 1.24-.22 6.83 6.83 0 0 1 1.12-.26 1.35 1.35 0 0 1 .66.06.8.8 0 0 1 .39.38.87.87 0 0 1 .09.55 1.17 1.17 0 0 1-.29.59 2.38 2.38 0 0 1-.67.51 2.29 2.29 0 0 1-.92.28 1.39 1.39 0 0 1-.78-.13 1.73 1.73 0 0 1-.59-.55l-.65.42a2 2 0 0 0 .83.82 2 2 0 0 0 1.13.24 3.64 3.64 0 0 0 1.36-.45 3 3 0 0 0 .94-.77m-14.5-.49 2-.32-.11-.72-4.86.77.12.72 2-.32.85 5.41.81-.13Zm-2.93 5.88-.22-6.2h-.78l.17 4.87-3.43-4.75h-.84l.21 6.21h.79l-.17-4.87 3.43 4.76Zm-5.44-6.13-4.45-.54-.76 6.15 4.6.57.09-.73-3.78-.46.25-2.1 3.41.42.09-.72-3.41-.42.23-1.89 3.64.45Zm-6.51 5.38 1.61-6-1.07-.29-2.55 3.79-.58.87c0-.25-.05-.57-.05-1l-.28-4.62-1.19-.32-1.61 6 .77.21 1.36-5.11.37 5.57.72.19 3.08-4.55-1.34 5Zm-6-5.43-3.09-1.5.84-1.71 3.29 1.61.32-.66-4-2-2.72 5.58 4.16 2 .32-.66-3.42-1.67.92-1.9 3.09 1.5Zm-7.41-.09a4.65 4.65 0 0 0 1.44.1l1.29-1.91-2.18-1.47-.41.61 1.51 1-.64 1a2.66 2.66 0 0 1-.89-.07 2.75 2.75 0 0 1-1-.41 2.59 2.59 0 0 1-.8-.88 1.72 1.72 0 0 1-.23-1.15 3 3 0 0 1 .54-1.31 3.46 3.46 0 0 1 .89-.9 2.35 2.35 0 0 1 .67-.29 1.8 1.8 0 0 1 .8 0 2.48 2.48 0 0 1 .91.4 2.21 2.21 0 0 1 .61.61 1.32 1.32 0 0 1 .25.69 2 2 0 0 1-.13.81l.73.25a2.62 2.62 0 0 0 .18-1.11 2.14 2.14 0 0 0-.37-1 3.42 3.42 0 0 0-.88-.86 3.59 3.59 0 0 0-1.58-.6 2.55 2.55 0 0 0-1.55.36 3.78 3.78 0 0 0-1.26 1.19 3.48 3.48 0 0 0-.61 1.58 2.53 2.53 0 0 0 .3 1.57 3.51 3.51 0 0 0 1.16 1.26 3.64 3.64 0 0 0 1.23.53m-4.18-2.65 2.26-6.31-.66-.6-5.92 3 .65.58 1.76-.94 1.93 1.74-.72 1.88Zm-4.73-4.47 4.89-3.82-.48-.62-3.84 3 1.83-5.57-.52-.66-4.89 3.82.49.62 3.84-3-1.83 5.57Zm-3.47-4.42 4.2-5.23-.43-.77-6.58.92.42.77 2-.32 1.26 2.27-1.29 1.54Zm-3.13-5.68 5.83-2.12-.38-1-4.56.08h-1c.17-.12.42-.32.76-.59l3.63-2.88-.43-1.17-5.83 2.13.27.74 5-1.81-4.35 3.5.25.69 5.5-.08-4.88 1.78Zm85.31-17.48c.1 0 .19.22.19.48-3.41 21.41-17.77 43.59-48.27 43.84-31.64.25-47.49-29.42-47-43.84 0-.27-.4-.48-.3-.48h14.67c.69 17.28 17.57 30.75 32.39 30.43a34.63 34.63 0 0 0 34.09-30.43h14.18M20.07 78.18l1.56 1.41.67-1.71c.2-.52.38-.93.53-1.25a9.6 9.6 0 0 1-1 .66Zm-2.3-39.26h59.88v-2H17.81Zm.1 21h59.75v-1.58H17.91Zm4-5.23h3V41.91h-3Zm20.6 0h3.15V46.8l1.45 1.63c.94 1.06 1.72 1.93 2.33 2.64s1.22 1.4 1.83 2.09l1.35 1.53h2.61V41.91h-3.1v7.53l-6.75-7.53H42.5Zm23.92-8.36v.57h1.41v4a4 4 0 0 0 .89 2.82 3.48 3.48 0 0 0 2.7 1 5.62 5.62 0 0 0 1-.08c.28-.06.54-.12.79-.2l.93-.31v-2.17c-.58.24-1 .4-1.19.47a2.57 2.57 0 0 1-.78.1 1.34 1.34 0 0 1-1-.3 1.27 1.27 0 0 1-.39-.75 7.07 7.07 0 0 1-.07-1.13v-3.36h3.39v-2.1h-3.39v-3.05h-.39Zm-5.07-1.79a5.28 5.28 0 0 0-2.58.64 4.6 4.6 0 0 0-1.85 1.81 5.66 5.66 0 0 0 0 5.36 4.66 4.66 0 0 0 1.9 1.78 6.17 6.17 0 0 0 2.73.66 7.54 7.54 0 0 0 4.56-1.3v-2a5.89 5.89 0 0 1-3.59 1.34 3.49 3.49 0 0 1-2.25-.68 2.8 2.8 0 0 1-.95-2h7a8.26 8.26 0 0 0-.22-1.92 5.47 5.47 0 0 0-.79-1.8 4 4 0 0 0-1.55-1.36 5.16 5.16 0 0 0-2.44-.52m.19 1.87a1.9 1.9 0 0 1 1.47.61 2.52 2.52 0 0 1 .65 1.51h-4.23a2.49 2.49 0 0 1 .69-1.52 1.9 1.9 0 0 1 1.42-.6M39.04 47.9h-1l.8.59-.32.95.86-.58.88.58-.32-.95.78-.59h-1l-.37-1Zm-.67 2.81h-1l.8.58-.33.94.88-.57.86.57-.32-.94.78-.58h-1l-.35-1Zm-2.21 2.18h-1l.78.59-.32.94.88-.57.86.57-.32-.94.79-.59h-.95l-.38-1Zm-1.95-2.64h-1l.77.59-.32.94.9-.57.84.57-.3-.94.8-.59h-1l-.34-1Zm3.7 5.07h-1l.77.61-.33.94.91-.58.83.58-.29-.94.79-.61h-1l-.33-1Zm-4.88-1.39h-1l.78.55-.29 1 .85-.58.86.58-.29-1 .77-.55h-1l-.38-1.05Zm-2.87-1h-1l.77.58-.33.94.89-.56.86.56-.31-.94.77-.58h-1l-.34-1Zm-2.13-2.16h-1l.79.59-.29.94.84-.57.9.57-.32-.94.76-.59h-1l-.38-1Zm-.7-2.9h-1l.77.56-.3 1 .88-.54.86.54-.29-1 .76-.56h-1l-.36-1Zm.81-2.92h-1l.77.61-.3.94.87-.55.86.55-.31-.94.79-.61h-1l-.35-1Zm2-2.19h-1l.76.59-.28.94.86-.57.84.57-.27-.94.77-.59h-1l-.36-1Zm3-.73h-1l.78.62-.29.93.84-.57.87.57-.29-.93.76-.62h-.95l-.39-1Zm3.14.64h-1l.77.59-.31.94.88-.57.86.57-.32-.94.78-.59h-1l-.34-1Zm1.78 2.24h-1l.77.61-.29.94.86-.58.85.58-.29-.94.79-.61h-1l-.37-1Z"/>
</svg>