<svg xmlns="http://www.w3.org/2000/svg" xml:space="preserve" fill-rule="evenodd" clip-rule="evenodd" image-rendering="optimizeQuality" shape-rendering="geometricPrecision" text-rendering="geometricPrecision" viewBox="0 0 200 195.462">
  <defs>
    <style>
      .fil6{fill:#fff;fill-rule:nonzero}
    </style>
  </defs>
  <g id="Capa_x0020_1">
    <g id="_100826544">
      <path id="_46770320" fill="none" d="M0 0h200v195.462H0z"/>
      <path id="_47405448" fill="#0193cf" d="M90.274 10.057h103.225v95.949H90.274z"/>
      <path id="_47487656" fill="#e31351" d="M4.702 77.081h116.693v108.468H4.702z"/>
      <circle id="_47487536" cx="64.658" cy="63.934" r="60.032" fill="#ffc324"/>
      <circle id="_47499216" cx="114.035" cy="112.163" r="79.672" fill="#6fb43f"/>
      <circle id="_47462384" cx="79.111" cy="133.151" r="52.78" fill="#a51984"/>
      <path id="_47478936" d="M34.78 141.346c1.648-.076 3.314 1.259 3.743 1.479l1.89-6.016c-4.34-2.593-15.83-3.236-16.643 8.05-.753 10.475 11.331 12.661 16.952 8.302l-2.38-5.606c-.512.188-1.978 1.058-3.684 1.058-2.36 0-3.58-1.876-3.58-3.755 0-1.906 1.258-3.4 3.703-3.512z" class="fil6"/>
      <path id="_48527528" d="M61.948 144.831c0-4.913-3.582-9.826-10.747-9.826-7.166 0-10.748 4.913-10.748 9.826s3.582 9.83 10.748 9.83c7.165 0 10.747-4.917 10.747-9.83zm-14.245 0c0-2.04 1.166-4.108 3.498-4.108 2.331 0 3.497 2.068 3.497 4.108 0 2.04-1.166 4.108-3.497 4.108-2.332 0-3.498-2.068-3.498-4.108z" class="fil6"/>
      <path id="_100842568" d="M70.259 135.263h-6.511v19.168h12.823v-4.805h-6.312z" class="fil6"/>
      <path id="_100809360" d="M99.115 144.958c0-4.952-3.583-9.905-10.748-9.905-7.165 0-10.748 4.953-10.748 9.905 0 4.953 3.583 9.91 10.748 9.91 7.165 0 10.748-4.957 10.748-9.91zm-14.245 0c0-2.057 1.165-4.14 3.497-4.14 2.331 0 3.497 2.083 3.497 4.14 0 2.057-1.166 4.14-3.497 4.14-2.332 0-3.497-2.083-3.497-4.14z" class="fil6"/>
      <path id="_100809504" d="M118.548 154.431h6.539l-3.696-19.168h-6.568l-2.559 8.456-2.474-8.456h-6.681l-3.81 19.168h6.539l1.763-9.691 2.929 9.691h3.696l2.673-9.691z" class="fil6"/>
      <path id="_48661416" d="M136.876 135.301h-9.951v19.169h10.804c4.18 0 5.924-2.148 5.924-5.558 0-2.658-1.813-4.147-3.974-4.577 1.422-.349 2.912-1.57 2.912-3.987 0-2.953-2.275-5.047-5.715-5.047zm-3.412 4.108h1.08c.939 0 1.507.536 1.507 1.396 0 .859-.54 1.396-1.506 1.396h-1.081v-2.792zm0 7.329h1.678c.938 0 1.62.456 1.62 1.369s-.682 1.396-1.62 1.396h-1.678v-2.765z" class="fil6"/>
      <path id="_47479168" d="M152.493 135.317h-6.54v19.168h6.54z" class="fil6"/>
      <path id="_48453728" d="m160.898 135.427-6.426 18.844h6.454l.996-2.719h5.544l.995 2.719h6.426l-6.426-18.844h-7.563zm3.782 7.944 1.336 3.985h-2.73l1.394-3.985z" class="fil6"/>
      <path id="_48489872" d="M68.994 68.06c6.747-.311 13.98 5.973 15.738 6.874l8.269-24.641C74.896 36.318 27.219 36.22 23.893 82.446c-3.085 42.912 46.414 51.866 69.437 34.01l-8.224-23.648c-2.096.77-9.995 6.892-16.86 6.077-9.598-1.14-15.601-8.761-15.601-16.46 0-7.807 6.334-13.904 16.349-14.365z" class="fil6"/>
      <path id="_48454200" d="M175.952 83.72c0-20.023-14.32-40.047-42.958-40.047-28.639 0-42.958 20.024-42.958 40.047 0 20.024 14.32 40.065 42.958 40.065 28.638 0 42.958-20.041 42.958-40.065zm-56.936 0c0-8.316 4.659-16.74 13.978-16.74 9.319 0 13.978 8.424 13.978 16.74 0 8.316-4.66 16.741-13.978 16.741-9.319 0-13.978-8.425-13.978-16.74z" class="fil6"/>
    </g>
  </g>
</svg>