<svg xmlns="http://www.w3.org/2000/svg" data-name="Isolation Mode" viewBox="0 0 58 44.01">
  <path fill="#0378b3" d="M23.22 2.24v11.39l11.55.21V2.24Zm11.56 39.44V30.24H23.22v11.51Zm20.94-11.57H44.15V41.5h11.56ZM13.85 41.68V30.24H2.29v11.52Zm44.16.44a2.64 2.64 0 0 1-2.93 1.84c-3.5-.05-7 0-10.48 0-1.86 0-2.71-.85-2.71-2.69V30.56c0-1.87.86-2.71 2.75-2.71h4.15v-4.8H30.16v4.8h4.62a2.19 2.19 0 0 1 2.23 2.18v11.72a2.12 2.12 0 0 1-.63 1.54 2.17 2.17 0 0 1-1.54.64H23.12a2.17 2.17 0 0 1-2.18-2.17V30.04a2.2 2.2 0 0 1 2.28-2.19h4.64v-4.79H9.22v4.78h4.2a3.85 3.85 0 0 1 1 .1 2.17 2.17 0 0 1 1.67 2 4.35 4.35 0 0 1 0 .51v10.82a2.33 2.33 0 0 1-2.64 2.64H2.65C.87 43.91 0 43.03 0 41.22V30.46a2.34 2.34 0 0 1 2.64-2.65h4.29v-5.57c0-1.1.35-1.45 1.46-1.45h19.46v-4.72h-4.44a2.27 2.27 0 0 1-2.45-2.43V2.37a2.22 2.22 0 0 1 2.35-2.4h11.38a2.23 2.23 0 0 1 2.35 2.36V13.6a2.24 2.24 0 0 1-2.36 2.35h-4.46v4.83h19.4c1.14 0 1.49.35 1.49 1.48v5.57h.92c1 0 2 .06 2.94 0a2.75 2.75 0 0 1 3.08 1.83Z"/>
</svg>