<svg xmlns="http://www.w3.org/2000/svg" width="46.863" height="46.939" viewBox="0 0 46.863 46.939">
  <g id="Capa_1" data-name="Capa 1" transform="translate(0 0)">
    <path id="Trazado_1345" data-name="Trazado 1345" d="M32.174,33.187a16.653,16.653,0,0,1-11.423-2.869l-2.977,3.035.739.578c-.165.2-.236.3-.319.378Q12.536,39.979,6.877,45.655a3.961,3.961,0,0,1-5.823-5.373c.592-.652,1.236-1.261,1.858-1.882q4.794-4.8,9.587-9.6c.108-.11.225-.213.358-.339l.682.647,3.012-3.017a16.6,16.6,0,0,1-2.819-11.419A8.247,8.247,0,0,1,5,15.935,7.991,7.991,0,0,1,.511,11.141,8.318,8.318,0,1,1,16.564,7.116C20.236,2.253,25.06-.262,31.156.033A15.979,15.979,0,0,1,42.647,5.6,16.678,16.678,0,0,1,39.73,30.335,8.3,8.3,0,0,1,46.237,35.5a7.943,7.943,0,0,1-.155,6.56,8.306,8.306,0,0,1-11.4,3.911A8.4,8.4,0,0,1,32.174,33.187ZM30.209,1.5A15.138,15.138,0,1,0,45.335,16.612,15.142,15.142,0,0,0,30.209,1.5Zm1.53,37.076a6.812,6.812,0,1,0,2-4.815,6.8,6.8,0,0,0-2,4.815ZM13.971,36.385,10.53,32.927c-.092.087-.218.2-.338.323Q7.22,36.226,4.249,39.2c-.689.691-1.4,1.366-2.062,2.08a2.435,2.435,0,0,0,.98,3.976,2.4,2.4,0,0,0,2.63-.67l7.979-8C13.853,36.518,13.923,36.436,13.971,36.385Zm0-31.805A6.744,6.744,0,0,0,4.9,2.437,6.612,6.612,0,0,0,1.889,10.27c.178-.3.363-.571.5-.865a.549.549,0,0,1,.6-.332c.486.025.975.011,1.463.006A4.9,4.9,0,0,0,6.4,8.988c.535-.262.812-.968,1.2-1.48.363-.473.631-1.135,1.118-1.369a4.827,4.827,0,0,1,1.808-.087.861.861,0,0,1,.189,0A2.952,2.952,0,0,0,13.9,4.687Zm5.434,24.794-1.832-1.823-2.721,2.727L16.672,32.1ZM10.6,14.749c.416-.2.747-.378,1.09-.525a.639.639,0,0,0,.415-.691c-.02-1.779-.009-3.559-.009-5.339V7.589H10.6ZM6.034,10.586a7.485,7.485,0,0,1-1.319-.013,1.589,1.589,0,0,0-1.941,1.135.506.506,0,0,0,.038.588A6.822,6.822,0,0,0,5.69,14.58a3.3,3.3,0,0,0,.344.1ZM9.062,8.167a3.83,3.83,0,0,0-1.5,3.5v3.406h1.5Zm2.7,23.589,3.369,3.369,1.119-1.144c-1.062-1.065-2.144-2.155-3.239-3.243a1.474,1.474,0,0,0-.151-.116Zm1.851-19.222a6.567,6.567,0,0,0,1.08-6.441A2.05,2.05,0,0,0,13.6,8.282a2.538,2.538,0,0,1,0,.518Z" transform="translate(-0.008 0.011)" fill="#0278b3"/>
    <path id="Trazado_1346" data-name="Trazado 1346" d="M131.779,37.572a13.6,13.6,0,1,1,13.557,13.674A13.635,13.635,0,0,1,131.779,37.572Zm25.683.068a12.086,12.086,0,1,0-12.128,12.094A12.114,12.114,0,0,0,157.463,37.641Z" transform="translate(-115.157 -20.97)" fill="#0278b3"/>
    <path id="Trazado_1347" data-name="Trazado 1347" d="M285.257,273.389v1.46h-1.5v-1.466h-2.249v-2.271h1.458c.013.221.026.448.042.722.79,0,1.572.03,2.35-.011a.683.683,0,0,0,.646-.746.724.724,0,0,0-.711-.737c-.439-.024-.883-.009-1.321-.009a2.279,2.279,0,1,1-.354-4.544.834.834,0,0,0,.115-.037v-1.43h1.514v1.457h2.242v2.257h-1.457c-.011-.218-.023-.433-.035-.7-.806,0-1.617-.038-2.422.016a.649.649,0,0,0-.574.751.7.7,0,0,0,.684.711c.438.035.883.013,1.321.013a2.306,2.306,0,0,1,2.512,2.093A2.337,2.337,0,0,1,285.257,273.389Z" transform="translate(-245.974 -230.976)" fill="#0278b3"/>
    <path id="Trazado_1348" data-name="Trazado 1348" d="M25.445,336.772A.757.757,0,1,1,24.71,336,.757.757,0,0,1,25.445,336.772Z" transform="translate(-20.914 -293.611)" fill="#0278b3"/>
  </g>
</svg>
