<svg xmlns="http://www.w3.org/2000/svg" viewBox="0 0 63.392 55.114">
  <g fill="#0278b3" data-name="Capa 1">
    <path d="M0 13.069c.093-.271.175-.548.281-.814a4.056 4.056 0 0 1 4.094-2.494h54.716a4 4 0 0 1 4.3 4.336V26.29a3.749 3.749 0 0 1-3.27 4l-21.947 4.635c-.215.046-.435.073-.741.122 0-1.158-.053-2.248.012-3.332.121-2.074-.605-2.89-2.782-2.812-2.245.083-4.5.015-6.746.018a1.863 1.863 0 0 0-2.083 2.05c-.01 1.462 0 2.925 0 4.485-1.158-.261-2.26-.5-3.351-.753-6.361-1.452-12.723-2.954-19.092-4.369A4.251 4.251 0 0 1 0 27.317Z" data-name="Trazado 1031"/>
    <path d="m3.093 34.055 22.744 5.219v3.021a1.923 1.923 0 0 0 2.185 2.212h7.244a1.913 1.913 0 0 0 2.17-2.164v-3.464L60.18 34.07v14.909a5.8 5.8 0 0 1-6.132 6.137H9.228a5.81 5.81 0 0 1-6.135-6.134V34.055Z" data-name="Trazado 1032"/>
    <path d="M40.402 6.025h-3.681V3.762h-10.13v2.247h-3.72v-2.58c0-.5-.008-.993 0-1.489a1.829 1.829 0 0 1 1.95-1.931c1.505-.018 3.012 0 4.519 0h8.852c1.514 0 2.2.68 2.2 2.182.013 1.253.01 2.51.01 3.834Z" data-name="Trazado 1033"/>
    <path d="M29.577 32.659h4.109v8.106h-4.109Z" data-name="Trazado 1034"/>
  </g>
</svg>