<svg xmlns="http://www.w3.org/2000/svg" viewBox="0 0 74.174 69.413">
  <g fill="#0278b3" data-name="Capa 1">
    <path d="M0 10.272a2.761 2.761 0 0 1 2.919-1.611c3.09.066 6.181.021 9.271.021h.848c0-2.154-.041-4.249.027-6.331a2.582 2.582 0 0 1 .6-1.617 2.586 2.586 0 0 1 1.651-.7c5.721-.048 11.442-.035 17.161-.035a2.159 2.159 0 0 1 2.286 2.27c.014 2.1 0 4.191 0 6.4h10.554a2.211 2.211 0 0 1 2.483 2.516 41.456 41.456 0 0 1-.155 5.19 6.222 6.222 0 0 1-5.945 5.283c-3.691.089-7.384.023-11.077.023a.952.952 0 0 1-.207-.079c0-.635.01-1.3 0-1.97a2.175 2.175 0 0 0-2.277-2.273q-4.236-.017-8.472 0a2.167 2.167 0 0 0-2.285 2.266c-.01.649 0 1.3 0 2.069H6.975a6.511 6.511 0 0 1-6.867-5.375A1.932 1.932 0 0 0 0 16.056Zm17.416-1.64h12.941v-4.25H17.416Z" data-name="Trazado 1026"/>
    <path d="M74.17 63.48c-.062.095-.131.193-.183.286a2.2 2.2 0 0 1-2.439 1.255 2.175 2.175 0 0 1-1.719-2.208V48.785c-.442.166-.821.3-1.194.45-5.667 2.256-11.322 4.5-16.97 6.78a3.45 3.45 0 0 1-2.778 0c-6.944-2.8-13.907-5.563-20.86-8.34-1.427-.579-2.094-1.864-1.422-3.019a3.222 3.222 0 0 1 1.493-1.244c6.27-2.548 12.555-5.041 18.846-7.55.693-.276 1.4-.525 2.076-.84a2.994 2.994 0 0 1 2.511 0q10.488 4.213 20.994 8.383a3 3 0 0 1 1.65 1.711Z" data-name="Trazado 1027"/>
    <path d="M0 23.864a11.671 11.671 0 0 0 5.323 2.084c.5.048 1.01.077 1.516.079q5.07.012 10.14 0h.773c1.2 2.7 3.181 4.313 6.156 4.313s4.96-1.6 6.15-4.313h5.988c1.665 0 3.332-.012 5 0a11.064 11.064 0 0 0 6.7-2.171c.025.24.06.415.06.579 0 1.9-.012 3.807.012 5.711a.74.74 0 0 1-.55.838c-7.06 2.783-14.1 5.6-21.164 8.394a6.71 6.71 0 0 0-3.977 3.987h-.877c-6.109 0-12.217-.027-18.326.019A2.781 2.781 0 0 1 0 41.777Z" data-name="Trazado 1028"/>
    <path d="M65.481 55.198c0 4.114.017 8.112-.01 12.112a2.123 2.123 0 0 1-2.158 2.094c-.651.019-1.3 0-1.955 0H37.664c-1.8 0-2.613-.811-2.613-2.6v-11.61c.311.112.535.184.753.27 3.938 1.568 7.881 3.129 11.813 4.713a6.722 6.722 0 0 0 5.215.033q5.939-2.376 11.885-4.732c.218-.087.44-.164.764-.28Z" data-name="Trazado 1029"/>
    <path d="M21.731 21.727h4.282a17.412 17.412 0 0 1-.027 2.619 2.083 2.083 0 0 1-2.277 1.677 2.183 2.183 0 0 1-1.974-2.125c-.023-.693-.004-1.391-.004-2.171Z" data-name="Trazado 1030"/>
  </g>
</svg>