<svg xmlns="http://www.w3.org/2000/svg" data-name="Capa 1" viewBox="0 0 27.297 48.899">
  <path fill="#0278b3" d="M25.785 0a2 2 0 0 1 1.452 2.606 15.352 15.352 0 0 1-5.375 9.911 12.884 12.884 0 0 1-4.1 2.289c-.26.09-.423.184-.42.518.022 4.153-.05 8.306.059 12.459.117 4.421.4 8.838.616 13.257.092 1.928.185 3.846.265 5.77a1.9 1.9 0 1 1-3.779.317c-.421-3.457-.825-6.918-1.234-10.375q-.383-3.221-.758-6.444c-.028-.251-.1-.365-.374-.365s-.354.11-.383.359q-.378 3.325-.777 6.64c-.4 3.411-.8 6.823-1.222 10.234a1.886 1.886 0 0 1-2.041 1.719 1.857 1.857 0 0 1-1.725-2.029c.136-3.291.3-6.581.454-9.872.105-2.256.218-4.513.326-6.771v-.347c-1.127.179-1.761-.531-2.4-1.264a26.938 26.938 0 0 1-3.391-4.718 7.8 7.8 0 0 1 1.465-9.389 11.186 11.186 0 0 1 6.707-3.223c1.587-.225 3.205-.212 4.8-.387a10.1 10.1 0 0 0 7.917-5.16 13.294 13.294 0 0 0 1.584-3.816A2.373 2.373 0 0 1 25.021 0ZM6.884 16.868A4.679 4.679 0 0 0 4.789 19a2.727 2.727 0 0 0-.135 2.564c.51 1 1.046 1.993 1.587 2.98.162.3.381.556.644.933Z" data-name="Trazado 1444"/>
  <path fill="#0278b3" d="M12.12 10.039a4.254 4.254 0 1 1 0-8.508 4.254 4.254 0 1 1 0 8.508Z" data-name="Trazado 1445"/>
</svg>