<svg xmlns="http://www.w3.org/2000/svg" data-name="Layer 1" viewBox="0 0 35.92 67.74">
  <path fill="#0378b3" d="m32.58 35.46-2.87-1V1.28A1.28 1.28 0 0 0 28.43 0H1.28A1.28 1.28 0 0 0 0 1.28v40.53a1.28 1.28 0 0 0 1.28 1.28h3.06a21.63 21.63 0 0 0 1.23 2.49 12.5 12.5 0 0 0 1.72 2.46 40.59 40.59 0 0 1-1.27 5.31 7.37 7.37 0 0 0 .95 6.35l1 1.53a9.46 9.46 0 0 1 1.65 5.35 1.14 1.14 0 1 0 2.28 0 11.71 11.71 0 0 0-2-6.63l-1-1.54a5.08 5.08 0 0 1-.66-4.38 42.49 42.49 0 0 0 1.93-12.66v-7.84a3.91 3.91 0 1 1 7.82 0v7.63a19.61 19.61 0 0 0 1.93 8.45 1.145 1.145 0 0 0 2.06-1 17.47 17.47 0 0 1-1.59-5.53h8.05a1.28 1.28 0 0 0 1.28-1.28v-1.86a9 9 0 0 1 2 7.55L26.26 65.6a1.15 1.15 0 1 0 2.19.67l7.3-24.85a5 5 0 0 0-3.17-5.96ZM7.7 44.72q-.47-.8-.87-1.62h1c-.05.54-.08 1.08-.13 1.62Zm19.74-3.91h-7.2v-7.28a6.2 6.2 0 0 0-12.4 0v7.28H2.29V2.28h25.15Zm6.11 0-.2.74a11.11 11.11 0 0 0-2.81-4.06l-.63-.57 1.94.67a2.67 2.67 0 0 1 1.69 3.22ZM16.3 31.97h-4.51a1.06 1.06 0 0 0-1.05 1.06v1.11a3.31 3.31 0 1 0 6.61 0v-1.13A1 1 0 0 0 16.29 32Zm-2.24 3.38a1.2 1.2 0 0 1-1.2-1.2v-.06h2.39v.07a1.19 1.19 0 0 1-1.2 1.22ZM4.77 11.24a2 2 0 0 1 2.18-1.85h15.12a1.87 1.87 0 1 1 0 3.7H6.94a2 2 0 0 1-2.18-1.82Zm0 7.05a2 2 0 0 1 2.18-1.85h15.12a1.87 1.87 0 1 1 0 3.69H6.94a2 2 0 0 1-2.18-1.81Z"/>
</svg>
