<svg xmlns="http://www.w3.org/2000/svg" data-name="Isolation Mode" viewBox="0 0 53.23 61.05">
  <path fill="#0278b3" d="M45.61 22.29c-1.64-9.68-11.55-16.57-21.7-15.1-8.73 1.26-15.3 7.69-16.42 16a18.12 18.12 0 0 0 9.75 18.26.84.84 0 0 1 .53.87c0 3.43-.07 6.87 0 10.31a8.11 8.11 0 0 0 5.08 7.54 19.3 19.3 0 0 0 2.77.83h2a.92.92 0 0 1 .23-.09c4.71-.82 7.64-4.15 7.64-8.71v-9.95a.71.71 0 0 1 .44-.74c7.31-3.92 11.01-11.35 9.68-19.22ZM26.92 57.16a4.89 4.89 0 0 1-4.17-1.82h7.73a4.72 4.72 0 0 1-3.56 1.82Zm4.53-5.7h-9.67V49.9h9.67Zm10.36-24.61c-.61 5.38-3.57 9.31-8.65 11.72a2.45 2.45 0 0 0-1.69 2.54c.07 1.62 0 3.25 0 4.9h-2.83a4.73 4.73 0 0 1 0-.52v-9a1.22 1.22 0 0 1 .33-.76c1.22-1.2 2.47-2.36 3.7-3.55a1.83 1.83 0 0 0 .12-2.77 2.07 2.07 0 0 0-2.94.09 7 7 0 0 1-1.22 1v-3.35a1.89 1.89 0 0 0-.93-1.8 2.07 2.07 0 0 0-2.11 0 1.91 1.91 0 0 0-1 1.79v3.5c-.5-.48-.9-.87-1.33-1.25a2 2 0 0 0-2.08-.42 1.82 1.82 0 0 0-1.28 1.49 1.89 1.89 0 0 0 .65 1.72l3.75 3.58a.86.86 0 0 1 .29.48V46h-2.87v-5.17a2.12 2.12 0 0 0-1.44-2.15 14.53 14.53 0 0 1-8.34-9.14c-2.74-8.64 3.45-17.6 12.85-18.63 9.76-1.03 18.07 6.72 17.02 15.98ZM24.63 3.55a17.61 17.61 0 0 1 0-1.78 2.12 2.12 0 0 1 1.49-1.81h1a2.21 2.21 0 0 1 1.5 2.52v1.07a2 2 0 0 1-4 0Zm-15.9 33.1A3.37 3.37 0 0 1 8 37.78a8.47 8.47 0 0 1-2.08 1.16 2 2 0 0 1-2.42-.93 1.8 1.8 0 0 1 .6-2.38 12.46 12.46 0 0 1 1.83-1 2 2 0 0 1 2.8 2.06Zm3.81-30.76a1.86 1.86 0 0 1 .81-2.46 2.06 2.06 0 0 1 2.64.55 14.36 14.36 0 0 1 .92 1.55 1.93 1.93 0 0 1-1.85 2.77 2 2 0 0 1-1.62-.91c-.32-.45-.63-.95-.9-1.46Zm23.69-.06a11 11 0 0 1 1.22-2.06 2 2 0 0 1 3.48 1.45 5.3 5.3 0 0 1-1.83 2.8 1.91 1.91 0 0 1-2.21-.13 1.77 1.77 0 0 1-.66-2.02Zm13.72 31.33A2 2 0 0 1 47.19 39a12.57 12.57 0 0 1-1.84-1 1.85 1.85 0 0 1-.56-2.52 2 2 0 0 1 2.58-.74 18.09 18.09 0 0 1 1.73 1 1.82 1.82 0 0 1 .85 1.42ZM3.58 14.68a1.76 1.76 0 0 1 .23-2.26 2.08 2.08 0 0 1 2.33-.43 16 16 0 0 1 1.72 1 1.84 1.84 0 0 1 .76 2.15 2.12 2.12 0 0 1-2.16 1.31 5.53 5.53 0 0 1-2.88-1.82Zm41 .45a1.82 1.82 0 0 1 .72-2.16 14.22 14.22 0 0 1 1.84-1 2 2 0 0 1 2.31.53 1.72 1.72 0 0 1 .15 2.21 5.59 5.59 0 0 1-2.86 1.69 2.1 2.1 0 0 1-2.11-1.32Zm8.6 10.58a1.93 1.93 0 0 1-1.83 1.66h-1.94a2 2 0 0 1-1.87-1.75 1.85 1.85 0 0 1 1.54-2 10.28 10.28 0 0 1 2.6 0 1.8 1.8 0 0 1 1.55 2.04ZM3.72 27.36H1.79a1.94 1.94 0 0 1-1.83-1.67 1.83 1.83 0 0 1 1.49-2 10.28 10.28 0 0 1 2.6 0 1.81 1.81 0 0 1 1.54 1.95 2 2 0 0 1-1.82 1.67Z"/>
</svg>