<svg xmlns="http://www.w3.org/2000/svg" data-name="Layer 1" viewBox="0 0 28.9 60.59">
  <path fill="#0378b3" fill-rule="evenodd" d="M27.68 16.01a4.6 4.6 0 0 0-2.86-.95 5 5 0 0 0-1.57.26V5.75c0-1.71-1.72-3.1-3.83-3.1a4.5 4.5 0 0 0-1.39.21C17.88 1.26 16.22 0 14.21 0s-3.84 1.39-3.84 3.1v.38a4.81 4.81 0 0 0-1.36-.2c-2.12 0-3.84 1.39-3.84 3.1v1.36a4.88 4.88 0 0 0-1.37-.2 4.26 4.26 0 0 0-2.71.91 2.79 2.79 0 0 0-1.13 2.19v14.32a12 12 0 0 0 1.79 6.23 11.85 11.85 0 0 1 1.83 6.16v5.14H1.19a1.13 1.13 0 0 0-1.23 1v11.56a1.13 1.13 0 0 0 1.23 1h.73v3.53a1.27 1.27 0 0 0 2.47 0v-3.53h16.06v3.53a1.27 1.27 0 0 0 2.47 0v-3.53h.76a1.13 1.13 0 0 0 1.23-1V43.52a1.13 1.13 0 0 0-1.23-1h-2.39v-5.48a4.81 4.81 0 0 1 2.8-4.13 8.41 8.41 0 0 0 4.74-7.22v-7.35a3 3 0 0 0-1.15-2.33Zm-5.25 28.5v9.57h-20v-9.57ZM6.79 42.07c0-1.53 1.55-2.79 3.46-2.79s3.45 1.26 3.45 2.79a2.22 2.22 0 0 1-.05.45H6.88a2.3 2.3 0 0 1 0-.45Zm9-1.68h3v2.13h-2.61a4 4 0 0 0-.35-2.13Zm7-9.17a6.73 6.73 0 0 0-3.9 5.79v1.36H14.1a7 7 0 0 0-8 .29v-1.31a13.43 13.43 0 0 0-2.07-7v-.06a10.38 10.38 0 0 1-1.52-5.32V10.64a1 1 0 0 1 .4-.78 1.54 1.54 0 0 1 1-.33 1.27 1.27 0 0 1 1.37 1.11v9.2a1.26 1.26 0 0 0 2.47 0V6.38a1.39 1.39 0 0 1 2.73 0v12.58a1.26 1.26 0 0 0 2.47 0V3.1a1.4 1.4 0 0 1 2.74 0v16.55a1.27 1.27 0 0 0 2.47 0V5.75a1.39 1.39 0 0 1 2.73 0v18.4a1.26 1.26 0 0 0 2.47 0v-5.83a1.45 1.45 0 0 1 1.57-1.27 1.86 1.86 0 0 1 1.12.37 1.18 1.18 0 0 1 .46.9v7.35a6.47 6.47 0 0 1-3.71 5.57ZM4.68 46.75A1.24 1.24 0 1 1 5.91 48a1.24 1.24 0 0 1-1.23-1.25Z"/>
</svg>
