<svg xmlns="http://www.w3.org/2000/svg" data-name="Layer 1" viewBox="0 0 45.97 50.68">
  <path fill="#0378b3" fill-rule="evenodd" d="m45.59 22.55-6.87-6.86a6.12 6.12 0 0 0-8.47-8.45L23.37.37a1.26 1.26 0 0 0-1.64-.13l-6 4.35a1.27 1.27 0 0 0-.28 1.77.64.64 0 0 0 .13.15l2.09 2.09L.99 33.68a1.26 1.26 0 0 0 .15 1.59l1.15 1.15-1.93 1.92a1.27 1.27 0 0 0 0 1.79l5.56 5.54a1.26 1.26 0 0 0 1.79 0l1.89-1.89.95 1a1.26 1.26 0 0 0 1.6.16l2.53-1.67 6 7a1.27 1.27 0 0 0 1.52.32l5-2.44a1.27 1.27 0 0 0 .58-1.7l-.05-.1-1.26-2.07 2.41-2.41a1.24 1.24 0 0 0 .23-1.47l-2.56-5 10.82-7.17 2.09 2.09a1.29 1.29 0 0 0 1.8 0l.12-.15 4.36-6a1.26 1.26 0 0 0-.15-1.62ZM36.85 10.9a3.68 3.68 0 0 1 .31 1.46 3.46 3.46 0 0 1-.32 1.46l-4.73-4.67a3.59 3.59 0 0 1 4.74 1.75Zm-30 32.09-3.76-3.75 1-1 3.74 3.77Zm15.12 4.85-5.12-6 3.69-2.45 4.31 7.07Zm3.15-5.82-2.46-4.05 1.77-1.17 2 3.9Zm-13.46.19-8-8 15.83-23.8 16 16Zm28.56-14.74L18.46 5.77l3.9-2.84 20.7 20.65Z"/>
</svg>
