<svg xmlns="http://www.w3.org/2000/svg" data-name="Capa 1" viewBox="0 0 55.745 54.166">
  <path fill="#0378b3" d="M14.03 12.507h10.175a10.513 10.513 0 0 1 3.21-9.764A9.858 9.858 0 0 1 34.62.003a9.983 9.983 0 0 1 7.87 3.909 10.5 10.5 0 0 1 2.1 8.62h7.337c.987 0 1.215.234 1.215 1.23v34.922c.574 0 1.093-.01 1.611 0 .714.02.984.289.99 1q.013 1.74 0 3.481c0 .736-.274.99-1.029 1H.919c-.613-.026-.9-.291-.909-.9q-.02-1.823-.005-3.645c0-.639.282-.91.934-.936.5-.019 1 0 1.569 0V2.659a2.112 2.112 0 0 1 .079-.661.814.814 0 0 1 1.158-.522c3.181 1.3 6.358 2.616 9.541 3.915a1.062 1.062 0 0 1 .739 1.119c-.015 1.779 0 3.558 0 5.335Zm-9.725 1.771v34.374h8.75v-6.871c0-.834.274-1.1 1.116-1.1h6.175c.913 0 1.152.243 1.153 1.171v6.787h8.816v-28.01a1.24 1.24 0 0 0-.008-.334.541.541 0 0 0-.18-.31c-.669-.393-1.35-.766-2.083-1.18 0 .939.01 1.834 0 2.728-.01.717-.288 1.023-.972 1.027q-3.735.02-7.466 0c-.676 0-.951-.3-.957-.972-.01-1.029 0-2.059 0-3.088 0-.946.237-1.173 1.207-1.174h6.6c-.519-.886-1.05-1.684-1.461-2.535a.777.777 0 0 0-.837-.519q-9.626.018-19.254.009Zm47.037 34.38v-34.38c-2.1 0-4.155.039-6.208-.019a1.334 1.334 0 0 0-1.54.943 14.505 14.505 0 0 1-1.276 2.118h6.653c.733 0 1.017.289 1.023 1.023.007 1.011 0 2.02 0 3.031 0 .921-.25 1.182-1.153 1.183h-7.072c-.936 0-1.186-.261-1.189-1.215v-2.471a4.972 4.972 0 0 1-.736.46c-.555.22-.657.609-.655 1.179q.03 13.7.014 27.4v.736h3.22v-6.647c0-1.123.192-1.318 1.29-1.318h3.256c.951 0 1.2.25 1.2 1.189v6.793ZM34.367 19.147a8.712 8.712 0 1 0-8.591-8.738 8.658 8.658 0 0 0 8.591 8.738Zm-2.289 1.5v28h5.334V20.462a10.626 10.626 0 0 1-5.334.18Zm21.9 29.832H1.781v1.941h52.2Zm-41.7-37.945c0-1.75-.015-3.429.01-5.1a.7.7 0 0 0-.508-.781c-1.543-.616-3.075-1.266-4.606-1.9-.943-.388-1.888-.772-2.85-1.168V12.5c.163.013.3.031.42.031Zm7.475 36.127v-6.2h-4.9v6.2Zm26.624 0v-6.2h-2.184v6.2ZM26.283 19.114h-5.884v1.65h5.881Zm21.939 0h-5.85v1.65h5.849Z" data-name="Trazado 1426"/>
  <path fill="#0378b3" d="M11.328 17.323h3.588c.819 0 1.1.258 1.105 1.05q.018 1.57 0 3.139c-.01.768-.286 1.041-1.066 1.05q-3.642.012-7.286 0c-.772 0-1.035-.282-1.041-1.059q-.009-1.57 0-3.139c0-.768.279-1.035 1.05-1.038 1.222-.007 2.437-.003 3.65-.003Zm-2.946 3.438h5.867v-1.65H8.382Z" data-name="Trazado 1427"/>
  <path fill="#0378b3" d="M23.294 30.567h-3.643c-.711 0-.994-.276-1-.973q-.017-1.626 0-3.252c0-.693.253-.987.927-.991q3.75-.027 7.51 0c.684 0 .946.283.957.975q.027 1.627 0 3.252c-.01.727-.3.99-1.05.993-1.238.001-2.467-.004-3.701-.004Zm-2.895-3.465v1.7h5.858v-1.7Z" data-name="Trazado 1428"/>
  <path fill="#0378b3" d="M11.365 30.567h-3.7c-.75 0-1.03-.267-1.036-1q-.013-1.624 0-3.25c.007-.684.264-.97.948-.973q3.75-.022 7.51 0c.651 0 .919.286.93.94q.027 1.681 0 3.363c-.012.634-.312.909-.951.915-1.235.012-2.466.005-3.701.005Zm-2.988-1.776h5.88v-1.66h-5.88Z" data-name="Trazado 1429"/>
  <path fill="#0378b3" d="M23.336 38.668h-3.643c-.778 0-1.039-.265-1.05-1.042v-3.2c0-.684.265-.966.942-.969q3.75-.018 7.51 0c.651 0 .927.277.939.928q.031 1.68 0 3.363c-.014.64-.3.91-.951.916-1.244.011-2.496.004-3.747.004Zm2.943-3.45h-5.864v1.681h5.864Z" data-name="Trazado 1430"/>
  <path fill="#0378b3" d="M11.367 38.668h-3.7c-.777 0-1.036-.266-1.041-1.05v-3.195c.007-.685.265-.964.946-.967q3.75-.017 7.51 0c.649 0 .921.276.931.93.018 1.12.02 2.25 0 3.363-.012.639-.3.907-.951.913-1.23.014-2.463.006-3.695.006Zm2.883-1.758v-1.678H8.386v1.678Z" data-name="Trazado 1431"/>
  <path fill="#0378b3" d="M45.265 30.567H41.62c-.735 0-1.027-.28-1.036-1.009q-.018-1.6 0-3.2c.008-.7.288-1.011.982-1.014q3.729-.021 7.456 0c.7 0 .967.3.972 1.014q.009 1.6 0 3.2c0 .727-.292 1.006-1.029 1.009-1.234.005-2.468 0-3.7 0Zm-2.9-1.782h5.858v-1.668h-5.858Z" data-name="Trazado 1432"/>
  <path fill="#0378b3" d="M45.252 38.668h-3.643c-.73 0-1.012-.286-1.02-1.026q-.016-1.6 0-3.195c.008-.7.291-.987 1-.99q3.7-.015 7.4 0c.741 0 1.008.285 1.012 1.024 0 1.065.008 2.13 0 3.195 0 .7-.286.985-.99.99-1.259.008-2.514.002-3.759.002Zm2.974-3.45h-5.833v1.689h5.833Z" data-name="Trazado 1433"/>
  <path fill="#0378b3" d="M31.116 13.512c-.013-.844.262-1.2.787-1.237s.844.271.927.889a2.554 2.554 0 0 0 .076.384 1.643 1.643 0 0 0 1.65 1.314 1.827 1.827 0 0 0 1.4-1.729 1.773 1.773 0 0 0-1.431-1.7c-1.9-.249-2.961-1.111-3.345-2.719a3.483 3.483 0 0 1 1.9-3.975c.345-.159.492-.337.45-.709a2.351 2.351 0 0 1 .024-.615.772.772 0 0 1 .852-.714c.481 0 .883.271.831.718-.1.868.318 1.236 1 1.65a3.175 3.175 0 0 1 1.467 2.758.825.825 0 0 1-.8.955.844.844 0 0 1-.94-.819 3.876 3.876 0 0 0-.059-.442 1.667 1.667 0 0 0-1.713-1.315 1.762 1.762 0 0 0 .12 3.457 5.391 5.391 0 0 1 1.456.342 3.267 3.267 0 0 1 1.929 3.112 3.286 3.286 0 0 1-1.92 3.174.729.729 0 0 0-.511.835.868.868 0 0 1-.69 1.059.833.833 0 0 1-1.033-.925.987.987 0 0 0-.661-1.05 3.226 3.226 0 0 1-1.766-2.698Z" data-name="Trazado 1434"/>
  <path fill="#0378b3" d="M8.484 9.472c-.616 0-1.231.012-1.848 0a.856.856 0 1 1 .007-1.71q1.821-.018 3.639 0a.792.792 0 0 1 .858.829.8.8 0 0 1-.865.877c-.597.015-1.194.004-1.791.004Z" data-name="Trazado 1435"/>
</svg>