<svg xmlns="http://www.w3.org/2000/svg" data-name="Isolation Mode" viewBox="0 0 58.71 55.92">
  <path fill="#0378b3" d="M22.98 43.39h14.44a7.15 7.15 0 0 0 7.41-7.09V22.77a2 2 0 0 0-.67-1.55q-5.62-5.34-11.21-10.72a2.23 2.23 0 0 0-1.67-.65H23.1c-4.35 0-7.54 3-7.54 7.19v19.25a7.15 7.15 0 0 0 7.42 7.1Zm10.2-28.63 6.63 6.34a25.76 25.76 0 0 1-3.34-.23 4.1 4.1 0 0 1-3.29-3.95c-.06-.73 0-1.45 0-2.16Zm-14.63 2.31a4.29 4.29 0 0 1 4.61-4.42h7.02v4.12a7 7 0 0 0 5.9 6.91 12.57 12.57 0 0 0 2.13.14h3.67v12.35a4.29 4.29 0 0 1-4.62 4.41H23.12a4.29 4.29 0 0 1-4.62-4.41Zm6 10.95h11.33a1.41 1.41 0 1 1 0 2.79H24.5a1.41 1.41 0 1 1 0-2.79Zm13 7a1.45 1.45 0 0 1-1.6 1.4H24.48a1.41 1.41 0 1 1 0-2.79h11.39a1.45 1.45 0 0 1 1.64 1.38ZM23.09 24.54a1.33 1.33 0 0 1 0-1.42 1.48 1.48 0 0 1 1.31-.67h2.87a1.5 1.5 0 0 1 1.05.4 1.36 1.36 0 0 1 .44 1 1.44 1.44 0 0 1-1.51 1.39h-2.87a1.47 1.47 0 0 1-1.33-.71Zm35.66 1.78v2.07a.63.63 0 0 0-.11.12 1.74 1.74 0 0 1-2 1 1.79 1.79 0 0 1-1.38-1.78 30.27 30.27 0 0 0-.57-4.87C52.03 12.55 45.27 5.98 34.41 3.74c-8.83-1.81-16.61.71-23.17 6.6-.88.8-1.63 1.73-2.44 2.6-.1.13-.2.27-.29.41l2.64-.15a6.3 6.3 0 0 1 1.15 0 1.65 1.65 0 0 1 1.47 1.68 1.68 1.68 0 0 1-1.68 1.56c-2 .12-3.93.24-5.89.34a4.75 4.75 0 0 1-1.41 0 1.57 1.57 0 0 1-1.33-1.68V8.32a1.67 1.67 0 0 1 1.71-1.69 1.69 1.69 0 0 1 1.72 1.69V9.9l.19.16a2 2 0 0 1 .26-.45A28.79 28.79 0 0 1 24.74.37c11.13-1.57 20.34 2 27.52 10.18a26.2 26.2 0 0 1 6.32 14.63c.03.37.08.75.13 1.13ZM55.3 40.76v6.78a1.72 1.72 0 1 1-3.43 0 8.3 8.3 0 0 0-.14-1.65 3.37 3.37 0 0 1-.29.37 30.05 30.05 0 0 1-17.39 9.29c-1 .16-2 .25-2.94.37h-3.44c-1.09-.13-2.19-.24-3.28-.43a29.21 29.21 0 0 1-19.4-12.08 26.26 26.26 0 0 1-4.8-12.7c-.1-.87-.13-1.75-.15-2.62a1.68 1.68 0 0 1 1.68-1.78 1.7 1.7 0 0 1 1.75 1.77 23.47 23.47 0 0 0 5.71 15.27 25.2 25.2 0 0 0 17 9.07c9.69 1 17.56-2.32 23.72-9.47.1-.12.18-.26.31-.45l-2.53.15c-.32 0-.65.05-1 .05a1.71 1.71 0 0 1-1.75-1.56 1.58 1.58 0 0 1 .45-1.18 1.73 1.73 0 0 1 1.19-.53c1.82-.13 3.66-.23 5.49-.33l1.2-.08a1.76 1.76 0 0 1 2 1.73Z"/>
</svg>