<svg xmlns="http://www.w3.org/2000/svg" data-name="Capa 1" viewBox="0 0 47.535 36.793">
  <path fill="#0278b3" d="M1.537 35.241h14.948v-.059c-1.1-.07-2.2-.12-3.295-.215-2.448-.21-4.9-.421-7.339-.68a10.194 10.194 0 0 1-1.944-.485c-.737-.232-.838-.411-.838-1.183V.794a.77.77 0 0 1 1.06-.738 22.9 22.9 0 0 0 5.984.972c2.99.243 5.987.422 8.975.69a13.7 13.7 0 0 1 4.444 1.084.6.6 0 0 0 .444.013 15.974 15.974 0 0 1 5.3-1.194c3.118-.256 6.243-.44 9.361-.691a17.465 17.465 0 0 0 4.734-.871.779.779 0 0 1 1.088.707c.009.111 0 .224 0 .335v21.234a5.413 5.413 0 0 1-.915 3.309 3.9 3.9 0 0 0-.316.7 18.111 18.111 0 0 1-5.641 6.784c-.225.177-.471.33-.691.512a5.967 5.967 0 0 1-4.279 1.447 8.328 8.328 0 0 0-1.664.152h15.046v-31a4 4 0 0 1 .008-.528.763.763 0 0 1 1.51.013 3.008 3.008 0 0 1 .01.43v31.535c0 .879-.223 1.1-1.1 1.1H1.107c-.881 0-1.1-.223-1.1-1.1V4.15a3.031 3.031 0 0 1 .01-.431.718.718 0 0 1 .746-.662.721.721 0 0 1 .768.648 4 4 0 0 1 .006.526V34.62Zm23-.518a26.027 26.027 0 0 1 2.668-.6c2.136-.256 4.281-.518 6.429-.613a1.9 1.9 0 0 0 1.914-1.573 3.425 3.425 0 0 0 .2-.787c.109-1.558.223-3.117.285-4.677.044-1.071.333-1.32 1.352-1.051a7.924 7.924 0 0 0 3.122.255 2.486 2.486 0 0 0 2.345-2.266 7.1 7.1 0 0 0 .079-1.143q.008-9.942 0-19.886v-.481c-1.414.191-2.8.435-4.188.552-3.134.265-6.272.411-9.4.717a40.308 40.308 0 0 0-4.21.832c-.442.091-.609.335-.609.831q.028 14.686.014 29.375Zm-1.536-.037V5.352c0-1.2 0-1.208-1.143-1.536a34.321 34.321 0 0 0-7.051-.953c-2.233-.165-4.465-.286-6.691-.486-1.165-.1-2.323-.322-3.509-.495v29.695c0 .914 0 .91.923 1.1a59.932 59.932 0 0 0 7.711.768c2.116.159 4.233.32 6.34.566 1.139.138 2.266.448 3.418.682Zm14.618-7.509-.282 4.13a13.131 13.131 0 0 0 3.785-4.13Z" data-name="Trazado 1401"/>
  <path fill="#0278b3" d="m39.867 21.539-12.23.9v6.966c1.006-.1 2-.223 3-.31 1.05-.092 2.1-.164 3.153-.23a.753.753 0 0 1 .9.705c.035.466-.256.768-.791.819l-5.957.559c-.3.028-.6.1-.9.147a.761.761 0 0 1-.97-.768q-.017-4.194 0-8.387a.728.728 0 0 1 .7-.777c1.521-.2 3.031-.425 4.556-.553 2.957-.256 5.92-.447 8.88-.677.932-.072 1.193.146 1.194 1.073v2.253c0 .545-.28.86-.742.874s-.781-.314-.787-.877-.006-1.114-.006-1.717Z" data-name="Trazado 1402"/>
  <path fill="#0278b3" d="M40.501 4.627a.685.685 0 0 1 .89.648c.033.47-.271.78-.85.828-2 .169-4.008.307-6.009.489-2.508.228-5.013.484-7.522.736a.77.77 0 0 1-.928-.611.725.725 0 0 1 .649-.9c1.324-.192 2.648-.406 3.981-.512 3.264-.247 6.527-.453 9.789-.678Z" data-name="Trazado 1403"/>
  <path fill="#0278b3" d="M40.479 8.474c.543-.092.864.147.91.614s-.256.8-.828.847c-2.129.177-4.263.316-6.39.512-2.381.215-4.758.467-7.136.716a.775.775 0 0 1-.954-.64.721.721 0 0 1 .68-.867c1.8-.229 3.6-.476 5.413-.625 2.765-.223 5.536-.374 8.305-.557Z" data-name="Trazado 1404"/>
  <path fill="#0278b3" d="M40.479 12.309c.541-.093.864.147.91.613s-.256.8-.828.849c-2.13.175-4.263.316-6.39.512-2.381.215-4.758.467-7.136.714a.774.774 0 0 1-.954-.632.722.722 0 0 1 .68-.868c1.8-.228 3.6-.475 5.413-.623 2.765-.231 5.536-.382 8.305-.565Z" data-name="Trazado 1405"/>
  <path fill="#0278b3" d="M40.494 16.134c.534-.082.859.17.9.64s-.268.786-.844.835c-2.034.17-4.072.308-6.1.493-2.476.225-4.949.48-7.424.731a.771.771 0 0 1-.933-.6.722.722 0 0 1 .64-.9c1.356-.2 2.712-.415 4.077-.524 3.223-.255 6.454-.454 9.684-.675Z" data-name="Trazado 1406"/>
  <path fill="#0278b3" d="M21.468 12.327v5.512c0 .812-.328 1.036-1.144.955-2.906-.283-5.814-.533-8.722-.79-1.558-.138-3.117-.256-4.674-.4a.784.784 0 0 1-.789-.9V5.439a.76.76 0 0 1 .932-.864q6.062.475 12.118.975a13.363 13.363 0 0 1 1.417.232c.691.128.858.339.859 1.032q.005 2.758.003 5.513Zm-13.774 3.84 12.214.9v-9.96l-12.214-.9Z" data-name="Trazado 1407"/>
  <path fill="#0278b3" d="M7.029 20.693q6.079.48 12.161.966a13.949 13.949 0 0 1 1.65.276.728.728 0 0 1 .611.877.746.746 0 0 1-.922.614 80.183 80.183 0 0 0-8.854-.826q-2.362-.169-4.718-.407a.962.962 0 0 1-.671-.365.934.934 0 0 1 0-.791c.128-.216.445-.319.68-.471Z" data-name="Trazado 1408"/>
  <path fill="#0278b3" d="M7.129 24.513c4.135.348 8.378.7 12.619 1.066a8.079 8.079 0 0 1 1.129.2.728.728 0 0 1 .575.861.739.739 0 0 1-.869.632c-3.891-.705-7.846-.681-11.766-1.033-.65-.059-1.3-.128-1.95-.212a.748.748 0 0 1-.721-.844c.048-.435.366-.693.983-.67Z" data-name="Trazado 1409"/>
  <path fill="#0278b3" d="M7.05 28.365c4.039.319 8.076.631 12.113.963a14.205 14.205 0 0 1 1.65.274.73.73 0 0 1 .631.9.793.793 0 0 1-.94.6q-4.4-.422-8.807-.822c-1.572-.142-3.146-.256-4.718-.4-.579-.047-.877-.37-.835-.836s.369-.724.906-.679Z" data-name="Trazado 1410"/>
</svg>