<svg xmlns="http://www.w3.org/2000/svg" viewBox="0 0 38.706 39.167">
  <g fill="#0278b3" data-name="Capa 1">
    <path d="M23.262 26.188v11.98c0 .752-.24.993-.987.995h-5.868c-.717 0-.967-.251-.967-.966V26.191c-.721 0-1.415-.018-2.108.008a.888.888 0 0 1-.944-.454.875.875 0 0 1 .234-1.017q3.014-3.536 6-7.09c.484-.573.963-.569 1.454.013q2.964 3.516 5.944 7.017c.271.317.489.633.3 1.051a.935.935 0 0 1-1.025.476c-.655-.03-1.32-.007-2.033-.007Zm-3.909-6.962-4.557 5.388c.458 0 .783.01 1.107 0 .837-.034 1.1.222 1.1 1.076v11.878h4.691v-11.93c0-.783.292-1.056 1.061-1.023.346.014.693 0 1.153 0Z" data-name="Trazado 1375"/>
    <path d="M27.172 7.851a7.819 7.819 0 1 1-15.637-.059 7.819 7.819 0 1 1 15.637.059Zm-7.79-6.285a6.327 6.327 0 0 0-6.282 6.24 6.254 6.254 0 1 0 12.508 0 6.306 6.306 0 0 0-6.226-6.24Z" data-name="Trazado 1376"/>
    <path d="M2.931 29.451c-.5 0-.936-.01-1.373 0a.858.858 0 0 1-.894-.458.837.837 0 0 1 .2-.979q2.266-2.661 4.515-5.335a.805.805 0 0 1 1.365 0q2.255 2.668 4.515 5.333a.832.832 0 0 1 .2.98.843.843 0 0 1-.885.461c-.437-.013-.875 0-1.378 0v8.659c0 .839-.218 1.053-1.074 1.053H3.871c-.676 0-.932-.261-.932-.949v-8.17Zm1.567 8.119h3.133v-8.778c0-.687.308-.968 1-.936a3.622 3.622 0 0 0 .411-.034l-2.98-3.5-2.968 3.509a2.179 2.179 0 0 0 .261.04c.932-.021 1.138.183 1.138 1.126v8.574Z" data-name="Trazado 1377"/>
    <path d="M29.518 29.453c-.505 0-.957-.007-1.408 0a.847.847 0 0 1-.877-.489.838.838 0 0 1 .2-.938q2.266-2.659 4.516-5.333a.812.812 0 0 1 1.394.01q2.238 2.654 4.486 5.3a.853.853 0 0 1 .218.978.891.891 0 0 1-.933.475c-.411-.018-.845 0-1.343 0v8.745c0 .718-.249.969-.962.97h-4.3c-.754 0-1-.239-1-.984Zm6.124-1.6-3-3.539-2.98 3.528a2.829 2.829 0 0 0 .29.03c.9-.033 1.122.184 1.122 1.092v8.6h3.133v-8.787a.808.808 0 0 1 .965-.923c.115.007.228.003.47.003Z" data-name="Trazado 1378"/>
    <path d="M6.031 21.537a6.07 6.07 0 0 1 .058-12.139 6.07 6.07 0 0 1-.058 12.139Zm4.524-6.068a4.567 4.567 0 0 0-4.478-4.506 4.504 4.504 0 1 0-.008 9.008 4.55 4.55 0 0 0 4.486-4.5Z" data-name="Trazado 1379"/>
    <path d="M38.706 15.487a6.06 6.06 0 1 1-6.017-6.089 6.161 6.161 0 0 1 6.017 6.089Zm-1.566-.018a4.494 4.494 0 1 0-4.481 4.5 4.565 4.565 0 0 0 4.481-4.501Z" data-name="Trazado 1380"/>
    <path d="M18.542 4.063c.078-1 .271-1.305.8-1.318s.73.308.828 1.333a2.22 2.22 0 0 1 1.739 1.439c.191.556.055.97-.392 1.154s-.795-.025-1.073-.557a.914.914 0 0 0-.51-.441 2.51 2.51 0 0 0-1.056-.043c-.223.044-.406.292-.607.449.176.184.318.454.534.535.53.2 1.1.291 1.641.462a2.4 2.4 0 0 1 1.616 1.305 2.1 2.1 0 0 1-1.305 2.916c-.444.168-.7.316-.653.86a.726.726 0 0 1-.783.76.775.775 0 0 1-.757-.749c-.017-.21 0-.423 0-.663-.153-.061-.3-.119-.442-.18a2.674 2.674 0 0 1-1.6-1.791.78.78 0 0 1 .47-1 .792.792 0 0 1 .991.482 1.542 1.542 0 0 0 2.207.821c.214-.106.479-.384.476-.581a.916.916 0 0 0-.473-.594 6.426 6.426 0 0 0-1.116-.338c-.343-.1-.693-.184-1.025-.316a2.006 2.006 0 0 1 .144-3.837c.113-.034.221-.066.346-.108Z" data-name="Trazado 1381"/>
    <path d="M7.366 14.925a1.678 1.678 0 0 1 1.057 1.716 2.158 2.158 0 0 1-1.267 1.735.687.687 0 0 0-.309.4.823.823 0 0 1-.805.709c-.423-.01-.685-.308-.773-.8a.679.679 0 0 0-.282-.428 2.506 2.506 0 0 1-1.2-1.357.778.778 0 0 1 .4-1.062.767.767 0 0 1 1.032.457.968.968 0 0 0 1.121.653c.184-.033.335-.247.5-.377a1.724 1.724 0 0 0-.377-.305c-.379-.147-.771-.261-1.158-.381a1.8 1.8 0 0 1-1.393-1.582 1.657 1.657 0 0 1 1.138-1.745.551.551 0 0 0 .222-.355.8.8 0 0 1 .783-.734.819.819 0 0 1 .794.722 1.157 1.157 0 0 0 .328.44 5.686 5.686 0 0 1 .944 1c.334.594.075.987-.755 1.294Zm-1.977-.7 1.556.522c-.399-.815-.862-.982-1.556-.522Z" data-name="Trazado 1382"/>
    <path d="M33.97 14.913a1.833 1.833 0 0 1 1.012 1.305 1.81 1.81 0 0 1-1.154 2.036c-.261.116-.4.221-.424.543a.711.711 0 0 1-.754.684.731.731 0 0 1-.769-.723.489.489 0 0 0-.355-.493 2.133 2.133 0 0 1-1.175-1.419.781.781 0 1 1 1.465-.539.9.9 0 0 0 1.326.535c.116-.054.2-.188.292-.286-.1-.094-.176-.232-.291-.275-.576-.222-1.185-.368-1.737-.634a1.563 1.563 0 0 1-.606-2.453 5.382 5.382 0 0 1 .751-.6.914.914 0 0 0 .311-.4c.112-.453.377-.727.783-.728a.824.824 0 0 1 .792.723 1.046 1.046 0 0 0 .335.433 5.05 5.05 0 0 1 .795.69c.504.716.297 1.28-.597 1.601Zm-.426-.163c-.429-.818-1.044-1.005-1.526-.489Z" data-name="Trazado 1383"/>
  </g>
</svg>