<svg xmlns="http://www.w3.org/2000/svg" data-name="Isolation Mode" viewBox="0 0 49.47 47.15">
  <path fill="#0378b3" d="M48.77 37.98c-2.6-2.49-5.22-5-7.83-7.46a3.48 3.48 0 0 0-.51-.34l.53-.36 7.07-4.5a9.43 9.43 0 0 0 .84-.56 1.52 1.52 0 0 0 .57-1.42 1.59 1.59 0 0 0-1-1.21 4.75 4.75 0 0 0-.64-.2L15.55 12.7a1.85 1.85 0 0 0-1.91.35 1.59 1.59 0 0 0-.33 1.78c.58 1.81 1.15 3.63 1.72 5.44q4 12.78 8 25.53a2.21 2.21 0 0 0 .51.89 1.66 1.66 0 0 0 2.56-.33c1.53-2.17 3.05-4.36 4.57-6.53l.93-1.32a3.45 3.45 0 0 0 .35.5l7.87 7.5a1.73 1.73 0 0 0 2.68 0q3.12-3 6.23-5.94a1.56 1.56 0 0 0 .04-2.59Zm-7.62 5.27-.35-.32-8.09-7.68a1.73 1.73 0 0 0-2.94.29l-4.11 5.88-.36.49c-2.68-8.5-5.33-16.91-8-25.41l26.65 7.62c-.2.14-.34.25-.49.34l-6.25 4a1.54 1.54 0 0 0-.27 2.7q4.05 3.89 8.12 7.74a2.34 2.34 0 0 0 .41.29Zm-28-37.1V1.68a1.65 1.65 0 1 1 3.3 0V6.2a1.62 1.62 0 0 1-1.64 1.67 1.64 1.64 0 0 1-1.62-1.7Zm-6.67 9.54H1.69a1.58 1.58 0 1 1 0-3.14h4.78a1.58 1.58 0 1 1 0 3.14ZM3.75 5.8a1.43 1.43 0 0 1-.35-1.72 1.74 1.74 0 0 1 1.72-1 3.7 3.7 0 0 1 1 .5c1.12 1 2.2 2.07 3.29 3.12a1.49 1.49 0 0 1 0 2.2 1.68 1.68 0 0 1-2.35 0c-1.09-.98-2.18-2.03-3.27-3.08Zm16.17 2.73a1.38 1.38 0 0 1 .23-1.69q1.71-1.71 3.49-3.33a1.65 1.65 0 0 1 2.2.07 1.44 1.44 0 0 1 .13 2.09 88.343 88.343 0 0 1-3.57 3.4 3.21 3.21 0 0 1-.81.36 1.74 1.74 0 0 1-1.63-.88ZM9.87 20.62a3.63 3.63 0 0 1-.55.92c-1.05 1.06-2.14 2.08-3.23 3.1a1.69 1.69 0 0 1-2.35 0 1.51 1.51 0 0 1 0-2.24l3.28-3.13a1.6 1.6 0 0 1 1.81-.31 1.64 1.64 0 0 1 1.08 1.68Z"/>
</svg>