<svg xmlns="http://www.w3.org/2000/svg" data-name="Capa 1" viewBox="0 0 66.937 60.376">
  <path fill="#0278b3" d="M0 41.411V6.18c.042-.144.1-.286.127-.431a7.017 7.017 0 0 1 2.41-4.067A7.311 7.311 0 0 1 7.55 0q25.918.02 51.836.008c.327 0 .654 0 .98.026a6.934 6.934 0 0 1 4.783 2.371 7.922 7.922 0 0 1 1.788 3.775v35.231c-.034.052-.09.1-.1.163a7.256 7.256 0 0 1-7.368 5.988c-5.293-.08-10.588-.02-15.882-.02h-.817c.667 3.342 1.322 6.62 1.961 9.9.077.391.327.387.624.386q2.388-.01 4.772 0c.48 0 .961-.015 1.438.021a1.252 1.252 0 0 1 .038 2.5 6.178 6.178 0 0 1-.717.026H16.049a5.949 5.949 0 0 1-.783-.034 1.154 1.154 0 0 1-1.049-1.005c-.175-.871.427-1.5 1.471-1.508 1.961-.013 3.922 0 5.883 0 .3 0 .547 0 .624-.384.644-3.281 1.307-6.558 1.961-9.9H7.259A7.123 7.123 0 0 1 1.6 44.917 8.545 8.545 0 0 1 0 41.411Zm2.615-11.87H10c.967 0 1.562.51 1.559 1.293S10.97 32.118 10 32.123c-2.157.01-4.314 0-6.471 0h-.94v2.5h61.768V7.444a4.532 4.532 0 0 0-4.888-4.889q-25.983-.01-51.966 0a5.935 5.935 0 0 0-1.549.18A4.387 4.387 0 0 0 2.6 7.221q-.025 10.928 0 21.857a3.732 3.732 0 0 0 .015.463Zm61.836 7.749H2.646c0 1.343-.033 2.646.02 3.943a3.03 3.03 0 0 0 .407 1.226 4.585 4.585 0 0 0 4.448 2.5q25.949-.021 51.9-.01c.239 0 .479 0 .719-.018a4.173 4.173 0 0 0 3.937-3.084 34.051 34.051 0 0 0 .384-4.559ZM26.8 47.554c-.686 3.432-1.361 6.8-2.044 10.222h17.43l-2.049-10.222Z" data-name="Trazado 39085"/>
  <path fill="#0278b3" d="M41.251 21.888c.869.855 1.7 1.655 2.51 2.471a1.383 1.383 0 0 1 0 2.3q-1.124 1.134-2.263 2.255a1.376 1.376 0 0 1-2.3-.016c-.827-.833-1.606-1.634-2.466-2.518-.732.74-1.394 1.392-2.035 2.066a1.467 1.467 0 0 1-1.564.549c-.642-.194-.817-.719-.954-1.291q-1.281-5.582-2.567-11.161c-.3-1.294.43-2.048 1.727-1.752q5.689 1.291 11.371 2.615a1.3 1.3 0 0 1 .691 2.34c-.684.712-1.403 1.404-2.15 2.142Zm-1.185-2.3-.124-.194-7.422-1.7c.595 2.561 1.16 5 1.752 7.54.48-.482.876-.881 1.275-1.275a1.41 1.41 0 0 1 2.347 0c.817.807 1.621 1.619 2.334 2.332l1.007-.855c-.848-.835-1.695-1.649-2.517-2.484a1.327 1.327 0 0 1 0-2.151c.431-.426.899-.81 1.348-1.214Z" data-name="Trazado 39086"/>
  <path fill="#0278b3" d="M37.533 11.251a1.11 1.11 0 0 1-.163.49 17.092 17.092 0 0 1-1.8 1.778 1.1 1.1 0 0 1-1.485-.193 1.123 1.123 0 0 1-.163-1.541 9.9 9.9 0 0 1 1.7-1.69 1.238 1.238 0 0 1 1.911 1.156Z" data-name="Trazado 39087"/>
  <path fill="#0278b3" d="M32.431 9.91a9.13 9.13 0 0 1-.062 1.1 1.217 1.217 0 0 1-1.2 1.082 1.164 1.164 0 0 1-1.275-1.049 10.556 10.556 0 0 1-.01-2.2 1.216 1.216 0 0 1 1.253-1.09 1.263 1.263 0 0 1 1.239 1.124 7.087 7.087 0 0 1 .01 1.038Z" data-name="Trazado 39088"/>
  <path fill="#0278b3" d="M25.72 9.866c1.048-.013 2.873 1.78 2.778 2.584a1.886 1.886 0 0 1-.619 1.052.949.949 0 0 1-1.266-.016 10.834 10.834 0 0 1-1.678-1.708 1.382 1.382 0 0 1-.039-1.2c.164-.351.632-.559.824-.712Z" data-name="Trazado 39089"/>
  <path fill="#0278b3" d="M28.639 20.03a3.381 3.381 0 0 1-.374.845 16 16 0 0 1-1.564 1.559 1.209 1.209 0 0 1-1.654-.144 1.182 1.182 0 0 1-.08-1.6 14.229 14.229 0 0 1 1.562-1.561 1.012 1.012 0 0 1 1.329-.074 5.052 5.052 0 0 1 .781.975Z" data-name="Trazado 39090"/>
  <path fill="#0278b3" d="M24.756 17.538a10.077 10.077 0 0 1-1.043 0 1.217 1.217 0 0 1-1.134-1.275 1.185 1.185 0 0 1 1.123-1.209 15.036 15.036 0 0 1 2.084 0 1.219 1.219 0 0 1 1.144 1.265 1.25 1.25 0 0 1-1.2 1.227c-.327.028-.654 0-.98 0Z" data-name="Trazado 39091"/>
  <path fill="#0278b3" d="M14.161 29.563a1.257 1.257 0 0 1 1.271 1.288 1.273 1.273 0 0 1-2.544 0 1.258 1.258 0 0 1 1.273-1.288Z" data-name="Trazado 39092"/>
  <path fill="#0278b3" d="M33.443 43.657a2.556 2.556 0 1 1 1.829-.728 2.559 2.559 0 0 1-1.829.728Z" data-name="Trazado 39093"/>
</svg>