<svg xmlns="http://www.w3.org/2000/svg" data-name="Isolation Mode" viewBox="0 0 43.03 43.04">
  <path fill="#0378b3" d="M27.26 31.09c-1 1-.85 2.27-1.23 3.42 1-.6 2.4-.64 3.14-1.82Zm10.21-12.1 1.93 1.62c.3-.37.6-.68.84-1a1.25 1.25 0 0 0 .25-.91 1.19 1.19 0 0 0-.47-.81 1.22 1.22 0 0 0-1.7.14c-.23.27-.54.6-.85.96ZM25.22 7.53h4.73l-4.73-4.51Zm5.59 23.25 7-8.25-1.92-1.61-7 8.24ZM22.69 2.53H4.09c-1.15 0-1.59.44-1.59 1.6v34.79c0 1.16.44 1.6 1.6 1.6h25a1.2 1.2 0 0 0 1.16-1.08v-4.08c-.38.21-.72.42-1.08.58-1.43.64-2.87 1.25-4.31 1.88a1.29 1.29 0 0 1-1.85-1.59c.35-1.48.71-3 1.05-4.45a4.51 4.51 0 0 1 1-1.93q2.51-3 5-5.91a1.16 1.16 0 0 0 .25-.71V10.1h-6.23a1.27 1.27 0 0 1-1.39-1.38V6.03Zm20.33 15.8v1a5.4 5.4 0 0 1-1.16 2.27q-4.42 5.22-8.82 10.46a1.21 1.21 0 0 0-.26.71v6.29a3.63 3.63 0 0 1-1.57 3.21 9.83 9.83 0 0 1-1.79.76H3.36l-.11-.06a3.76 3.76 0 0 1-3.25-4v-35a3.81 3.81 0 0 1 4-4h20a4.11 4.11 0 0 1 3 1.19q2.21 2.1 4.42 4.19a4.28 4.28 0 0 1 1.4 3.29V20.6l.33-.36c1-1.25 2.1-2.51 3.17-3.76a3.75 3.75 0 0 1 6.24.46 7.62 7.62 0 0 1 .46 1.39Zm-26.64-3.11h10a1.26 1.26 0 0 1 1.31 1.67 1.22 1.22 0 0 1-1.1.84H6.64c-1 0-1.6-.47-1.6-1.27s.59-1.26 1.6-1.26Zm0 10.08H6.47a1.26 1.26 0 0 1-1.31-1.67 1.22 1.22 0 0 1 1.1-.84h19.83c1 0 1.6.47 1.6 1.27s-.59 1.26-1.6 1.26ZM12.64 7.57h6.22a1.26 1.26 0 1 1 0 2.51H6.43a1.27 1.27 0 0 1-1.3-1.71 1.3 1.3 0 0 1 1.3-.81Zm0 22.78h6.17a1.26 1.26 0 1 1 0 2.51H6.38a1.26 1.26 0 0 1-1.3-1.71 1.3 1.3 0 0 1 1.3-.81Z"/>
</svg>