<svg xmlns="http://www.w3.org/2000/svg" data-name="Layer 1" viewBox="0 0 42.9 49.9">
  <path fill="#0378b3" d="m42.88 41.41-5.24-22.3V4.2a.86.86 0 0 0-.86-.86h-2.86L33.29.66a.86.86 0 0 0-1-.64L18.18 3.34H4.32a.86.86 0 0 0-.86.86v2.59l-2.79.66a.83.83 0 0 0-.54.39.82.82 0 0 0-.1.65l3.48 14.59v23a.86.86 0 0 0 .86.86h4.75l.55 2.32a.86.86 0 0 0 .38.53.84.84 0 0 0 .46.13h.19l12.57-3h13.56a.86.86 0 0 0 .86-.86V43.5l4.6-1.08a.86.86 0 0 0 .59-1.01Zm-7-36.35v6.74L34.3 5.06Zm-30.73 0h5.65L5.15 6.39Zm0 40.14V30.4l3.49 14.8Zm30.73 0h-5.37l5.37-1.26Zm-24.81 2.81L1.87 8.93l29.91-7 9.2 39.08Zm5.76-24.51a.88.88 0 0 0 .11-.65l-.81-3.44a4.21 4.21 0 0 0-1.89-2.62 3.81 3.81 0 0 0-.57-.29 4.14 4.14 0 0 0 .34-.48 4.34 4.34 0 0 0 .54-3.32 4.4 4.4 0 1 0-6.08 5 4.23 4.23 0 0 0-.9 3.71l.81 3.43a.85.85 0 0 0 .84.66.71.71 0 0 0 .2 0l6.88-1.62a.86.86 0 0 0 .53-.38Zm-9.16-9.18a2.66 2.66 0 0 1 .33-2 2.63 2.63 0 0 1 1.66-1.19 2.6 2.6 0 0 1 .61-.07 2.67 2.67 0 0 1 .62 5.27 2.67 2.67 0 0 1-3.22-2.06Zm2.19 9.31-.61-2.6a2.49 2.49 0 0 1 1.86-3l.34-.08a2.3 2.3 0 0 1 .58-.07 2.5 2.5 0 0 1 2.42 1.93l.62 2.59ZM25.51 40.5a.85.85 0 0 1-.64 1l-10.5 2.47h-.2a.86.86 0 0 1-.2-1.7l10.5-2.47a.87.87 0 0 1 1.04.7Zm9.46-7.07a.863.863 0 1 1 .4 1.68l-21.86 5.12h-.2a.86.86 0 0 1-.19-1.7Zm-.88-3.75a.862.862 0 1 1 .39 1.68L12.62 36.5h-.2a.86.86 0 0 1-.19-1.7Zm-.88-3.74a.86.86 0 1 1 .39 1.67l-21.88 5.15h-.2a.87.87 0 0 1-.84-.66.86.86 0 0 1 .64-1Zm-22.7 1.36 21.89-5.14a.86.86 0 1 1 .39 1.67l-21.88 5.15h-.2a.86.86 0 0 1-.2-1.7Zm21.56-10.29a.86.86 0 0 1-.64 1l-11.56 2.72h-.2a.86.86 0 0 1-.2-1.7l11.56-2.72a.87.87 0 0 1 .99.7Zm-13.56-1.68 11.56-2.71a.86.86 0 1 1 .39 1.67L18.9 17.01a.62.62 0 0 1-.19 0 .85.85 0 0 1-.84-.66.87.87 0 0 1 .64-1.02Zm-1.92-4.42a.85.85 0 0 1 .64-1l5.2-1.22a.86.86 0 1 1 .4 1.67l-5.21 1.23h-.2a.85.85 0 0 1-.8-.68Z"/>
</svg>
