<svg xmlns="http://www.w3.org/2000/svg" data-name="Layer 1" viewBox="0 0 41.94 48.74">
  <path fill="#0378b3" d="m41.32 7.32-2.7-.6v-2.7a.79.79 0 0 0-.8-.8h-14.2L10.42.02a.83.83 0 0 0-1 .6l-.6 2.5h-2.8a.86.86 0 0 0-.6.3.85.85 0 0 0-.2.6v14.7l-5.2 21.8a.83.83 0 0 0 .6 1l4.5 1.1v2.3a1.42 1.42 0 0 0 .2.6.76.76 0 0 0 .4.2h12.8l12.9 3a.83.83 0 0 0 1-.6l.6-2.4h4.6c.7 0 1-.3 1-.8v-22.4l3.3-14.2a.83.83 0 0 0-.6-1Zm-36.1 33.6-3.3-.8 3.3-14.1Zm5.6-39.1 5.4 1.3h-5.7Zm20.4 45.2-5.1-1.2h5.4Zm5.8-2.9H6.97V4.87h30.1Zm1.6-29v-6.8l1.5.4Zm-28.7 23a.79.79 0 0 1 .8-.8h10.6a.8.8 0 1 1 0 1.6h-10.8a.87.87 0 0 1-.55-.8Zm0-3.8a.79.79 0 0 1 .8-.8h22c.5 0 .9.4.8.8a.79.79 0 0 1-.8.8h-22.2a.87.87 0 0 1-.55-.8Zm0-3.8a.79.79 0 0 1 .8-.8h22c.5 0 .9.4.8.8a.79.79 0 0 1-.8.8h-22.2a.87.87 0 0 1-.55-.8Zm0-3.7a.79.79 0 0 1 .8-.8h22c.5 0 .9.3.8.8a.79.79 0 0 1-.8.8h-22.2a.87.87 0 0 1-.55-.75Zm0-3.8a.86.86 0 0 1 .8-.8h22a.8.8 0 0 1 0 1.6h-22.2a.87.87 0 0 1-.55-.8Zm0-3.6a.79.79 0 0 1 .8-.8l22.2-.2a.8.8 0 1 1 0 1.6l-22.2.2h-.2a.87.87 0 0 1-.55-.8Zm0-3.8a.79.79 0 0 1 .8-.8l22.2-.2a.8.8 0 0 1 0 1.6l-22.2.2h-.2a.87.87 0 0 1-.55-.8Zm0-5.5a.79.79 0 0 1 .8-.8l15.8-.1a.8.8 0 0 1 0 1.6l-15.7.1h-.2a.77.77 0 0 1-.65-.8Z"/>
</svg>
