<svg xmlns="http://www.w3.org/2000/svg" data-name="Layer 1" viewBox="0 0 66.83 49.93">
  <path fill="#0378b3" fill-rule="evenodd" d="M59.31 19.56 47.85 8.02l5-5 11.46 11.54Zm-6 3.41a5.14 5.14 0 0 0-1.41 2.68 14.72 14.72 0 0 1-4.07 7.86l-.82.82-6.76-6.8a5.48 5.48 0 0 0 2.53-.39 1.09 1.09 0 0 0 .58-1.41 1.07 1.07 0 0 0-1.39-.59c-2.75 1.13-6.05-2-6.41-2.35l-.92-.93 1-1a1.09 1.09 0 0 0 0-1.52 1.08 1.08 0 0 0-1.51 0l-1.78 1.79-4.07 4.11a2.16 2.16 0 0 1-3-3.06l7-7.09a7.89 7.89 0 0 1 1.3-1 7 7 0 0 1 6.63-.42 5.46 5.46 0 0 0 6.12-1.1l1.49-1.5 8.74 8.81-3.19 3.21Zm-6.73 16.05a1.44 1.44 0 0 1-2 0L34.22 28.59a1 1 0 0 0-1.48 0 1.07 1.07 0 0 0 0 1.52L43.9 41.35a1.51 1.51 0 0 1 .42 1 1.45 1.45 0 0 1-1.48 1.42 1.48 1.48 0 0 1-1-.42l-1.88-1.89-8.66-8.72a1.07 1.07 0 0 0-1.5 0 1.09 1.09 0 0 0 0 1.53l8.68 8.74a1.46 1.46 0 1 1-2.06 2.07l-9.41-9.48a1.071 1.071 0 0 0-1.51 1.52l7 7a1.46 1.46 0 0 1-1 2.5h-.27a3.91 3.91 0 0 0-1.08-3.31 3.8 3.8 0 0 0-2.72-1.14h-.09a3.85 3.85 0 0 0-4-3.95 3.91 3.91 0 0 0-1.12-2.93 3.84 3.84 0 0 0-3.58-1l-.77-.77a14.84 14.84 0 0 1-4.06-7.76 5.35 5.35 0 0 0-1.5-2.85l-1.88-1.9 10.71-10.79 2.67 2.69a5.5 5.5 0 0 0 5.77 1.24 5.09 5.09 0 0 1 .93-.24l-6.61 6.67a4.32 4.32 0 0 0 0 6.1 4.26 4.26 0 0 0 6 0l3.32-3.35.9.91 12.52 12.62a1.43 1.43 0 0 1 .43 1 1.39 1.39 0 0 1-.43 1Zm-18.14 8.26a1.6 1.6 0 0 1-1.2.5 1.64 1.64 0 0 1-1.21-.5 1.72 1.72 0 0 1 0-2.43 1.69 1.69 0 0 1 2.38 0 1.72 1.72 0 0 1 .03 2.43Zm-5.14-3.42a1.72 1.72 0 0 1-1.21-.5 1.75 1.75 0 0 1 0-2.44 1.72 1.72 0 0 1 1.21-.5 1.7 1.7 0 0 1 1.21.5 1.75 1.75 0 0 1 0 2.44 1.7 1.7 0 0 1-1.21.5Zm-5.24-4.56a1.71 1.71 0 1 1 2.92-1.19 1.71 1.71 0 0 1-2.92 1.19ZM2.57 15.65l12.93-13 5 5-12.92 13Zm64-1.83L53.57.76a1 1 0 0 0-1.48 0l-6.45 6.52a1.07 1.07 0 0 0 0 1.52l.65.65-1.49 1.5a3.31 3.31 0 0 1-3.73.66 9.16 9.16 0 0 0-8.22.31 7.1 7.1 0 0 0-4.18.22 3.29 3.29 0 0 1-3.53-.75l-2.65-2.71.32-.32a1.06 1.06 0 0 0 0-1.51L16.33.32a1.08 1.08 0 0 0-1.51 0L.31 14.86a1.07 1.07 0 0 0 0 1.52l6.48 6.53a1.06 1.06 0 0 0 1.51 0l.39-.39 1.88 1.9a3.28 3.28 0 0 1 .91 1.72 17 17 0 0 0 4.65 8.89l.35.36a3.87 3.87 0 0 0 3 6.53 3.93 3.93 0 0 0 1.16 2.94 3.77 3.77 0 0 0 2.72 1.13h.12a3.89 3.89 0 0 0 1.12 2.82 3.82 3.82 0 0 0 2.72 1.14 3.75 3.75 0 0 0 2.89-1.33 3.41 3.41 0 0 0 1.18.21 3.51 3.51 0 0 0 2.54-1.06 3.59 3.59 0 0 0 .81-1.26l.11.11a3.56 3.56 0 0 0 5.05 0 3.57 3.57 0 0 0 .83-1.3 3.56 3.56 0 0 0 4.65-.37 3.63 3.63 0 0 0 1-2.55 3.55 3.55 0 0 0-.1-.86 3.47 3.47 0 0 0 1.81-1 3.6 3.6 0 0 0 .31-4.67l.86-.86a16.9 16.9 0 0 0 4.67-9 3 3 0 0 1 .81-1.54l3.19-3.21.56.57a1.07 1.07 0 0 0 1.5 0l6.48-6.54a1.06 1.06 0 0 0 0-1.48Z"/>
</svg>
