<svg xmlns="http://www.w3.org/2000/svg" data-name="Capa 1" viewBox="0 0 65.168 69.791">
  <path fill="#0278b3" d="M37.236.065v7.5c0 2.766 1.322 4.08 4.106 4.082H48.8c.025.388.064.729.064 1.06 0 5.936.012 11.873-.016 17.809a1.669 1.669 0 0 1-.448 1.056Q36.558 43.463 24.692 55.348a6.756 6.756 0 0 0-1.39 2.241c-.607 1.524-1.078 3.1-1.57 4.674-.13.407-.289.582-.748.582-5.065-.019-10.13 0-15.2-.021a5.755 5.755 0 0 1-5.777-5.8q-.023-25.621 0-51.247A5.746 5.746 0 0 1 5.815.015q15.27-.03 30.535 0a8.506 8.506 0 0 1 .886.05ZM26.869 46.138a7.994 7.994 0 0 0-5.881-4.082 1.068 1.068 0 0 1-.88-.6 8.6 8.6 0 0 0-3.447-3.541 5.2 5.2 0 0 0-6.909 1.529 10.328 10.328 0 0 0-1.18 2.071 22.449 22.449 0 0 0-1.58 8.364 1.154 1.154 0 0 0 1.163 1.293 1.184 1.184 0 0 0 1.163-1.239c.089-1.111.143-2.225.3-3.326a13.152 13.152 0 0 1 1.677-5.36 3.074 3.074 0 0 1 4.5-1.163 4.734 4.734 0 0 1 1.9 1.824 5.034 5.034 0 0 0-3.861 5.583 3.86 3.86 0 0 0 2.745 3.553 3.939 3.939 0 0 0 4.953-3.489 24.681 24.681 0 0 0 .019-2.908 5.588 5.588 0 0 1 4.059 5.2c.054.8.428 1.262 1.074 1.32s1.012-.357 1.285-1.118a19.535 19.535 0 0 1 1.433-3.385 4.839 4.839 0 0 1 4.125-2.462c.9-.045 1.429-.51 1.39-1.227s-.6-1.153-1.506-1.089a7.56 7.56 0 0 0-5.488 2.788c-.37.441-.67.931-1.054 1.464Zm-2.433-22.873H8.512c-.981 0-1.522.419-1.522 1.163s.541 1.163 1.522 1.163h31.63a4.127 4.127 0 0 0 .727-.019 1.153 1.153 0 0 0 0-2.287 4.112 4.112 0 0 0-.725-.019Zm-4.07-11.631h11.708a3.466 3.466 0 0 0 .651-.019 1.1 1.1 0 0 0 1-1.163 1.092 1.092 0 0 0-1.019-1.137 3.854 3.854 0 0 0-.653-.016H8.648a3.489 3.489 0 0 0-.653.019 1.155 1.155 0 0 0 .019 2.289 3.672 3.672 0 0 0 .653.016Zm-.582 18.609H8.657A3.665 3.665 0 0 0 8 30.26a1.154 1.154 0 0 0 0 2.289 3.66 3.66 0 0 0 .653.017h22.25a3.666 3.666 0 0 0 .653-.017 1.154 1.154 0 0 0 0-2.289 3.659 3.659 0 0 0-.653-.017Zm10.468-13.957h-9.96a3.472 3.472 0 0 0-.651.019 1.153 1.153 0 0 0 0 2.287 3.489 3.489 0 0 0 .653.019h19.921a3.644 3.644 0 0 0 .651-.017 1.154 1.154 0 0 0 0-2.289 3.489 3.489 0 0 0-.653-.019Zm-18.66 2.329h3.344a1.2 1.2 0 0 0 1.357-1.188c0-.7-.523-1.128-1.33-1.132q-3.317-.006-6.628 0c-.841 0-1.367.481-1.357 1.186s.536 1.134 1.342 1.134c1.091.013 2.18 0 3.272 0Z" data-name="Trazado 1035"/>
  <path fill="#0278b3" d="m35.431 65.077-8.589-8.6c.124-.134.275-.31.438-.473l24.619-24.619c1.818-1.818 3.766-1.818 5.587 0 1.1 1.1 2.2 2.181 3.3 3.3a3.45 3.45 0 0 1 .017 5.065q-12.6 12.629-25.227 25.231a.886.886 0 0 1-.145.096Z" data-name="Trazado 1036"/>
  <path fill="#0278b3" d="m25.417 58.624 7.868 7.868c-.163.07-.347.167-.545.233q-4.362 1.454-8.733 2.908a1.34 1.34 0 0 1-1.551-.182 1.359 1.359 0 0 1-.171-1.551q1.464-4.363 2.908-8.723c.067-.191.147-.363.224-.553Z" data-name="Trazado 1037"/>
  <path fill="#0278b3" d="M61.312 42.57a3.729 3.729 0 0 1-.71 4.265c-2.8 2.882-5.641 5.715-8.477 8.558a1.175 1.175 0 0 1-1.745.107 1.194 1.194 0 0 1 .13-1.791c1.853-1.874 3.739-3.718 5.571-5.622 1.572-1.628 3.086-3.313 4.629-4.968.168-.161.352-.313.602-.549Z" data-name="Trazado 1038"/>
  <path fill="#0278b3" d="m39.785.922 8.163 8.142-.1.194a4.378 4.378 0 0 1-.521.058h-6.314c-1.039 0-1.444-.411-1.446-1.456V1.067Z" data-name="Trazado 1039"/>
  <path fill="#0278b3" d="M63.776 34.451c-2.1-2.1-4.174-4.179-6.3-6.306a4.458 4.458 0 1 1 6.3 6.306Z" data-name="Trazado 1040"/>
  <path fill="#0278b3" d="m41.191 62.792 7.577-7.574c.708 3.685-1.248 8.242-7.577 7.574Z" data-name="Trazado 1041"/>
  <path fill="#0278b3" d="M19.3 46.4c-.066.969-.109 1.842-1 2.3a1.3 1.3 0 0 1-1.564-.112 2.364 2.364 0 0 1-.5-2.433 2.4 2.4 0 0 1 2.016-1.929c.423-.058.7.033.775.5.075.594.189 1.187.273 1.674Z" data-name="Trazado 1042"/>
</svg>