<svg xmlns="http://www.w3.org/2000/svg" data-name="Isolation Mode" viewBox="0 0 39.55 39.56">
  <path fill="#0378b3" d="M20.22 35.16a4.77 4.77 0 0 0 .29-.42l3.29-4.93a1.35 1.35 0 0 1 2.35-.24l6.47 6.46.28.27 3.45-3.44a2.85 2.85 0 0 1-.33-.25q-3.26-3.24-6.49-6.49a1.33 1.33 0 0 1 .22-2.27l5-3.33.39-.29-21.31-6.4c2.17 7.13 4.25 14.19 6.39 21.33Zm12.1-9.84a2.78 2.78 0 0 1 .41.29q3.14 3.12 6.26 6.26a1.34 1.34 0 0 1 0 2.17q-2.49 2.51-5 5a1.34 1.34 0 0 1-2.15 0l-6.29-6.29a3.07 3.07 0 0 1-.28-.42l-.74 1.1c-1.22 1.83-2.43 3.66-3.66 5.48a1.28 1.28 0 0 1-2 .28 1.86 1.86 0 0 1-.41-.74Q15.24 27.72 12 17.02c-.46-1.52-.91-3-1.38-4.57a1.38 1.38 0 0 1 .27-1.49 1.41 1.41 0 0 1 1.52-.29l25.79 7.74a5.08 5.08 0 0 1 .51.17 1.31 1.31 0 0 1 .33 2.21 8.19 8.19 0 0 1-.68.47l-5.64 3.77Zm-21.78-22V1.46a1.32 1.32 0 1 1 2.64 0v3.79a1.32 1.32 0 0 1-1.31 1.4 1.34 1.34 0 0 1-1.33-1.41Zm-7.25 7.27h1.93a1.33 1.33 0 0 1 1.37 1.3 1.32 1.32 0 0 1-1.38 1.33H1.38a1.32 1.32 0 1 1 0-2.63c.62-.05 1.28-.04 1.91-.04Zm.83-7.92a2.85 2.85 0 0 1 .77.42c.9.85 1.76 1.73 2.63 2.62a1.27 1.27 0 0 1 .39.92 1.32 1.32 0 0 1-2.26.92c-.88-.87-1.75-1.74-2.62-2.62a1.24 1.24 0 0 1-.28-1.44 1.36 1.36 0 0 1 1.37-.86Zm13.17 5.3a1.38 1.38 0 0 1-1.34-.76 1.21 1.21 0 0 1 .19-1.42Q17.51 4.37 18.93 3a1.28 1.28 0 0 1 1.76.06 1.26 1.26 0 0 1 .1 1.76c-.92 1-1.88 1.92-2.85 2.85a2.59 2.59 0 0 1-.65.26Zm-9.37 9.39a3 3 0 0 1-.44.77c-.84.89-1.71 1.74-2.58 2.6a1.32 1.32 0 1 1-1.85-1.87c.86-.88 1.74-1.75 2.62-2.62a1.23 1.23 0 0 1 1.44-.26 1.38 1.38 0 0 1 .81 1.34Z"/>
</svg>