<svg xmlns="http://www.w3.org/2000/svg" viewBox="0 0 55.475 57.518">
  <g fill="#0278b3" data-name="Capa 1">
    <path d="M7.308 43.862c1.421-.632 2.8-1.242 4.176-1.864a14.4 14.4 0 0 1 9.055-.846c3.56.767 7.11 1.579 10.657 2.4a3.776 3.776 0 0 1 1.242.586.643.643 0 0 0 .724.059c1.486-.606 2.97-1.218 4.484-1.744a3.872 3.872 0 0 1 1.557-.072 1.822 1.822 0 0 1 1.642 1.427 1.243 1.243 0 0 0 .466.64 1.674 1.674 0 0 1 .514 2.665 7.687 7.687 0 0 1-1.567 1.544q-4.953 3.467-9.971 6.834a9.213 9.213 0 0 1-1.976.834 6.185 6.185 0 0 1-3.942-.165q-5.591-1.6-11.154-3.262a4.232 4.232 0 0 0-3.244.241c.116.416.23.823.342 1.23a1.356 1.356 0 0 1-.932 1.836 99.985 99.985 0 0 1-4.591 1.274 1.3 1.3 0 0 1-1.587-.932q-1.586-5.4-3.139-10.824a1.32 1.32 0 0 1 .949-1.685q2.25-.691 4.532-1.272c.834-.21 1.358.158 1.763 1.096Zm2.229 7.857a11.719 11.719 0 0 1 1.755-.407 6.692 6.692 0 0 1 1.721.132c.568.1 1.12.311 1.677.466 3.536 1.017 7.077 2.019 10.608 3.058a4.619 4.619 0 0 0 3.339-.241 10.152 10.152 0 0 0 1.359-.657c2.142-1.4 4.3-2.78 6.389-4.254 1.407-.991 2.723-2.114 4.057-3.207.193-.155.253-.478.376-.722-.269-.127-.551-.385-.8-.359a6.424 6.424 0 0 0-2.131.436c-2.07 1.01-4.094 2.115-6.119 3.212-.9.488-1.783 1.017-2.64 1.575a.864.864 0 0 1-1.2-.067 41.144 41.144 0 0 0-1.89-1.553 5.757 5.757 0 0 0-3.358-1.3 4.658 4.658 0 0 1-1.429-.219 1 1 0 0 1-.483-.724c-.042-.371.27-.576.651-.584a4.875 4.875 0 0 1 .639.042q4.038.466 8.088.954c1.115.134 1.766-.176 1.9-.932.141-.787-.3-1.266-1.446-1.533-2.962-.69-5.914-1.43-8.9-2.019a22.563 22.563 0 0 0-5.24-.592c-3.189.132-5.967 1.648-8.764 3.1.62 2.147 1.223 4.245 1.841 6.395Zm-5.009 4.42 4.481-1.264-3.127-10.777-4.479 1.253 3.125 10.788Zm28.992-9.538a21.1 21.1 0 0 1 5.871-2.64 1.82 1.82 0 0 0-.891-.2 14.434 14.434 0 0 0-4.212 1.42c-.656.271-1.035.622-.768 1.42Zm-3.817 2.063-2.109-.242-.025.13 1.02.843Z" data-name="Trazado 1388"/>
    <path d="M15.665 19.495A9.771 9.771 0 0 1 5.929 9.81a9.755 9.755 0 1 1 19.508.033 9.774 9.774 0 0 1-9.772 9.652Zm8.374-9.865a8.357 8.357 0 0 0-16.713.023 8.357 8.357 0 1 0 16.713-.023Z" data-name="Trazado 1389"/>
    <path d="M45.665 19.495a9.779 9.779 0 0 1-9.69-9.735 9.752 9.752 0 1 1 19.5.189 9.779 9.779 0 0 1-9.81 9.546Zm-8.3-9.891a8.358 8.358 0 1 0 16.716.062 8.359 8.359 0 0 0-16.716-.062Z" data-name="Trazado 1390"/>
    <path d="M30.356 23.209a9.305 9.305 0 1 1-.07 18.609 9.305 9.305 0 0 1 .07-18.609Zm.281 1.4a7.856 7.856 0 0 0-8.093 7.668 7.657 7.657 0 0 0 7.491 8.1 7.736 7.736 0 0 0 8.3-7.582 7.9 7.9 0 0 0-7.7-8.182Z" data-name="Trazado 1391"/>
    <path d="M12.914 25.952a8.038 8.038 0 0 1-1.242-.016 1.012 1.012 0 0 1-.69-.394.9.9 0 0 1 .113-.777c1.1-1.407 2.224-2.8 3.358-4.165a.7.7 0 0 1 1.218.017 207.648 207.648 0 0 1 3.319 4.123.9.9 0 0 1 .155.777 1.154 1.154 0 0 1-.733.422 6.072 6.072 0 0 1-1.149.019 4.229 4.229 0 0 0 .924 3.046c.492.621 1.044 1.2 1.587 1.778.278.3.544.589.357 1.019a.807.807 0 0 1-.992.41 15.4 15.4 0 0 1-2.98-.665c-1.946-.8-2.777-2.485-3.1-4.462-.056-.346-.087-.692-.145-1.132Zm.172-1.447c1.163.13 1.159.2 1.272 1.292a10.822 10.822 0 0 0 .586 2.7 3.476 3.476 0 0 0 2.67 2.1 3.048 3.048 0 0 0-.2-.3 6.8 6.8 0 0 1-1.6-4.9c.012-.539.245-.836.8-.846.121 0 .242-.019.443-.036l-1.986-2.449Z" data-name="Trazado 1392"/>
    <path d="M43.664 25.956a8.762 8.762 0 0 1-1.252-.016.7.7 0 0 1-.553-1.162 182.882 182.882 0 0 1 3.4-4.212.662.662 0 0 1 1.138 0c1.149 1.4 2.288 2.8 3.4 4.215a.932.932 0 0 1 .1.789.918.918 0 0 1-.648.371 8.46 8.46 0 0 1-1.242.017c-.112.631-.188 1.242-.329 1.836a6.117 6.117 0 0 1-6.132 4.414 1.142 1.142 0 0 1-.777-.447.969.969 0 0 1 .214-.8c.509-.635 1.1-1.2 1.623-1.825a4.69 4.69 0 0 0 1.058-3.18Zm-.457 4.659a3.748 3.748 0 0 0 3.024-2.848 15.3 15.3 0 0 0 .331-2.406c.05-.513.272-.787.792-.8.124 0 .247-.017.466-.033l-1.988-2.455-1.965 2.42c1.21.191 1.266.247 1.211 1.471a12.485 12.485 0 0 1-.174 1.5 6.719 6.719 0 0 1-1.7 3.161Z" data-name="Trazado 1393"/>
    <path d="M11.339 11.424v-3.6a1.339 1.339 0 0 1-.486-.116c-.205-.146-.523-.367-.514-.54.034-.66.034-1.364.7-1.808 1.351-.907 2.7-1.819 4.038-2.758a.967.967 0 0 1 1.266.017c1.3.913 2.609 1.819 3.94 2.687a1.948 1.948 0 0 1 .753 1.836c0 .255-.466.511-.707.766l-.129-.1v3.634c.73.012.915.466.932 1.114.016.579.12 1.156.175 1.735.062.652-.2.952-.848.952q-4.773.009-9.545 0c-.646 0-.9-.311-.829-.966.059-.579.129-1.157.177-1.736.065-.872.144-.973 1.077-1.117Zm7.739-5.088.04-.112c-1.07-.728-2.132-1.468-3.216-2.174a.634.634 0 0 0-.545.07c-.814.525-1.607 1.087-2.407 1.628-.241.165-.475.337-.826.589Zm-7.548 7.47h8.3l-.085-.881h-8.118Zm6.155-6.023v3.65h1.05v-3.65Zm-2.5 0v3.661h1.01v-3.67Zm-2.381 0v3.659h.882V7.78Z" data-name="Trazado 1394"/>
    <path d="M40.974 13.586h1.165v-2.45c0-.193-.047-.452.056-.564.185-.2.5-.475.7-.432a.932.932 0 0 1 .6.621 16.734 16.734 0 0 1 .039 2.035v.777h1.48v-3.556c.008-.466.2-.823.7-.822s.694.351.693.823v3.567h1.492V8.852a3.252 3.252 0 0 1 .008-.408c.056-.418.272-.693.722-.674a.64.64 0 0 1 .663.724v5.122h1.607c.573.011.874.267.845.727-.034.52-.374.671-.842.671H40.42c-.632 0-.85-.233-.851-.9V5.84c0-.483.118-.862.662-.919.443-.047.733.311.735.913.008 2.368 0 4.737 0 7.105Z" data-name="Trazado 1395"/>
    <path d="M47.317 4.34c-.466-.175-.75-.435-.621-.932s.511-.522.921-.519.815 0 1.222-.012a.707.707 0 0 1 .808.777l.025 1.222c.008.376.031.828-.416.91a3.519 3.519 0 0 1-1.137-.224c-.34.379-.815.888-1.264 1.421a.855.855 0 0 1-1.179.25c-.359-.185-.732-.339-1.123-.517-.466.581-.932 1.134-1.371 1.694-.3.374-.637.592-1.087.273-.373-.259-.362-.683.02-1.163.519-.654 1.058-1.292 1.569-1.951a.833.833 0 0 1 1.12-.278c1.242.531 1.242.522 2.132-.492.113-.142.222-.273.381-.459Z" data-name="Trazado 1396"/>
    <path d="M29.836 36.247c0-1.107.009-2.151-.016-3.193 0-.113-.183-.261-.311-.325-.311-.155-.657-.235-.968-.39a2.342 2.342 0 0 1-.94-3.533 3.611 3.611 0 0 1 2.106-1.46c.107-.575-.191-1.441.755-1.44.864 0 .621.809.693 1.319.634.245 1.242.466 1.844.722a3.17 3.17 0 0 1 .716.491.658.658 0 0 1 .155 1.016c-.311.374-.646.32-1.031.079-.494-.311-1.017-.567-1.618-.9 0 1.087-.012 2 .014 2.907 0 .113.186.252.311.328a11.963 11.963 0 0 1 1.51.845 2.528 2.528 0 0 1-.134 4.237 2.256 2.256 0 0 1-.649.379c-.64.183-1.107.426-1.01 1.242.019.155-.41.492-.669.542a.547.547 0 0 1-.651-.632c.085-.672-.292-.777-.808-.978a12.322 12.322 0 0 1-2.131-1.242.625.625 0 0 1-.113-1.011.683.683 0 0 1 1.07.023 3.441 3.441 0 0 0 1.875.974Zm1.444-.051c.919-.272 1.483-.862 1.458-1.457a1.675 1.675 0 0 0-1.458-1.374Zm-1.5-7.349c-.831.34-1.277.912-1.216 1.483.051.491.5.839 1.216.94Z" data-name="Trazado 1397"/>
  </g>
</svg>